{
.appVersion = "3133";
.formatVersion = 3;
axes = (
{
name = Weight;
tag = wght;
}
);
classes = (
{
automatic = 1;

glyphs = (
{
color = 4;
glyphname = A;
layers = (
{
anchors = (
{
name = bottom;
pos = (264,0);
},
{
name = ogonek;
pos = (501,0);
},
{
name = top;
pos = (361,686);
}
);
hints = (
{
horizontal = 1;
origin = (0,7);
target = up;
type = BottomGhost;
},
{
horizontal = 1;
origin = (1,3);
target = (1,2);
type = Stem;
},
{
horizontal = 1;
origin = (0,6);
target = down;
type = TopGhost;
},
{
horizontal = 1;
origin = (0,6);
target = (0,1);
type = Stem;
}
);
layerId = "1E610136-9B4E-49B0-BDBC-BF9A1AAA9445";
shapes = (
{
closed = 1;
nodes = (
(44,0,l),
(350,612,l),
(354,612,l),
(490,0,l),
(544,0,l),
(389,686,l),
(333,686,l),
(-16,0,l)
);
},
{
closed = 1;
nodes = (
(469,170,l),
(476,219,l),
(112,219,l),
(105,170,l)
);
}
);
width = 600;
},
{
anchors = (
{
name = bottom;
pos = (261,0);
},
{
name = ogonek;
pos = (420,0);
},
{
name = top;
pos = (361,686);
}
);
background = {
shapes = (
{
closed = 1;
nodes = (
(157,0,l),
(214,122,l),
(432,122,l),
(456,0,l),
(674,0,l),
(542,686,l),
(281,686,l),
(-44,0,l)
);
},
{
closed = 1;
nodes = (
(371,475,l),
(376,475,l),
(405,267,l),
(283,267,l)
);
}
);
};
hints = (
{
horizontal = 1;
origin = (0,7);
target = up;
type = BottomGhost;
},
{
horizontal = 1;
origin = (1,3);
target = (1,2);
type = Stem;
},
{
horizontal = 1;
origin = (0,6);
target = (0,1);
type = Stem;
}
);
layerId = "C8A46E0E-B991-4CFC-ABD9-554F5B3B1198";
shapes = (
{
closed = 1;
nodes = (
(168,0,l),
(334,525,l),
(339,525,l),
(364,0,l),
(564,0,l),
(494,686,l),
(226,686,l),
(-36,0,l)
);
},
{
closed = 1;
nodes = (
(433,122,l),
(454,267,l),
(142,267,l),
(121,122,l)
);
}
);
width = 600;
},
{
anchors = (
{
name = bottom;
pos = (263,0);
},
{
name = ogonek;
pos = (456,0);
},
{
name = top;
pos = (361,686);
}
);
hints = (
{
horizontal = 1;
origin = (0,7);
target = up;
type = BottomGhost;
},
{
horizontal = 1;
origin = (1,3);
target = (1,2);
type = Stem;
},
{
horizontal = 1;
origin = (0,6);
target = down;
type = TopGhost;
},
{
horizontal = 1;
origin = (0,6);
target = (0,1);
type = Stem;
}
);
layerId = "56C8974D-A8FC-4FE2-AFFA-564C2D1D7F2D";
shapes = (
{
closed = 1;
nodes = (
(99,0,l),
(343,573,l),
(347,573,l),
(434,0,l),
(553,0,l),
(436,686,l),
(285,686,l),
(-25,0,l)
);
},
{
closed = 1;
nodes = (
(453,149,l),
(466,240,l),
(125,240,l),
(112,149,l)
);
}
);
width = 600;
}
);
note = A;
unicode = 65;
},
{
color = 1;
glyphname = Abreve;
layers = (
{
background = {
shapes = (
{
closed = 1;
nodes = (
(36,0,l),
(130,170,l),
(492,170,l),
(539,0,l),
(598,0,l),
(411,686,l),
(361,686,l),
(-19,0,l)
);
},
{
closed = 1;
nodes = (
(371,612,l),
(375,612,l),
(479,219,l),
(157,219,l)
);
},
{
closed = 1;
nodes = (
(510,760,o),
(595,822,o),
(604,884,c),
(548,884,l),
(523,829,o),
(465,809,o),
(400,809,cs),
(335,809,o),
(283,829,o),
(275,884,c),
(219,884,l),
(210,822,o),
(281,760,o),
(395,760,cs)
);
}
);
};
layerId = "1E610136-9B4E-49B0-BDBC-BF9A1AAA9445";
shapes = (
{
ref = A;
},
{
ref = brevecomb.cap;
}
);
width = 600;
},
{
background = {
shapes = (
{
closed = 1;
nodes = (
(157,0,l),
(214,122,l),
(432,122,l),
(456,0,l),
(674,0,l),
(542,686,l),
(281,686,l),
(-44,0,l)
);
},
{
closed = 1;
nodes = (
(371,475,l),
(376,475,l),
(405,267,l),
(283,267,l)
);
},
{
closed = 1;
nodes = (
(531,761,o),
(609,810,o),
(620,890,c),
(525,890,l),
(514,861,o),
(480,847,o),
(421,847,cs),
(363,847,o),
(332,861,o),
(331,890,c),
(235,890,l),
(224,810,o),
(297,761,o),
(414,761,cs)
);
}
);
};
layerId = "C8A46E0E-B991-4CFC-ABD9-554F5B3B1198";
shapes = (
{
ref = A;
},
{
pos = (1,0);
ref = brevecomb.cap;
}
);
width = 600;
},
{
layerId = "56C8974D-A8FC-4FE2-AFFA-564C2D1D7F2D";
shapes = (
{
ref = A;
},
{
ref = brevecomb.cap;
}
);
width = 600;
}
);
note = Abreve;
unicode = 258;
},
{
color = 1;
glyphname = Abreveacute;
layers = (
{
background = {
shapes = (
{
closed = 1;
nodes = (
(36,0,l),
(130,170,l),
(492,170,l),
(539,0,l),
(598,0,l),
(411,686,l),
(361,686,l),
(-19,0,l)
);
},
{
closed = 1;
nodes = (
(371,612,l),
(375,612,l),
(479,219,l),
(157,219,l)
);
},
{
closed = 1;
nodes = (
(511,760,o),
(595,822,o),
(604,884,c),
(548,884,l),
(523,829,o),
(465,809,o),
(400,809,cs),
(335,809,o),
(283,829,o),
(275,884,c),
(219,884,l),
(210,822,o),
(282,760,o),
(396,760,cs)
);
},
{
closed = 1;
nodes = (
(421,884,l),
(551,1026,l),
(552,1029,l),
(487,1029,l),
(371,884,l)
);
}
);
};
layerId = "1E610136-9B4E-49B0-BDBC-BF9A1AAA9445";
shapes = (
{
ref = A;
},
{
pos = (49,0);
ref = brevecomb_acutecomb.cap;
}
);
width = 600;
},
{
background = {
shapes = (
{
closed = 1;
nodes = (
(157,0,l),
(214,122,l),
(432,122,l),
(456,0,l),
(674,0,l),
(542,686,l),
(281,686,l),
(-44,0,l)
);
},
{
closed = 1;
nodes = (
(371,475,l),
(376,475,l),
(405,267,l),
(283,267,l)
);
},
{
closed = 1;
nodes = (
(528,761,o),
(609,810,o),
(620,890,c),
(525,890,l),
(514,861,o),
(480,847,o),
(421,847,cs),
(363,847,o),
(332,861,o),
(331,890,c),
(235,890,l),
(224,810,o),
(294,761,o),
(411,761,cs)
);
},
{
closed = 1;
nodes = (
(484,890,l),
(630,1032,l),
(628,1035,l),
(477,1035,l),
(366,890,l)
);
}
);
};
layerId = "C8A46E0E-B991-4CFC-ABD9-554F5B3B1198";
shapes = (
{
ref = A;
},
{
pos = (49,0);
ref = brevecomb_acutecomb.cap;
}
);
width = 600;
},
{
layerId = "56C8974D-A8FC-4FE2-AFFA-564C2D1D7F2D";
shapes = (
{
ref = A;
},
{
pos = (48,0);
ref = brevecomb_acutecomb.cap;
}
);
width = 600;
}
);
note = uni1EAE;
unicode = 7854;
},
{
color = 1;
glyphname = Abrevehookabove;
layers = (
{
background = {
shapes = (
{
closed = 1;
nodes = (
(36,0,l),
(130,170,l),
(492,170,l),
(539,0,l),
(598,0,l),
(411,686,l),
(361,686,l),
(-19,0,l)
);
},
{
closed = 1;
nodes = (
(371,612,l),
(375,612,l),
(479,219,l),
(157,219,l)
);
},
{
closed = 1;
nodes = (
(513,760,o),
(595,822,o),
(604,884,c),
(548,884,l),
(523,829,o),
(466,809,o),
(401,809,cs),
(336,809,o),
(283,829,o),
(275,884,c),
(219,884,l),
(219,799,o),
(305,760,o),
(398,760,cs)
);
},
{
closed = 1;
nodes = (
(448,897,o),
(505,942,o),
(505,999,cs),
(505,1041,o),
(475,1062,o),
(431,1062,cs),
(413,1062,o),
(394,1059,o),
(373,1052,c),
(367,1013,l),
(386,1020,o),
(406,1023,o),
(421,1023,cs),
(446,1023,o),
(464,1013,o),
(464,989,cs),
(464,957,o),
(437,933,o),
(393,930,c),
(387,893,l)
);
}
);
};
layerId = "1E610136-9B4E-49B0-BDBC-BF9A1AAA9445";
shapes = (
{
ref = A;
},
{
pos = (41,0);
ref = brevecomb_hookcomb.cap;
}
);
width = 600;
},
{
background = {
shapes = (
{
closed = 1;
nodes = (
(157,0,l),
(214,122,l),
(432,122,l),
(456,0,l),
(674,0,l),
(542,686,l),
(281,686,l),
(-44,0,l)
);
},
{
closed = 1;
nodes = (
(371,475,l),
(376,475,l),
(405,267,l),
(283,267,l)
);
},
{
closed = 1;
nodes = (
(529,761,o),
(608,810,o),
(619,890,c),
(524,890,l),
(513,861,o),
(479,847,o),
(420,847,cs),
(362,847,o),
(331,861,o),
(330,890,c),
(234,890,l),
(218,808,o),
(306,761,o),
(412,761,cs)
);
},
{
closed = 1;
nodes = (
(479,903,o),
(557,956,o),
(557,1032,cs),
(557,1086,o),
(513,1116,o),
(453,1116,cs),
(433,1116,o),
(412,1115,o),
(390,1109,c),
(378,1021,l),
(402,1029,o),
(421,1032,o),
(436,1032,cs),
(458,1032,o),
(471,1022,o),
(471,1006,cs),
(471,981,o),
(450,968,o),
(420,964,c),
(411,900,l)
);
}
);
};
layerId = "C8A46E0E-B991-4CFC-ABD9-554F5B3B1198";
shapes = (
{
ref = A;
},
{
pos = (54,0);
ref = brevecomb_hookcomb.cap;
}
);
width = 600;
},
{
layerId = "56C8974D-A8FC-4FE2-AFFA-564C2D1D7F2D";
shapes = (
{
ref = A;
},
{
pos = (52,0);
ref = brevecomb_hookcomb.cap;
}
);
width = 600;
}
);
note = uni1EB2;
unicode = 7858;
},
{
color = 1;
glyphname = Abrevetilde;
layers = (
{
background = {
shapes = (
{
closed = 1;
nodes = (
(36,0,l),
(130,170,l),
(492,170,l),
(539,0,l),
(598,0,l),
(411,686,l),
(361,686,l),
(-19,0,l)
);
},
{
closed = 1;
nodes = (
(371,612,l),
(375,612,l),
(479,219,l),
(157,219,l)
);
},
{
closed = 1;
nodes = (
(512,760,o),
(595,822,o),
(604,884,c),
(548,884,l),
(523,829,o),
(466,809,o),
(401,809,cs),
(336,809,o),
(283,829,o),
(275,884,c),
(219,884,l),
(210,822,o),
(283,760,o),
(397,760,cs)
);
},
{
closed = 1;
nodes = (
(263,924,l),
(273,947,o),
(291,956,o),
(324,956,cs),
(378,956,o),
(445,924,o),
(509,924,cs),
(588,924,o),
(617,974,o),
(621,1006,c),
(584,1006,l),
(574,983,o),
(556,974,o),
(523,974,cs),
(469,974,o),
(402,1006,o),
(338,1006,cs),
(260,1006,o),
(230,956,o),
(226,924,c)
);
}
);
};
layerId = "1E610136-9B4E-49B0-BDBC-BF9A1AAA9445";
shapes = (
{
ref = A;
},
{
pos = (46,0);
ref = brevecomb_tildecomb.cap;
}
);
width = 600;
},
{
background = {
shapes = (
{
closed = 1;
nodes = (
(157,0,l),
(214,122,l),
(432,122,l),
(456,0,l),
(674,0,l),
(542,686,l),
(281,686,l),
(-44,0,l)
);
},
{
closed = 1;
nodes = (
(371,475,l),
(376,475,l),
(405,267,l),
(283,267,l)
);
},
{
closed = 1;
nodes = (
(529,761,o),
(609,810,o),
(620,890,c),
(525,890,l),
(514,861,o),
(480,847,o),
(421,847,cs),
(363,847,o),
(332,861,o),
(331,890,c),
(235,890,l),
(224,810,o),
(295,761,o),
(412,761,cs)
);
},
{
closed = 1;
nodes = (
(320,922,l),
(330,945,o),
(351,962,o),
(376,962,cs),
(422,962,o),
(431,922,o),
(493,922,cs),
(570,922,o),
(633,993,o),
(643,1065,c),
(562,1065,l),
(552,1042,o),
(532,1025,o),
(507,1025,cs),
(474,1025,o),
(453,1065,o),
(389,1065,cs),
(312,1065,o),
(249,994,o),
(239,922,c)
);
}
);
};
layerId = "C8A46E0E-B991-4CFC-ABD9-554F5B3B1198";
shapes = (
{
ref = A;
},
{
pos = (51,0);
ref = brevecomb_tildecomb.cap;
}
);
width = 600;
},
{
layerId = "56C8974D-A8FC-4FE2-AFFA-564C2D1D7F2D";
shapes = (
{
ref = A;
},
{
pos = (48,0);
ref = brevecomb_tildecomb.cap;
}
);
width = 600;
}
);
note = uni1EB4;
unicode = 7860;
},
{
color = 1;
glyphname = Acaron;
layers = (
{
background = {
shapes = (
{
closed = 1;
nodes = (
(36,0,l),
(130,170,l),
(492,170,l),
(539,0,l),
(598,0,l),
(411,686,l),
(361,686,l),
(-19,0,l)
);
},
{
closed = 1;
nodes = (
(371,612,l),
(375,612,l),
(479,219,l),
(157,219,l)
);
},
{
closed = 1;
nodes = (
(421,760,l),
(573,885,l),
(513,885,l),
(399,808,l),
(307,885,l),
(247,885,l),
(363,760,l)
);
}
);
};
layerId = "1E610136-9B4E-49B0-BDBC-BF9A1AAA9445";
shapes = (
{
ref = A;
},
{
ref = caroncomb.cap;
}
);
width = 600;
},
{
background = {
shapes = (
{
closed = 1;
nodes = (
(157,0,l),
(214,122,l),
(432,122,l),
(456,0,l),
(674,0,l),
(542,686,l),
(281,686,l),
(-44,0,l)
);
},
{
closed = 1;
nodes = (
(371,475,l),
(376,475,l),
(405,267,l),
(283,267,l)
);
},
{
closed = 1;
nodes = (
(471,761,l),
(628,886,l),
(500,886,l),
(418,829,l),
(352,886,l),
(222,886,l),
(343,761,l)
);
}
);
};
layerId = "C8A46E0E-B991-4CFC-ABD9-554F5B3B1198";
shapes = (
{
ref = A;
},
{
ref = caroncomb.cap;
}
);
width = 600;
},
{
layerId = "56C8974D-A8FC-4FE2-AFFA-564C2D1D7F2D";
shapes = (
{
ref = A;
},
{
ref = caroncomb.cap;
}
);
width = 600;
}
);
note = uni01CD;
unicode = 461;
},
{
color = 1;
glyphname = Acircumflex;
layers = (
{
background = {
shapes = (
{
closed = 1;
nodes = (
(36,0,l),
(130,170,l),
(492,170,l),
(539,0,l),
(598,0,l),
(411,686,l),
(361,686,l),
(-19,0,l)
);
},
{
closed = 1;
nodes = (
(371,612,l),
(375,612,l),
(479,219,l),
(157,219,l)
);
},
{
closed = 1;
nodes = (
(289,760,l),
(403,837,l),
(495,760,l),
(555,760,l),
(439,885,l),
(381,885,l),
(229,760,l)
);
}
);
};
layerId = "1E610136-9B4E-49B0-BDBC-BF9A1AAA9445";
shapes = (
{
ref = A;
},
{
ref = circumflexcomb.cap;
}
);
width = 600;
},
{
background = {
shapes = (
{
closed = 1;
nodes = (
(157,0,l),
(214,122,l),
(432,122,l),
(456,0,l),
(674,0,l),
(542,686,l),
(281,686,l),
(-44,0,l)
);
},
{
closed = 1;
nodes = (
(371,475,l),
(376,475,l),
(405,267,l),
(283,267,l)
);
},
{
closed = 1;
nodes = (
(332,761,l),
(414,818,l),
(480,761,l),
(610,761,l),
(489,886,l),
(361,886,l),
(204,761,l)
);
}
);
};
layerId = "C8A46E0E-B991-4CFC-ABD9-554F5B3B1198";
shapes = (
{
ref = A;
},
{
ref = circumflexcomb.cap;
}
);
width = 600;
},
{
layerId = "56C8974D-A8FC-4FE2-AFFA-564C2D1D7F2D";
shapes = (
{
ref = A;
},
{
ref = circumflexcomb.cap;
}
);
width = 600;
}
);
note = Acircumflex;
unicode = 194;
},
{
color = 1;
glyphname = Acircumflexacute;
layers = (
{
background = {
shapes = (
{
closed = 1;
nodes = (
(36,0,l),
(130,170,l),
(492,170,l),
(539,0,l),
(598,0,l),
(411,686,l),
(361,686,l),
(-19,0,l)
);
},
{
closed = 1;
nodes = (
(371,612,l),
(375,612,l),
(479,219,l),
(157,219,l)
);
},
{
closed = 1;
nodes = (
(289,760,l),
(403,837,l),
(495,760,l),
(555,760,l),
(439,885,l),
(381,885,l),
(229,760,l)
);
},
{
closed = 1;
nodes = (
(439,915,l),
(553,1039,l),
(554,1042,l),
(489,1042,l),
(389,915,l)
);
}
);
};
layerId = "1E610136-9B4E-49B0-BDBC-BF9A1AAA9445";
shapes = (
{
ref = A;
},
{
pos = (51,0);
ref = circumflexcomb_acutecomb.cap;
}
);
width = 600;
},
{
background = {
shapes = (
{
closed = 1;
nodes = (
(157,0,l),
(214,122,l),
(432,122,l),
(456,0,l),
(674,0,l),
(542,686,l),
(281,686,l),
(-44,0,l)
);
},
{
closed = 1;
nodes = (
(371,475,l),
(376,475,l),
(405,267,l),
(283,267,l)
);
},
{
closed = 1;
nodes = (
(333,761,l),
(415,818,l),
(481,761,l),
(611,761,l),
(489,886,l),
(361,886,l),
(205,761,l)
);
},
{
closed = 1;
nodes = (
(489,928,l),
(626,1058,l),
(624,1061,l),
(473,1061,l),
(371,928,l)
);
}
);
};
layerId = "C8A46E0E-B991-4CFC-ABD9-554F5B3B1198";
shapes = (
{
ref = A;
},
{
pos = (50,0);
ref = circumflexcomb_acutecomb.cap;
}
);
width = 600;
},
{
layerId = "56C8974D-A8FC-4FE2-AFFA-564C2D1D7F2D";
shapes = (
{
ref = A;
},
{
pos = (61,0);
ref = circumflexcomb_acutecomb.cap;
}
);
width = 600;
}
);
note = uni1EA4;
unicode = 7844;
},
{
color = 1;
glyphname = Acircumflexdotbelow;
layers = (
{
background = {
shapes = (
{
closed = 1;
nodes = (
(36,0,l),
(130,170,l),
(492,170,l),
(539,0,l),
(598,0,l),
(411,686,l),
(361,686,l),
(-19,0,l)
);
},
{
closed = 1;
nodes = (
(300,-147,l),
(310,-78,l),
(245,-78,l),
(235,-147,l)
);
},
{
closed = 1;
nodes = (
(371,612,l),
(375,612,l),
(479,219,l),
(157,219,l)
);
},
{
closed = 1;
nodes = (
(289,760,l),
(403,837,l),
(495,760,l),
(555,760,l),
(439,885,l),
(381,885,l),
(229,760,l)
);
}
);
};
layerId = "1E610136-9B4E-49B0-BDBC-BF9A1AAA9445";
shapes = (
{
ref = A;
},
{
ref = circumflexcomb.cap;
},
{
pos = (-1,0);
ref = dotbelowcomb;
}
);
width = 600;
},
{
background = {
shapes = (
{
closed = 1;
nodes = (
(157,0,l),
(214,122,l),
(432,122,l),
(456,0,l),
(674,0,l),
(542,686,l),
(281,686,l),
(-44,0,l)
);
},
{
closed = 1;
nodes = (
(359,-225,l),
(379,-78,l),
(227,-78,l),
(207,-225,l)
);
},
{
closed = 1;
nodes = (
(371,475,l),
(376,475,l),
(405,267,l),
(283,267,l)
);
},
{
closed = 1;
nodes = (
(332,761,l),
(414,818,l),
(480,761,l),
(610,761,l),
(489,886,l),
(361,886,l),
(204,761,l)
);
}
);
};
layerId = "C8A46E0E-B991-4CFC-ABD9-554F5B3B1198";
shapes = (
{
ref = A;
},
{
ref = circumflexcomb.cap;
},
{
pos = (48,0);
ref = dotbelowcomb;
}
);
width = 600;
},
{
layerId = "56C8974D-A8FC-4FE2-AFFA-564C2D1D7F2D";
shapes = (
{
ref = A;
},
{
ref = circumflexcomb.cap;
},
{
ref = dotbelowcomb;
}
);
width = 600;
}
);
note = uni1EAC;
unicode = 7852;
},
{
color = 1;
glyphname = Acircumflexgrave;
layers = (
{
background = {
shapes = (
{
closed = 1;
nodes = (
(36,0,l),
(130,170,l),
(492,170,l),
(539,0,l),
(598,0,l),
(411,686,l),
(361,686,l),
(-19,0,l)
);
},
{
closed = 1;
nodes = (
(371,612,l),
(375,612,l),
(479,219,l),
(157,219,l)
);
},
{
closed = 1;
nodes = (
(295,760,l),
(409,837,l),
(501,760,l),
(561,760,l),
(445,885,l),
(387,885,l),
(235,760,l)
);
},
{
closed = 1;
nodes = (
(445,915,l),
(381,1042,l),
(316,1042,l),
(315,1039,l),
(395,915,l)
);
}
);
};
layerId = "1E610136-9B4E-49B0-BDBC-BF9A1AAA9445";
shapes = (
{
ref = A;
},
{
pos = (41,0);
ref = circumflexcomb_gravecomb.cap;
}
);
width = 600;
},
{
background = {
shapes = (
{
closed = 1;
nodes = (
(157,0,l),
(214,122,l),
(432,122,l),
(456,0,l),
(674,0,l),
(542,686,l),
(281,686,l),
(-44,0,l)
);
},
{
closed = 1;
nodes = (
(371,475,l),
(376,475,l),
(405,267,l),
(283,267,l)
);
},
{
closed = 1;
nodes = (
(343,761,l),
(425,818,l),
(491,761,l),
(619,761,l),
(497,886,l),
(369,886,l),
(213,761,l)
);
},
{
closed = 1;
nodes = (
(499,928,l),
(435,1061,l),
(284,1061,l),
(282,1058,l),
(381,928,l)
);
}
);
};
layerId = "C8A46E0E-B991-4CFC-ABD9-554F5B3B1198";
shapes = (
{
ref = A;
},
{
pos = (58,0);
ref = circumflexcomb_gravecomb.cap;
}
);
width = 600;
},
{
layerId = "56C8974D-A8FC-4FE2-AFFA-564C2D1D7F2D";
shapes = (
{
ref = A;
},
{
pos = (58,0);
ref = circumflexcomb_gravecomb.cap;
}
);
width = 600;
}
);
note = uni1EA6;
unicode = 7846;
},
{
color = 1;
glyphname = Acircumflexhookabove;
layers = (
{
background = {
shapes = (
{
closed = 1;
nodes = (
(36,0,l),
(130,170,l),
(492,170,l),
(539,0,l),
(598,0,l),
(411,686,l),
(361,686,l),
(-19,0,l)
);
},
{
closed = 1;
nodes = (
(371,612,l),
(375,612,l),
(479,219,l),
(157,219,l)
);
},
{
closed = 1;
nodes = (
(289,760,l),
(403,837,l),
(495,760,l),
(555,760,l),
(439,885,l),
(381,885,l),
(229,760,l)
);
},
{
closed = 1;
nodes = (
(461,919,o),
(517,964,o),
(517,1022,cs),
(517,1063,o),
(487,1084,o),
(444,1084,cs),
(426,1084,o),
(406,1081,o),
(385,1074,c),
(380,1035,l),
(399,1042,o),
(418,1045,o),
(433,1045,cs),
(458,1045,o),
(476,1035,o),
(476,1012,cs),
(476,979,o),
(450,955,o),
(405,952,c),
(400,915,l)
);
}
);
};
hints = (
{
horizontal = 1;
place = (0, 21);
target = up;
type = BottomGhost;
},
{
horizontal = 1;
place = (170, 49);
place = (170, 49);
type = Stem;
},
{
horizontal = 1;
place = (686, -20);
target = down;
type = TopGhost;
},
{
horizontal = 1;
place = (760, 125);
place = (760, 125);
type = Stem;
},
{
horizontal = 1;
place = (1045, 39);
place = (1045, 39);
type = Stem;
},
{
place = (476, 41);
place = (476, 41);
type = Stem;
},
{
horizontal = 1;
place = (612, 74);
place = (612, 74);
type = Stem;
}
);
layerId = "1E610136-9B4E-49B0-BDBC-BF9A1AAA9445";
shapes = (
{
ref = A;
},
{
pos = (53,0);
ref = circumflexcomb_hookcomb.cap;
}
);
width = 600;
},
{
background = {
shapes = (
{
closed = 1;
nodes = (
(157,0,l),
(214,122,l),
(432,122,l),
(456,0,l),
(674,0,l),
(542,686,l),
(281,686,l),
(-44,0,l)
);
},
{
closed = 1;
nodes = (
(371,475,l),
(376,475,l),
(405,267,l),
(283,267,l)
);
},
{
closed = 1;
nodes = (
(332,761,l),
(414,818,l),
(480,761,l),
(610,761,l),
(489,886,l),
(361,886,l),
(204,761,l)
);
},
{
closed = 1;
nodes = (
(480,931,o),
(558,984,o),
(558,1060,cs),
(558,1114,o),
(514,1144,o),
(454,1144,cs),
(434,1144,o),
(413,1143,o),
(391,1137,c),
(379,1049,l),
(403,1057,o),
(422,1060,o),
(437,1060,cs),
(459,1060,o),
(472,1050,o),
(472,1034,cs),
(472,1009,o),
(451,996,o),
(421,992,c),
(412,928,l)
);
}
);
};
layerId = "C8A46E0E-B991-4CFC-ABD9-554F5B3B1198";
shapes = (
{
ref = A;
},
{
pos = (50,0);
ref = circumflexcomb_hookcomb.cap;
}
);
width = 600;
},
{
hints = (
{
horizontal = 1;
place = (0, 21);
target = up;
type = BottomGhost;
},
{
horizontal = 1;
place = (94, 27);
place = (94, 27);
type = Stem;
},
{
horizontal = 1;
place = (381, -20);
target = down;
type = TopGhost;
},
{
horizontal = 1;
place = (422, 69);
place = (422, 69);
type = Stem;
},
{
horizontal = 1;
place = (581, 22);
place = (581, 22);
type = Stem;
},
{
place = (264, 23);
place = (264, 23);
type = Stem;
},
{
horizontal = 1;
place = (340, 41);
place = (340, 41);
type = Stem;
}
);
layerId = "56C8974D-A8FC-4FE2-AFFA-564C2D1D7F2D";
shapes = (
{
ref = A;
},
{
pos = (55,0);
ref = circumflexcomb_hookcomb.cap;
}
);
width = 600;
}
);
note = uni1EA8;
unicode = 7848;
},
{
color = 1;
glyphname = Acircumflextilde;
layers = (
{
background = {
shapes = (
{
closed = 1;
nodes = (
(36,0,l),
(130,170,l),
(492,170,l),
(539,0,l),
(598,0,l),
(411,686,l),
(361,686,l),
(-19,0,l)
);
},
{
closed = 1;
nodes = (
(371,612,l),
(375,612,l),
(479,219,l),
(157,219,l)
);
},
{
closed = 1;
nodes = (
(290,760,l),
(403,837,l),
(496,760,l),
(556,760,l),
(439,885,l),
(381,885,l),
(230,760,l)
);
},
{
closed = 1;
nodes = (
(262,925,l),
(272,948,o),
(290,957,o),
(323,957,cs),
(377,957,o),
(444,925,o),
(508,925,cs),
(587,925,o),
(616,975,o),
(620,1007,c),
(583,1007,l),
(573,984,o),
(555,975,o),
(522,975,cs),
(468,975,o),
(401,1007,o),
(337,1007,cs),
(259,1007,o),
(229,957,o),
(225,925,c)
);
}
);
};
layerId = "1E610136-9B4E-49B0-BDBC-BF9A1AAA9445";
shapes = (
{
ref = A;
},
{
pos = (38,0);
ref = circumflexcomb_tildecomb.cap;
}
);
width = 600;
},
{
background = {
shapes = (
{
closed = 1;
nodes = (
(157,0,l),
(214,122,l),
(432,122,l),
(456,0,l),
(674,0,l),
(542,686,l),
(281,686,l),
(-44,0,l)
);
},
{
closed = 1;
nodes = (
(371,475,l),
(376,475,l),
(405,267,l),
(283,267,l)
);
},
{
closed = 1;
nodes = (
(333,761,l),
(415,818,l),
(481,761,l),
(611,761,l),
(489,886,l),
(361,886,l),
(205,761,l)
);
},
{
closed = 1;
nodes = (
(317,918,l),
(327,941,o),
(348,958,o),
(373,958,cs),
(419,958,o),
(428,918,o),
(490,918,cs),
(567,918,o),
(630,989,o),
(640,1061,c),
(559,1061,l),
(549,1038,o),
(528,1021,o),
(503,1021,cs),
(470,1021,o),
(450,1061,o),
(386,1061,cs),
(309,1061,o),
(246,990,o),
(236,918,c)
);
}
);
};
layerId = "C8A46E0E-B991-4CFC-ABD9-554F5B3B1198";
shapes = (
{
ref = A;
},
{
pos = (60,0);
ref = circumflexcomb_tildecomb.cap;
}
);
width = 600;
},
{
layerId = "56C8974D-A8FC-4FE2-AFFA-564C2D1D7F2D";
shapes = (
{
ref = A;
},
{
pos = (60,0);
ref = circumflexcomb_tildecomb.cap;
}
);
width = 600;
}
);
note = uni1EAA;
unicode = 7850;
},
{
color = 1;
glyphname = Adblgrave;
layers = (
{
background = {
shapes = (
{
closed = 1;
nodes = (
(36,0,l),
(130,170,l),
(492,170,l),
(539,0,l),
(598,0,l),
(411,686,l),
(361,686,l),
(-19,0,l)
);
},
{
closed = 1;
nodes = (
(371,612,l),
(375,612,l),
(479,219,l),
(157,219,l)
);
},
{
closed = 1;
nodes = (
(354,750,l),
(278,895,l),
(214,895,l),
(213,892,l),
(304,750,l)
);
},
{
closed = 1;
nodes = (
(479,750,l),
(403,895,l),
(339,895,l),
(338,892,l),
(429,750,l)
);
}
);
};
layerId = "1E610136-9B4E-49B0-BDBC-BF9A1AAA9445";
shapes = (
{
ref = A;
},
{
pos = (-56,0);
ref = dblgravecomb.cap;
}
);
width = 600;
},
{
background = {
shapes = (
{
closed = 1;
nodes = (
(157,0,l),
(214,122,l),
(432,122,l),
(456,0,l),
(674,0,l),
(542,686,l),
(281,686,l),
(-44,0,l)
);
},
{
closed = 1;
nodes = (
(371,475,l),
(376,475,l),
(405,267,l),
(283,267,l)
);
},
{
closed = 1;
nodes = (
(362,750,l),
(291,895,l),
(140,895,l),
(138,892,l),
(244,750,l)
);
},
{
closed = 1;
nodes = (
(589,750,l),
(518,895,l),
(367,895,l),
(365,892,l),
(471,750,l)
);
}
);
};
layerId = "C8A46E0E-B991-4CFC-ABD9-554F5B3B1198";
shapes = (
{
ref = A;
},
{
pos = (-57,0);
ref = dblgravecomb.cap;
}
);
width = 600;
},
{
layerId = "56C8974D-A8FC-4FE2-AFFA-564C2D1D7F2D";
shapes = (
{
ref = A;
},
{
pos = (-54,0);
ref = dblgravecomb.cap;
}
);
width = 600;
}
);
note = uni0200;
unicode = 512;
},
{
color = 1;
glyphname = Adieresis;
layers = (
{
background = {
shapes = (
{
closed = 1;
nodes = (
(36,0,l),
(130,170,l),
(492,170,l),
(539,0,l),
(598,0,l),
(411,686,l),
(361,686,l),
(-19,0,l)
);
},
{
closed = 1;
nodes = (
(371,612,l),
(375,612,l),
(479,219,l),
(157,219,l)
);
},
{
closed = 1;
nodes = (
(345,797,l),
(355,866,l),
(290,866,l),
(280,797,l)
);
},
{
closed = 1;
nodes = (
(521,797,l),
(531,866,l),
(466,866,l),
(456,797,l)
);
}
);
};
layerId = "1E610136-9B4E-49B0-BDBC-BF9A1AAA9445";
shapes = (
{
ref = A;
},
{
ref = dieresiscomb.cap;
}
);
width = 600;
},
{
background = {
shapes = (
{
closed = 1;
nodes = (
(157,0,l),
(214,122,l),
(432,122,l),
(456,0,l),
(674,0,l),
(542,686,l),
(281,686,l),
(-44,0,l)
);
},
{
closed = 1;
nodes = (
(371,475,l),
(376,475,l),
(405,267,l),
(283,267,l)
);
},
{
closed = 1;
nodes = (
(376,748,l),
(396,895,l),
(244,895,l),
(224,748,l)
);
},
{
closed = 1;
nodes = (
(596,748,l),
(616,895,l),
(464,895,l),
(444,748,l)
);
}
);
};
layerId = "C8A46E0E-B991-4CFC-ABD9-554F5B3B1198";
shapes = (
{
ref = A;
},
{
pos = (1,0);
ref = dieresiscomb.cap;
}
);
width = 600;
},
{
layerId = "56C8974D-A8FC-4FE2-AFFA-564C2D1D7F2D";
shapes = (
{
ref = A;
},
{
ref = dieresiscomb.cap;
}
);
width = 600;
}
);
note = Adieresis;
unicode = 196;
},
{
color = 1;
glyphname = Adotbelow;
layers = (
{
background = {
shapes = (
{
closed = 1;
nodes = (
(36,0,l),
(130,170,l),
(492,170,l),
(539,0,l),
(598,0,l),
(411,686,l),
(361,686,l),
(-19,0,l)
);
},
{
closed = 1;
nodes = (
(300,-147,l),
(310,-78,l),
(245,-78,l),
(235,-147,l)
);
},
{
closed = 1;
nodes = (
(371,612,l),
(375,612,l),
(479,219,l),
(157,219,l)
);
}
);
};
layerId = "1E610136-9B4E-49B0-BDBC-BF9A1AAA9445";
shapes = (
{
ref = A;
},
{
pos = (-1,0);
ref = dotbelowcomb;
}
);
width = 600;
},
{
background = {
shapes = (
{
closed = 1;
nodes = (
(157,0,l),
(214,122,l),
(432,122,l),
(456,0,l),
(674,0,l),
(542,686,l),
(281,686,l),
(-44,0,l)
);
},
{
closed = 1;
nodes = (
(359,-225,l),
(379,-78,l),
(227,-78,l),
(207,-225,l)
);
},
{
closed = 1;
nodes = (
(371,475,l),
(376,475,l),
(405,267,l),
(283,267,l)
);
}
);
};
layerId = "C8A46E0E-B991-4CFC-ABD9-554F5B3B1198";
shapes = (
{
ref = A;
},
{
pos = (48,0);
ref = dotbelowcomb;
}
);
width = 600;
},
{
layerId = "56C8974D-A8FC-4FE2-AFFA-564C2D1D7F2D";
shapes = (
{
ref = A;
},
{
ref = dotbelowcomb;
}
);
width = 600;
}
);
note = uni1EA0;
unicode = 7840;
},
{
color = 1;
glyphname = Agrave;
layers = (
{
background = {
shapes = (
{
closed = 1;
nodes = (
(36,0,l),
(130,170,l),
(492,170,l),
(539,0,l),
(598,0,l),
(411,686,l),
(361,686,l),
(-19,0,l)
);
},
{
closed = 1;
nodes = (
(371,612,l),
(375,612,l),
(479,219,l),
(157,219,l)
);
},
{
closed = 1;
nodes = (
(422,750,l),
(346,895,l),
(281,895,l),
(281,892,l),
(372,750,l)
);
}
);
};
layerId = "1E610136-9B4E-49B0-BDBC-BF9A1AAA9445";
shapes = (
{
ref = A;
},
{
pos = (-28,0);
ref = gravecomb.cap;
}
);
width = 600;
},
{
background = {
shapes = (
{
closed = 1;
nodes = (
(157,0,l),
(214,122,l),
(432,122,l),
(456,0,l),
(674,0,l),
(542,686,l),
(281,686,l),
(-44,0,l)
);
},
{
closed = 1;
nodes = (
(371,475,l),
(376,475,l),
(405,267,l),
(283,267,l)
);
},
{
closed = 1;
nodes = (
(477,751,l),
(406,896,l),
(255,896,l),
(253,893,l),
(359,751,l)
);
}
);
};
layerId = "C8A46E0E-B991-4CFC-ABD9-554F5B3B1198";
shapes = (
{
ref = A;
},
{
pos = (-13,0);
ref = gravecomb.cap;
}
);
width = 600;
},
{
layerId = "56C8974D-A8FC-4FE2-AFFA-564C2D1D7F2D";
shapes = (
{
ref = A;
},
{
pos = (-35,0);
ref = gravecomb.cap;
}
);
width = 600;
}
);
note = Agrave;
unicode = 192;
},
{
color = 1;
glyphname = Ahookabove;
layers = (
{
background = {
shapes = (
{
closed = 1;
nodes = (
(36,0,l),
(130,170,l),
(492,170,l),
(539,0,l),
(598,0,l),
(411,686,l),
(361,686,l),
(-19,0,l)
);
},
{
closed = 1;
nodes = (
(371,612,l),
(375,612,l),
(479,219,l),
(157,219,l)
);
},
{
closed = 1;
nodes = (
(441,743,o),
(505,795,o),
(505,862,cs),
(505,908,o),
(472,933,o),
(421,933,cs),
(401,933,o),
(378,929,o),
(354,921,c),
(348,876,l),
(370,884,o),
(391,888,o),
(409,888,cs),
(438,888,o),
(458,876,o),
(458,848,cs),
(458,811,o),
(427,785,o),
(376,781,c),
(370,739,l)
);
}
);
};
layerId = "1E610136-9B4E-49B0-BDBC-BF9A1AAA9445";
shapes = (
{
ref = A;
},
{
pos = (16,0);
ref = hookabovecomb.cap;
}
);
width = 600;
},
{
background = {
shapes = (
{
closed = 1;
nodes = (
(157,0,l),
(214,122,l),
(432,122,l),
(456,0,l),
(674,0,l),
(542,686,l),
(281,686,l),
(-44,0,l)
);
},
{
closed = 1;
nodes = (
(371,475,l),
(376,475,l),
(405,267,l),
(283,267,l)
);
},
{
closed = 1;
nodes = (
(492,736,o),
(586,805,o),
(586,899,cs),
(586,966,o),
(532,1003,o),
(456,1003,cs),
(431,1003,o),
(405,1001,o),
(377,994,c),
(361,884,l),
(392,894,o),
(416,897,o),
(435,897,cs),
(465,897,o),
(481,882,o),
(478,861,cs),
(474,832,o),
(451,817,o),
(414,813,c),
(403,732,l)
);
}
);
};
layerId = "C8A46E0E-B991-4CFC-ABD9-554F5B3B1198";
shapes = (
{
ref = A;
},
{
pos = (22,0);
ref = hookabovecomb.cap;
}
);
width = 600;
},
{
layerId = "56C8974D-A8FC-4FE2-AFFA-564C2D1D7F2D";
shapes = (
{
ref = A;
},
{
pos = (18,0);
ref = hookabovecomb.cap;
}
);
width = 600;
}
);
note = uni1EA2;
unicode = 7842;
},
{
color = 1;
glyphname = Ainvertedbreve;
layers = (
{
background = {
shapes = (
{
closed = 1;
nodes = (
(36,0,l),
(130,170,l),
(492,170,l),
(539,0,l),
(598,0,l),
(411,686,l),
(361,686,l),
(-19,0,l)
);
},
{
closed = 1;
nodes = (
(371,612,l),
(375,612,l),
(479,219,l),
(157,219,l)
);
},
{
closed = 1;
nodes = (
(254,760,l),
(279,815,o),
(337,835,o),
(402,835,cs),
(467,835,o),
(519,815,o),
(527,760,c),
(583,760,l),
(592,822,o),
(521,884,o),
(407,884,cs),
(292,884,o),
(207,822,o),
(198,760,c)
);
}
);
};
layerId = "1E610136-9B4E-49B0-BDBC-BF9A1AAA9445";
shapes = (
{
ref = A;
},
{
pos = (2,0);
ref = breveinvertedcomb.cap;
}
);
width = 600;
},
{
background = {
shapes = (
{
closed = 1;
nodes = (
(157,0,l),
(214,122,l),
(432,122,l),
(456,0,l),
(674,0,l),
(542,686,l),
(281,686,l),
(-44,0,l)
);
},
{
closed = 1;
nodes = (
(371,475,l),
(376,475,l),
(405,267,l),
(283,267,l)
);
},
{
closed = 1;
nodes = (
(309,761,l),
(320,790,o),
(354,804,o),
(413,804,cs),
(471,804,o),
(502,790,o),
(503,761,c),
(599,761,l),
(610,841,o),
(537,890,o),
(420,890,cs),
(303,890,o),
(225,841,o),
(214,761,c)
);
}
);
};
layerId = "C8A46E0E-B991-4CFC-ABD9-554F5B3B1198";
shapes = (
{
ref = A;
},
{
pos = (-1,0);
ref = breveinvertedcomb.cap;
}
);
width = 600;
},
{
layerId = "56C8974D-A8FC-4FE2-AFFA-564C2D1D7F2D";
shapes = (
{
ref = A;
},
{
pos = (1,0);
ref = breveinvertedcomb.cap;
}
);
width = 600;
}
);
note = uni0202;
unicode = 514;
},
{
color = 1;
glyphname = Amacron;
layers = (
{
background = {
shapes = (
{
closed = 1;
nodes = (
(36,0,l),
(130,170,l),
(492,170,l),
(539,0,l),
(598,0,l),
(411,686,l),
(361,686,l),
(-19,0,l)
);
},
{
closed = 1;
nodes = (
(371,612,l),
(375,612,l),
(479,219,l),
(157,219,l)
);
},
{
closed = 1;
nodes = (
(562,810,l),
(568,854,l),
(250,854,l),
(244,810,l)
);
}
);
};
layerId = "1E610136-9B4E-49B0-BDBC-BF9A1AAA9445";
shapes = (
{
ref = A;
},
{
pos = (1,0);
ref = macroncomb.cap;
}
);
width = 600;
},
{
background = {
shapes = (
{
closed = 1;
nodes = (
(157,0,l),
(214,122,l),
(432,122,l),
(456,0,l),
(674,0,l),
(542,686,l),
(281,686,l),
(-44,0,l)
);
},
{
closed = 1;
nodes = (
(371,475,l),
(376,475,l),
(405,267,l),
(283,267,l)
);
},
{
closed = 1;
nodes = (
(571,767,l),
(585,861,l),
(267,861,l),
(253,767,l)
);
}
);
};
layerId = "C8A46E0E-B991-4CFC-ABD9-554F5B3B1198";
shapes = (
{
ref = A;
},
{
pos = (1,0);
ref = macroncomb.cap;
}
);
width = 600;
},
{
layerId = "56C8974D-A8FC-4FE2-AFFA-564C2D1D7F2D";
shapes = (
{
ref = A;
},
{
ref = macroncomb.cap;
}
);
width = 600;
}
);
note = Amacron;
unicode = 256;
},
{
color = 1;
glyphname = Aogonek;
layers = (
{
background = {
shapes = (
{
closed = 1;
nodes = (
(591,-143,o),
(621,-135,o),
(649,-119,c),
(641,-86,l),
(619,-93,o),
(596,-100,o),
(572,-100,cs),
(553,-100,o),
(534,-92,o),
(534,-67,cs),
(534,-44,o),
(547,-21,o),
(589,0,c),
(598,0,l),
(411,686,l),
(361,686,l),
(-19,0,l),
(36,0,l),
(130,170,l),
(492,170,l),
(539,0,l),
(537,-1,l),
(505,-16,o),
(474,-44,o),
(474,-83,cs),
(474,-129,o),
(520,-143,o),
(562,-143,cs)
);
},
{
closed = 1;
nodes = (
(371,612,l),
(375,612,l),
(479,219,l),
(157,219,l)
);
}
);
};
layerId = "1E610136-9B4E-49B0-BDBC-BF9A1AAA9445";
shapes = (
{
ref = A;
},
{
pos = (215,0);
ref = ogonekcomb;
}
);
width = 600;
},
{
background = {
shapes = (
{
closed = 1;
nodes = (
(595,-143,o),
(631,-135,o),
(665,-119,c),
(658,-76,l),
(636,-84,o),
(612,-90,o),
(589,-90,cs),
(570,-90,o),
(550,-84,o),
(550,-62,cs),
(550,-31,o),
(582,-13,o),
(605,0,c),
(674,0,l),
(542,686,l),
(281,686,l),
(-44,0,l),
(157,0,l),
(214,122,l),
(432,122,l),
(456,0,l),
(521,0,l),
(495,-17,o),
(470,-45,o),
(470,-83,cs),
(470,-129,o),
(516,-143,o),
(558,-143,cs)
);
},
{
closed = 1;
nodes = (
(371,475,l),
(376,475,l),
(405,267,l),
(283,267,l)
);
}
);
};
layerId = "C8A46E0E-B991-4CFC-ABD9-554F5B3B1198";
shapes = (
{
ref = A;
},
{
pos = (185,0);
ref = ogonekcomb;
}
);
width = 600;
},
{
layerId = "56C8974D-A8FC-4FE2-AFFA-564C2D1D7F2D";
shapes = (
{
ref = A;
},
{
pos = (229,0);
ref = ogonekcomb;
}
);
width = 600;
}
);
note = Aogonek;
unicode = 260;
},
{
color = 1;
glyphname = Aring;
layers = (
{
background = {
shapes = (
{
closed = 1;
nodes = (
(36,0,l),
(130,170,l),
(492,170,l),
(539,0,l),
(598,0,l),
(411,686,l),
(361,686,l),
(-19,0,l)
);
},
{
closed = 1;
nodes = (
(371,612,l),
(375,612,l),
(479,219,l),
(157,219,l)
);
},
{
closed = 1;
nodes = (
(457,720,o),
(507,770,o),
(507,833,cs),
(507,882,o),
(468,921,o),
(418,921,cs),
(358,921,o),
(303,875,o),
(303,809,cs),
(303,759,o),
(342,720,o),
(393,720,cs)
);
},
{
closed = 1;
nodes = (
(362,756,o),
(339,778,o),
(339,814,cs),
(339,854,o),
(373,885,o),
(412,885,cs),
(448,885,o),
(471,864,o),
(471,827,cs),
(471,786,o),
(438,756,o),
(399,756,cs)
);
}
);
};
layerId = "1E610136-9B4E-49B0-BDBC-BF9A1AAA9445";
shapes = (
{
ref = A;
},
{
pos = (3,0);
ref = ringcomb.cap;
}
);
width = 600;
},
{
background = {
shapes = (
{
closed = 1;
nodes = (
(157,0,l),
(214,122,l),
(432,122,l),
(456,0,l),
(674,0,l),
(542,686,l),
(281,686,l),
(-44,0,l)
);
},
{
closed = 1;
nodes = (
(371,475,l),
(376,475,l),
(405,267,l),
(283,267,l)
);
},
{
closed = 1;
nodes = (
(468,736,o),
(520,787,o),
(520,851,cs),
(520,900,o),
(484,937,o),
(433,937,cs),
(370,937,o),
(316,885,o),
(316,823,cs),
(316,772,o),
(353,736,o),
(404,736,cs)
);
},
{
closed = 1;
nodes = (
(395,801,o),
(383,814,o),
(383,831,cs),
(383,854,o),
(400,871,o),
(423,871,cs),
(442,871,o),
(454,859,o),
(454,840,cs),
(454,813,o),
(433,801,o),
(414,801,cs)
);
}
);
};
layerId = "C8A46E0E-B991-4CFC-ABD9-554F5B3B1198";
shapes = (
{
ref = A;
},
{
pos = (4,0);
ref = ringcomb.cap;
}
);
width = 600;
},
{
layerId = "56C8974D-A8FC-4FE2-AFFA-564C2D1D7F2D";
shapes = (
{
ref = A;
},
{
pos = (3,0);
ref = ringcomb.cap;
}
);
width = 600;
}
);
note = Aring;
unicode = 197;
},
{
color = 1;
glyphname = Aringacute;
layers = (
{
background = {
shapes = (
{
closed = 1;
nodes = (
(36,0,l),
(130,170,l),
(492,170,l),
(539,0,l),
(598,0,l),
(411,686,l),
(361,686,l),
(-19,0,l)
);
},
{
closed = 1;
nodes = (
(371,612,l),
(375,612,l),
(479,219,l),
(157,219,l)
);
},
{
closed = 1;
nodes = (
(455,720,o),
(505,770,o),
(505,833,cs),
(505,882,o),
(466,921,o),
(416,921,cs),
(356,921,o),
(301,875,o),
(301,809,cs),
(301,759,o),
(340,720,o),
(391,720,cs)
);
},
{
closed = 1;
nodes = (
(360,756,o),
(337,778,o),
(337,814,cs),
(337,854,o),
(371,885,o),
(410,885,cs),
(446,885,o),
(469,864,o),
(469,827,cs),
(469,786,o),
(436,756,o),
(397,756,cs)
);
},
{
closed = 1;
nodes = (
(442,956,l),
(532,1069,l),
(533,1071,l),
(474,1071,l),
(397,956,l)
);
}
);
};
layerId = "1E610136-9B4E-49B0-BDBC-BF9A1AAA9445";
shapes = (
{
ref = A;
},
{
pos = (141,0);
ref = ringcomb_acutecomb.cap;
}
);
width = 600;
},
{
background = {
shapes = (
{
closed = 1;
nodes = (
(157,0,l),
(214,122,l),
(432,122,l),
(456,0,l),
(674,0,l),
(542,686,l),
(281,686,l),
(-44,0,l)
);
},
{
closed = 1;
nodes = (
(371,475,l),
(376,475,l),
(405,267,l),
(283,267,l)
);
},
{
closed = 1;
nodes = (
(473,736,o),
(525,787,o),
(525,851,cs),
(525,900,o),
(489,937,o),
(438,937,cs),
(375,937,o),
(321,885,o),
(321,823,cs),
(321,772,o),
(358,736,o),
(409,736,cs)
);
},
{
closed = 1;
nodes = (
(400,801,o),
(388,814,o),
(388,831,cs),
(388,854,o),
(405,871,o),
(428,871,cs),
(447,871,o),
(459,859,o),
(459,840,cs),
(459,813,o),
(438,801,o),
(419,801,cs)
);
},
{
closed = 1;
nodes = (
(495,978,l),
(603,1096,l),
(602,1099,l),
(465,1099,l),
(388,978,l)
);
}
);
};
layerId = "C8A46E0E-B991-4CFC-ABD9-554F5B3B1198";
shapes = (
{
ref = A;
},
{
pos = (144,0);
ref = ringcomb_acutecomb.cap;
}
);
width = 600;
},
{
layerId = "56C8974D-A8FC-4FE2-AFFA-564C2D1D7F2D";
shapes = (
{
ref = A;
},
{
pos = (142,0);
ref = ringcomb_acutecomb.cap;
}
);
width = 600;
}
);
note = Aringacute;
unicode = 506;
},
{
color = 1;
glyphname = Atilde;
layers = (
{
background = {
shapes = (
{
closed = 1;
nodes = (
(36,0,l),
(130,170,l),
(492,170,l),
(539,0,l),
(598,0,l),
(411,686,l),
(361,686,l),
(-19,0,l)
);
},
{
closed = 1;
nodes = (
(371,612,l),
(375,612,l),
(479,219,l),
(157,219,l)
);
},
{
closed = 1;
nodes = (
(249,750,l),
(259,773,o),
(278,782,o),
(311,782,cs),
(365,782,o),
(409,750,o),
(473,750,cs),
(552,750,o),
(581,800,o),
(586,832,c),
(549,832,l),
(539,809,o),
(520,800,o),
(487,800,cs),
(433,800,o),
(389,832,o),
(325,832,cs),
(247,832,o),
(217,782,o),
(212,750,c)
);
}
);
};
layerId = "1E610136-9B4E-49B0-BDBC-BF9A1AAA9445";
shapes = (
{
ref = A;
},
{
ref = tildecomb.cap;
}
);
width = 600;
},
{
background = {
shapes = (
{
closed = 1;
nodes = (
(157,0,l),
(214,122,l),
(432,122,l),
(456,0,l),
(674,0,l),
(542,686,l),
(281,686,l),
(-44,0,l)
);
},
{
closed = 1;
nodes = (
(371,475,l),
(376,475,l),
(405,267,l),
(283,267,l)
);
},
{
closed = 1;
nodes = (
(268,750,l),
(278,773,o),
(299,790,o),
(324,790,c),
(389,784,o),
(429,750,o),
(491,750,cs),
(568,750,o),
(641,821,o),
(651,893,c),
(570,893,l),
(560,870,o),
(539,853,o),
(514,853,cs),
(461,853,o),
(411,893,o),
(347,893,cs),
(270,893,o),
(197,822,o),
(187,750,c)
);
}
);
};
layerId = "C8A46E0E-B991-4CFC-ABD9-554F5B3B1198";
shapes = (
{
ref = A;
},
{
ref = tildecomb.cap;
}
);
width = 600;
},
{
layerId = "56C8974D-A8FC-4FE2-AFFA-564C2D1D7F2D";
shapes = (
{
ref = A;
},
{
ref = tildecomb.cap;
}
);
width = 600;
}
);
note = Atilde;
unicode = 195;
},
{
color = 4;
glyphname = AE;
layers = (
{
anchors = (
{
name = bottom;
pos = (314,0);
},
{
name = top;
pos = (411,686);
}
);
background = {
shapes = (
{
closed = 1;
nodes = (
(43,0,l),
(137,170,l),
(491,170,l),
(538,0,l),
(887,0,l),
(878,48,l),
(582,48,l),
(506,326,l),
(826,326,l),
(826,374,l),
(493,374,l),
(421,638,l),
(865,638,l),
(877,686,l),
(362,686,l),
(-19,0,l)
);
},
{
closed = 1;
nodes = (
(372,607,l),
(375,608,l),
(478,219,l),
(164,219,l)
);
}
);
};
hints = (
{
horizontal = 1;
origin = (0,15);
target = (0,6);
type = Stem;
},
{
horizontal = 1;
origin = (1,3);
target = (1,2);
type = Stem;
},
{
horizontal = 1;
origin = (0,7);
target = (0,10);
type = Stem;
},
{
horizontal = 1;
origin = (0,14);
target = (0,1);
type = Stem;
}
);
layerId = "1E610136-9B4E-49B0-BDBC-BF9A1AAA9445";
shapes = (
{
closed = 1;
nodes = (
(22,0,l),
(362,638,l),
(366,638,l),
(276,0,l),
(548,0,l),
(544,48,l),
(335,48,l),
(374,326,l),
(534,326,l),
(541,374,l),
(381,374,l),
(418,638,l),
(617,638,l),
(636,686,l),
(335,686,l),
(-36,0,l)
);
},
{
closed = 1;
nodes = (
(325,170,l),
(332,219,l),
(100,219,l),
(93,170,l)
);
}
);
width = 600;
},
{
anchors = (
{
name = bottom;
pos = (314,0);
},
{
name = top;
pos = (411,686);
}
);
background = {
shapes = (
{
closed = 1;
nodes = (
(146,0,l),
(221,122,l),
(439,122,l),
(439,0,l),
(942,0,l),
(942,164,l),
(656,164,l),
(656,275,l),
(950,275,l),
(971,428,l),
(642,428,l),
(642,528,l),
(997,528,l),
(1039,686,l),
(368,686,l),
(-53,0,l)
);
},
{
closed = 1;
nodes = (
(428,475,l),
(433,475,l),
(433,267,l),
(311,267,l)
);
}
);
};
hints = (
{
horizontal = 1;
place = (0, 164);
place = (0, 164);
type = Stem;
},
{
horizontal = 1;
place = (275, 153);
place = (275, 153);
type = Stem;
},
{
horizontal = 1;
place = (528, 158);
place = (528, 158);
type = Stem;
},
{
horizontal = 1;
place = (122, 145);
place = (122, 145);
type = Stem;
}
);
layerId = "C8A46E0E-B991-4CFC-ABD9-554F5B3B1198";
shapes = (
{
closed = 1;
nodes = (
(161,0,l),
(294,525,l),
(303,525,l),
(229,0,l),
(564,0,l),
(567,164,l),
(428,164,l),
(444,275,l),
(572,275,l),
(593,428,l),
(465,428,l),
(479,528,l),
(618,528,l),
(661,686,l),
(187,686,l),
(-36,0,l)
);
},
{
closed = 1;
nodes = (
(343,122,l),
(364,267,l),
(142,267,l),
(121,122,l)
);
}
);
width = 600;
},
{
anchors = (
{
name = bottom;
pos = (314,0);
},
{
name = top;
pos = (411,686);
}
);
hints = (
{
horizontal = 1;
origin = (0,15);
target = (0,6);
type = Stem;
},
{
horizontal = 1;
origin = (1,3);
target = (1,2);
type = Stem;
},
{
horizontal = 1;
origin = (0,7);
target = (0,10);
type = Stem;
},
{
horizontal = 1;
origin = (0,14);
target = (0,1);
type = Stem;
}
);
layerId = "56C8974D-A8FC-4FE2-AFFA-564C2D1D7F2D";
shapes = (
{
closed = 1;
nodes = (
(84,0,l),
(332,588,l),
(338,588,l),
(255,0,l),
(555,0,l),
(554,100,l),
(376,100,l),
(405,303,l),
(551,303,l),
(564,398,l),
(418,398,l),
(445,589,l),
(617,589,l),
(647,686,l),
(269,686,l),
(-36,0,l)
);
},
{
closed = 1;
nodes = (
(333,149,l),
(346,240,l),
(119,240,l),
(105,149,l)
);
}
);
width = 600;
}
);
note = AE;
unicode = 198;
},
{
color = 1;
glyphname = AEacute;
layers = (
{
background = {
shapes = (
{
closed = 1;
nodes = (
(43,0,l),
(137,170,l),
(491,170,l),
(538,0,l),
(887,0,l),
(878,48,l),
(582,48,l),
(506,326,l),
(826,326,l),
(826,374,l),
(493,374,l),
(421,638,l),
(865,638,l),
(877,686,l),
(362,686,l),
(-19,0,l)
);
},
{
closed = 1;
nodes = (
(372,607,l),
(375,608,l),
(478,219,l),
(164,219,l)
);
},
{
closed = 1;
nodes = (
(488,750,l),
(619,892,l),
(619,895,l),
(554,895,l),
(438,750,l)
);
}
);
};
layerId = "1E610136-9B4E-49B0-BDBC-BF9A1AAA9445";
shapes = (
{
ref = AE;
},
{
pos = (104,0);
ref = acutecomb.cap;
}
);
width = 600;
},
{
background = {
shapes = (
{
closed = 1;
nodes = (
(146,0,l),
(221,122,l),
(439,122,l),
(439,0,l),
(942,0,l),
(942,164,l),
(656,164,l),
(656,275,l),
(950,275,l),
(971,428,l),
(642,428,l),
(642,528,l),
(997,528,l),
(1039,686,l),
(368,686,l),
(-53,0,l)
);
},
{
closed = 1;
nodes = (
(428,475,l),
(433,475,l),
(433,267,l),
(311,267,l)
);
},
{
closed = 1;
nodes = (
(591,751,l),
(737,893,l),
(735,896,l),
(584,896,l),
(473,751,l)
);
}
);
};
layerId = "C8A46E0E-B991-4CFC-ABD9-554F5B3B1198";
shapes = (
{
ref = AE;
},
{
pos = (85,0);
ref = acutecomb.cap;
}
);
width = 600;
},
{
layerId = "56C8974D-A8FC-4FE2-AFFA-564C2D1D7F2D";
shapes = (
{
ref = AE;
},
{
pos = (103,0);
ref = acutecomb.cap;
}
);
width = 600;
}
);
note = AEacute;
unicode = 508;
},
{
color = 4;
glyphname = B;
layers = (
{
background = {
shapes = (
{
closed = 1;
nodes = (
(314,0,ls),
(419,0,o),
(516,82,o),
(530,183,cs),
(549,317,o),
(452,348,o),
(417,353,c),
(418,359,l),
(472,372,o),
(547,421,o),
(562,523,cs),
(575,616,o),
(515,686,o),
(405,686,cs),
(151,686,l),
(54,0,l)
);
},
{
closed = 1;
nodes = (
(154,326,l),
(354,326,ls),
(432,326,o),
(487,264,o),
(476,186,cs),
(465,108,o),
(393,48,o),
(315,48,cs),
(115,48,l)
);
},
{
closed = 1;
nodes = (
(198,638,l),
(405,638,ls),
(485,638,o),
(515,586,o),
(505,511,cs),
(494,436,o),
(426,374,o),
(351,374,cs),
(161,374,l)
);
}
);
};
hints = (
{
horizontal = 1;
origin = (0,15);
target = (1,8);
type = Stem;
},
{
horizontal = 1;
origin = (1,0);
target = (2,8);
type = Stem;
},
{
horizontal = 1;
origin = (0,14);
target = (2,0);
type = Stem;
},
{
horizontal = 1;
origin = (1,0);
target = (0,6);
type = Stem;
},
{
origin = (1,4);
target = (0,3);
type = Stem;
}
);
layerId = "1E610136-9B4E-49B0-BDBC-BF9A1AAA9445";
shapes = (
{
closed = 1;
nodes = (
(314,0,ls),
(433,0,o),
(532,100,o),
(532,216,cs),
(532,322,o),
(449,348,o),
(417,353,c),
(418,359,l),
(473,372,o),
(562,423,o),
(562,540,cs),
(562,622,o),
(497,686,o),
(402,686,cs),
(151,686,l),
(54,0,l)
);
},
{
closed = 1;
nodes = (
(154,326,l),
(354,326,ls),
(425,326,o),
(477,274,o),
(477,206,cs),
(477,118,o),
(399,48,o),
(315,48,cs),
(115,48,l)
);
},
{
closed = 1;
nodes = (
(198,638,l),
(394,638,ls),
(465,638,o),
(505,598,o),
(505,533,cs),
(505,442,o),
(432,374,o),
(351,374,cs),
(161,374,l)
);
}
);
width = 600;
},
{
background = {
shapes = (
{
closed = 1;
nodes = (
(356,0,ls),
(474,0,o),
(556,73,o),
(572,183,cs),
(587,292,o),
(532,338,o),
(460,354,c),
(460,358,l),
(527,377,o),
(589,417,o),
(603,518,cs),
(617,619,o),
(559,686,o),
(447,686,cs),
(101,686,l),
(4,0,l)
);
},
{
closed = 1;
nodes = (
(233,277,l),
(333,277,ls),
(361,277,o),
(381,263,o),
(375,219,cs),
(371,188,o),
(354,159,o),
(316,159,cs),
(216,159,l)
);
},
{
closed = 1;
nodes = (
(270,540,l),
(358,540,ls),
(386,540,o),
(406,526,o),
(400,482,cs),
(394,443,o),
(375,423,o),
(342,423,cs),
(254,423,l)
);
}
);
};
hints = (
{
horizontal = 1;
origin = (0,15);
target = (1,8);
type = Stem;
},
{
horizontal = 1;
origin = (1,0);
target = (2,8);
type = Stem;
},
{
horizontal = 1;
origin = (0,14);
target = (2,0);
type = Stem;
},
{
origin = (1,4);
target = (0,3);
type = Stem;
}
);
layerId = "C8A46E0E-B991-4CFC-ABD9-554F5B3B1198";
shapes = (
{
closed = 1;
nodes = (
(356,0,ls),
(491,0,o),
(574,109,o),
(574,218,cs),
(574,302,o),
(524,339,o),
(460,354,c),
(460,358,l),
(527,377,o),
(604,424,o),
(604,540,cs),
(604,622,o),
(539,686,o),
(447,686,cs),
(101,686,l),
(4,0,l)
);
},
{
closed = 1;
nodes = (
(233,277,l),
(333,277,ls),
(358,277,o),
(376,259,o),
(376,224,cs),
(376,188,o),
(359,159,o),
(317,159,cs),
(217,159,l)
);
},
{
closed = 1;
nodes = (
(270,540,l),
(358,540,ls),
(383,540,o),
(401,522,o),
(401,487,cs),
(401,452,o),
(383,423,o),
(342,423,cs),
(254,423,l)
);
}
);
width = 600;
},
{
hints = (
{
horizontal = 1;
origin = (0,15);
target = (1,8);
type = Stem;
},
{
horizontal = 1;
origin = (1,0);
target = (2,8);
type = Stem;
},
{
horizontal = 1;
origin = (0,14);
target = (2,0);
type = Stem;
},
{
horizontal = 1;
origin = (1,0);
target = (0,6);
type = Stem;
},
{
origin = (1,4);
target = (0,3);
type = Stem;
}
);
layerId = "56C8974D-A8FC-4FE2-AFFA-564C2D1D7F2D";
shapes = (
{
closed = 1;
nodes = (
(333,0,ls),
(459,0,o),
(551,104,o),
(551,217,cs),
(551,313,o),
(482,344,o),
(436,353,c),
(437,359,l),
(497,374,o),
(581,423,o),
(581,540,cs),
(581,622,o),
(516,686,o),
(422,686,cs),
(129,686,l),
(32,0,l)
);
},
{
closed = 1;
nodes = (
(189,304,l),
(345,304,ls),
(395,304,o),
(432,267,o),
(432,214,cs),
(432,149,o),
(381,97,o),
(316,97,cs),
(160,97,l)
);
},
{
closed = 1;
nodes = (
(230,594,l),
(378,594,ls),
(429,594,o),
(459,564,o),
(459,513,cs),
(459,446,o),
(410,396,o),
(347,396,cs),
(202,396,l)
);
}
);
width = 600;
}
);
note = B;
unicode = 66;
},
{
color = 4;
glyphname = C;
layers = (
{
anchors = (
{
name = bottom;
pos = (264,0);
},
{
name = top;
pos = (361,686);
}
);
background = {
shapes = (
{
closed = 1;
nodes = (
(266,-10,ls),
(426,-10,o),
(520,78,o),
(544,251,c),
(491,251,l),
(470,101,o),
(404,38,o),
(269,38,cs),
(163,38,o),
(84,87,o),
(114,298,cs),
(127,388,ls),
(156,599,o),
(249,648,o),
(355,648,cs),
(490,648,o),
(538,585,o),
(517,434,c),
(570,434,l),
(595,608,o),
(525,696,o),
(363,696,cs),
(360,696,ls),
(231,696,o),
(107,635,o),
(71,376,cs),
(62,310,ls),
(25,51,o),
(127,-10,o),
(263,-10,cs)
);
}
);
};
hints = (
{
horizontal = 1;
origin = (0,39);
target = (0,7);
type = Stem;
},
{
horizontal = 1;
origin = (0,30);
target = (0,16);
type = Stem;
},
{
origin = (0,36);
target = (0,10);
type = Stem;
},
{
origin = (0,19);
target = (0,26);
type = Stem;
}
);
layerId = "1E610136-9B4E-49B0-BDBC-BF9A1AAA9445";
shapes = (
{
closed = 1;
nodes = (
(280,-10,ls),
(398,-10,o),
(517,51,o),
(544,251,c),
(491,251,l),
(469,81,o),
(377,38,o),
(276,38,cs),
(184,38,o),
(110,68,o),
(110,227,cs),
(110,254,o),
(111,284,o),
(123,368,cs),
(155,595,o),
(250,648,o),
(367,648,cs),
(449,648,o),
(522,615,o),
(522,486,cs),
(522,470,o),
(521,453,o),
(518,434,c),
(571,434,l),
(574,456,o),
(576,477,o),
(576,496,cs),
(576,651,o),
(482,696,o),
(378,696,cs),
(374,696,ls),
(227,696,o),
(104,631,o),
(68,356,cs),
(59,289,o),
(57,254,o),
(57,223,cs),
(57,29,o),
(151,-10,o),
(275,-10,cs)
);
}
);
width = 600;
},
{
anchors = (
{
name = bottom;
pos = (264,0);
},
{
name = top;
pos = (348,686);
}
);
background = {
anchors = (
{
name = bottom;
pos = (264,0);
},
{
name = top;
pos = (361,686);
}
);
shapes = (
{
closed = 1;
nodes = (
(281,-10,ls),
(425,-10,o),
(549,100,o),
(574,280,c),
(386,280,l),
(374,188,o),
(355,147,o),
(280,147,cs),
(236,147,o),
(207,177,o),
(215,232,cs),
(246,455,ls),
(254,510,o),
(291,540,o),
(335,540,cs),
(410,540,o),
(408,496,o),
(395,405,c),
(592,405,l),
(619,600,o),
(525,696,o),
(380,696,cs),
(344,696,ls),
(176,696,o),
(48,583,o),
(24,415,cs),
(4,270,ls),
(-20,102,o),
(77,-10,o),
(245,-10,cs)
);
}
);
};
hints = (
{
horizontal = 1;
origin = (0,39);
target = (0,7);
type = Stem;
},
{
horizontal = 1;
origin = (0,30);
target = (0,16);
type = Stem;
},
{
horizontal = 1;
origin = (0,30);
target = (0,22);
type = Stem;
},
{
origin = (0,36);
target = (0,10);
type = Stem;
},
{
origin = (0,19);
target = (0,26);
type = Stem;
}
);
layerId = "C8A46E0E-B991-4CFC-ABD9-554F5B3B1198";
shapes = (
{
closed = 1;
nodes = (
(274,-10,ls),
(436,-10,o),
(550,107,o),
(574,280,c),
(386,280,l),
(373,187,o),
(357,147,o),
(280,147,cs),
(239,147,o),
(214,172,o),
(214,215,cs),
(214,246,o),
(225,318,o),
(246,455,cs),
(254,510,o),
(291,540,o),
(335,540,cs),
(385,540,o),
(402,522,o),
(402,475,cs),
(402,456,o),
(399,433,o),
(395,405,c),
(592,405,l),
(595,424,o),
(596,441,o),
(596,460,cs),
(596,612,o),
(525,696,o),
(370,696,cs),
(343,696,ls),
(178,696,o),
(47,582,o),
(23,416,cs),
(3,279,o),
(2,258,o),
(2,212,cs),
(2,81,o),
(94,-10,o),
(242,-10,cs)
);
}
);
width = 600;
},
{
anchors = (
{
name = bottom;
pos = (264,0);
},
{
name = top;
pos = (361,686);
}
);
hints = (
{
horizontal = 1;
origin = (0,39);
target = (0,7);
type = Stem;
},
{
horizontal = 1;
origin = (0,30);
target = (0,16);
type = Stem;
},
{
origin = (0,36);
target = (0,10);
type = Stem;
},
{
origin = (0,19);
target = (0,26);
type = Stem;
}
);
layerId = "56C8974D-A8FC-4FE2-AFFA-564C2D1D7F2D";
shapes = (
{
closed = 1;
nodes = (
(277,-10,ls),
(415,-10,o),
(532,76,o),
(557,264,c),
(444,264,l),
(426,128,o),
(368,86,o),
(278,86,cs),
(208,86,o),
(156,114,o),
(156,222,cs),
(156,250,o),
(162,299,o),
(178,407,cs),
(199,557,o),
(268,600,o),
(353,600,cs),
(421,600,o),
(469,574,o),
(469,481,cs),
(469,464,o),
(467,444,o),
(463,421,c),
(580,421,l),
(583,442,o),
(585,461,o),
(585,480,cs),
(585,634,o),
(501,696,o),
(374,696,cs),
(360,696,ls),
(205,696,o),
(79,609,o),
(48,383,cs),
(34,285,o),
(33,256,o),
(33,218,cs),
(33,52,o),
(126,-10,o),
(260,-10,cs)
);
}
);
width = 600;
}
);
note = C;
unicode = 67;
},
{
color = 1;
glyphname = Ccedilla;
layers = (
{
background = {
shapes = (
{
closed = 1;
nodes = (
(304,-10,ls),
(432,-10,o),
(561,51,o),
(590,251,c),
(537,251,l),
(513,81,o),
(411,38,o),
(306,38,cs),
(206,38,o),
(134,76,o),
(134,227,cs),
(134,254,o),
(135,284,o),
(147,368,cs),
(179,595,o),
(274,648,o),
(391,648,cs),
(484,648,o),
(566,615,o),
(566,486,cs),
(566,470,o),
(565,453,o),
(562,434,c),
(615,434,l),
(618,456,o),
(620,477,o),
(620,496,cs),
(620,651,o),
(517,696,o),
(402,696,cs),
(398,696,ls),
(251,696,o),
(128,631,o),
(92,356,cs),
(83,289,o),
(81,254,o),
(81,223,cs),
(81,37,o),
(173,-10,o),
(299,-10,cs)
);
},
{
closed = 1;
nodes = (
(306,-207,o),
(389,-186,o),
(389,-99,cs),
(389,-44,o),
(344,-27,o),
(295,-27,cs),
(270,-27,l),
(265,-61,l),
(287,-61,ls),
(312,-61,o),
(338,-74,o),
(339,-100,cs),
(341,-140,o),
(304,-161,o),
(255,-161,cs),
(222,-161,o),
(200,-155,o),
(188,-148,c),
(181,-194,l),
(204,-203,o),
(232,-207,o),
(257,-207,cs)
);
}
);
};
layerId = "1E610136-9B4E-49B0-BDBC-BF9A1AAA9445";
shapes = (
{
ref = C;
},
{
ref = cedillacomb;
}
);
width = 600;
},
{
background = {
shapes = (
{
closed = 1;
nodes = (
(335,-10,ls),
(515,-10,o),
(631,100,o),
(658,280,c),
(470,280,l),
(454,182,o),
(434,147,o),
(341,147,cs),
(285,147,o),
(250,184,o),
(250,233,cs),
(250,244,o),
(259,306,o),
(278,440,cs),
(286,496,o),
(324,540,o),
(392,540,cs),
(450,540,o),
(484,509,o),
(484,457,cs),
(484,445,o),
(483,433,o),
(478,405,c),
(675,405,l),
(678,424,o),
(679,441,o),
(679,460,cs),
(679,616,o),
(573,696,o),
(426,696,cs),
(398,696,ls),
(217,696,o),
(70,576,o),
(46,396,cs),
(30,279,o),
(27,258,o),
(27,242,cs),
(27,81,o),
(146,-10,o),
(307,-10,cs)
);
},
{
closed = 1;
nodes = (
(343,-212,o),
(427,-194,o),
(427,-107,cs),
(427,-47,o),
(372,-32,o),
(317,-32,cs),
(296,-32,l),
(287,-91,l),
(305,-91,ls),
(330,-91,o),
(340,-100,o),
(340,-116,cs),
(340,-144,o),
(321,-154,o),
(295,-154,cs),
(252,-154,o),
(228,-136,o),
(214,-122,c),
(174,-176,l),
(200,-200,o),
(248,-212,o),
(295,-212,cs)
);
}
);
};
layerId = "C8A46E0E-B991-4CFC-ABD9-554F5B3B1198";
shapes = (
{
ref = C;
},
{
ref = cedillacomb;
}
);
width = 600;
},
{
layerId = "56C8974D-A8FC-4FE2-AFFA-564C2D1D7F2D";
shapes = (
{
ref = C;
},
{
ref = cedillacomb;
}
);
width = 600;
}
);
note = Ccedilla;
unicode = 199;
},
{
color = 4;
glyphname = D;
layers = (
{
anchors = (
{
name = bottom;
pos = (264,0);
},
{
name = center;
pos = (187,343);
},
{
name = top;
pos = (361,686);
}
);
background = {
shapes = (
{
closed = 1;
nodes = (
(274,0,ls),
(421,0,o),
(550,70,o),
(584,311,cs),
(593,376,ls),
(627,619,o),
(518,686,o),
(371,686,cs),
(151,686,l),
(54,0,l)
);
},
{
closed = 1;
nodes = (
(198,638,l),
(364,638,ls),
(481,638,o),
(568,581,o),
(540,385,cs),
(529,302,ls),
(500,100,o),
(398,48,o),
(281,48,cs),
(115,48,l)
);
}
);
};
hints = (
{
horizontal = 1;
origin = (1,11);
target = (0,11);
type = Stem;
},
{
horizontal = 1;
origin = (0,10);
target = (1,0);
type = Stem;
},
{
origin = (1,4);
target = (0,6);
type = Stem;
}
);
layerId = "1E610136-9B4E-49B0-BDBC-BF9A1AAA9445";
shapes = (
{
closed = 1;
nodes = (
(274,0,ls),
(428,0,o),
(554,74,o),
(587,331,cs),
(595,391,o),
(597,421,o),
(597,450,cs),
(597,632,o),
(498,686,o),
(371,686,cs),
(151,686,l),
(54,0,l)
);
},
{
closed = 1;
nodes = (
(198,638,l),
(364,638,ls),
(471,638,o),
(544,592,o),
(544,441,cs),
(544,418,o),
(542,393,o),
(532,322,cs),
(501,104,o),
(398,48,o),
(281,48,cs),
(115,48,l)
);
}
);
width = 600;
},
{
anchors = (
{
name = bottom;
pos = (264,0);
},
{
name = center;
pos = (188,343);
},
{
name = top;
pos = (361,686);
}
);
background = {
shapes = (
{
closed = 1;
nodes = (
(282,0,ls),
(444,0,o),
(576,97,o),
(594,230,cs),
(626,455,ls),
(645,589,o),
(541,686,o),
(379,686,cs),
(101,686,l),
(4,0,l)
);
},
{
closed = 1;
nodes = (
(291,530,l),
(337,530,ls),
(395,530,o),
(419,510,o),
(412,465,cs),
(378,222,ls),
(372,177,o),
(342,159,o),
(284,159,cs),
(238,159,l)
);
}
);
};
hints = (
{
horizontal = 1;
origin = (0,11);
target = (1,11);
type = Stem;
},
{
horizontal = 1;
origin = (0,10);
target = (1,0);
type = Stem;
},
{
origin = (1,4);
target = (0,6);
type = Stem;
}
);
layerId = "C8A46E0E-B991-4CFC-ABD9-554F5B3B1198";
shapes = (
{
closed = 1;
nodes = (
(281,0,ls),
(447,0,o),
(572,92,o),
(594,230,cs),
(610,337,o),
(628,458,o),
(628,483,cs),
(628,605,o),
(528,686,o),
(378,686,cs),
(101,686,l),
(4,0,l)
);
},
{
closed = 1;
nodes = (
(291,530,l),
(337,530,ls),
(395,530,o),
(413,510,o),
(413,480,cs),
(413,453,o),
(391,306,o),
(378,223,cs),
(371,176,o),
(342,159,o),
(284,159,cs),
(238,159,l)
);
}
);
width = 600;
},
{
anchors = (
{
name = bottom;
pos = (264,0);
},
{
name = center;
pos = (187,343);
},
{
name = top;
pos = (361,686);
}
);
hints = (
{
horizontal = 1;
origin = (1,11);
target = (0,11);
type = Stem;
},
{
horizontal = 1;
origin = (0,10);
target = (1,0);
type = Stem;
},
{
origin = (1,4);
target = (0,6);
type = Stem;
}
);
layerId = "56C8974D-A8FC-4FE2-AFFA-564C2D1D7F2D";
shapes = (
{
closed = 1;
nodes = (
(277,0,ls),
(436,0,o),
(562,82,o),
(590,286,cs),
(602,367,o),
(611,437,o),
(611,465,cs),
(611,620,o),
(511,686,o),
(374,686,cs),
(129,686,l),
(32,0,l)
);
},
{
closed = 1;
nodes = (
(239,590,l),
(352,590,ls),
(437,590,o),
(486,556,o),
(486,458,cs),
(486,434,o),
(475,354,o),
(464,278,cs),
(443,136,o),
(373,97,o),
(282,97,cs),
(170,97,l)
);
}
);
width = 600;
}
);
note = D;
unicode = 68;
},
{
color = 4;
glyphname = DZcaron;
layers = (
{
hints = (
{
horizontal = 1;
origin = (1,11);
target = (0,11);
type = Stem;
},
{
horizontal = 1;
origin = (0,10);
target = (1,0);
type = Stem;
},
{
horizontal = 1;
origin = (3,5);
target = (3,6);
type = Stem;
},
{
place = (296, 54);
place = (296, 54);
type = Stem;
}
);
layerId = "1E610136-9B4E-49B0-BDBC-BF9A1AAA9445";
shapes = (
{
closed = 1;
nodes = (
(108,0,ls),
(228,0,o),
(295,82,o),
(320,261,cs),
(345,438,o),
(350,467,o),
(350,514,cs),
(350,631,o),
(303,686,o),
(205,686,cs),
(106,686,l),
(9,0,l)
);
},
{
closed = 1;
nodes = (
(153,638,l),
(198,638,ls),
(264,638,o),
(296,597,o),
(296,510,cs),
(296,477,o),
(291,442,o),
(265,252,cs),
(245,112,o),
(198,48,o),
(115,48,cs),
(70,48,l)
);
},
{
closed = 1;
nodes = (
(519,0,l),
(526,48,l),
(333,48,l),
(607,662,l),
(611,686,l),
(377,686,l),
(370,638,l),
(541,638,l),
(268,25,l),
(264,0,l)
);
},
{
closed = 1;
nodes = (
(537,760,l),
(635,885,l),
(586,885,l),
(516,808,l),
(466,885,l),
(417,885,l),
(481,760,l)
);
}
);
width = 600;
},
{
background = {
shapes = (
{
closed = 1;
nodes = (
(325,0,ls),
(520,0,o),
(642,134,o),
(667,300,cs),
(680,385,o),
(683,404,o),
(683,428,cs),
(683,574,o),
(574,686,o),
(422,686,cs),
(113,686,l),
(16,0,l)
);
},
{
closed = 1;
nodes = (
(303,530,l),
(380,530,ls),
(431,530,o),
(467,492,o),
(467,443,cs),
(467,412,o),
(453,320,o),
(442,259,cs),
(432,203,o),
(396,159,o),
(328,159,cs),
(251,159,l)
);
},
{
closed = 1;
nodes = (
(1240,0,l),
(1263,161,l),
(991,161,l),
(1320,625,l),
(1329,686,l),
(790,686,l),
(767,526,l),
(1012,526,l),
(679,61,l),
(670,0,l)
);
},
{
closed = 1;
nodes = (
(1132,761,l),
(1289,886,l),
(1161,886,l),
(1079,829,l),
(1013,886,l),
(883,886,l),
(1004,761,l)
);
}
);
};
hints = (
{
horizontal = 1;
origin = (0,11);
target = (2,2);
type = Stem;
},
{
horizontal = 1;
origin = (0,10);
target = (2,6);
type = Stem;
},
{
horizontal = 1;
origin = (3,6);
target = (3,5);
type = Stem;
},
{
horizontal = 1;
origin = (0,11);
target = (1,11);
type = Stem;
},
{
horizontal = 1;
origin = (0,10);
target = (1,0);
type = Stem;
}
);
layerId = "C8A46E0E-B991-4CFC-ABD9-554F5B3B1198";
shapes = (
{
closed = 1;
nodes = (
(120,0,ls),
(261,0,o),
(332,97,o),
(350,230,cs),
(381,451,o),
(386,479,o),
(386,511,cs),
(386,615,o),
(337,686,o),
(217,686,cs),
(61,686,l),
(-36,0,l)
);
},
{
closed = 1;
nodes = (
(189,530,l),
(205,530,ls),
(225,530,o),
(234,521,o),
(234,500,cs),
(234,494,o),
(234,495,o),
(193,202,cs),
(189,171,o),
(176,159,o),
(152,159,cs),
(136,159,l)
);
},
{
closed = 1;
nodes = (
(564,0,l),
(587,161,l),
(479,161,l),
(637,576,l),
(653,686,l),
(417,686,l),
(394,526,l),
(474,526,l),
(312,110,l),
(296,0,l)
);
},
{
closed = 1;
nodes = (
(624,761,l),
(681,886,l),
(590,886,l),
(552,819,l),
(537,886,l),
(445,886,l),
(466,761,l)
);
}
);
width = 600;
},
{
hints = (
{
horizontal = 1;
origin = (1,11);
target = (0,11);
type = Stem;
},
{
horizontal = 1;
origin = (0,10);
target = (1,0);
type = Stem;
},
{
horizontal = 1;
origin = (3,5);
target = (3,6);
type = Stem;
},
{
place = (164, 2000);
place = (164, 2000);
type = Stem;
}
);
layerId = "56C8974D-A8FC-4FE2-AFFA-564C2D1D7F2D";
shapes = (
{
closed = 1;
nodes = (
(113,0,ls),
(243,0,o),
(311,89,o),
(333,247,cs),
(361,444,o),
(366,472,o),
(366,513,cs),
(366,624,o),
(318,686,o),
(210,686,cs),
(86,686,l),
(-11,0,l)
);
},
{
closed = 1;
nodes = (
(169,590,l),
(201,590,ls),
(247,590,o),
(268,563,o),
(268,506,cs),
(268,485,o),
(266,466,o),
(233,230,cs),
(220,138,o),
(188,97,o),
(131,97,cs),
(99,97,l)
);
},
{
closed = 1;
nodes = (
(539,0,l),
(553,98,l),
(398,98,l),
(620,624,l),
(630,686,l),
(395,686,l),
(381,588,l),
(511,588,l),
(288,63,l),
(278,0,l)
);
},
{
closed = 1;
nodes = (
(576,760,l),
(655,885,l),
(588,885,l),
(532,813,l),
(498,885,l),
(429,885,l),
(474,760,l)
);
}
);
width = 600;
}
);
note = uni01C4;
unicode = 452;
},
{
color = 3;
glyphname = Eth;
layers = (
{
anchors = (
{
name = bottom;
pos = (264,0);
},
{
name = center;
pos = (187,343);
},
{
name = top;
pos = (361,686);
}
);
background = {
shapes = (
{
closed = 1;
nodes = (
(291,0,ls),
(445,0,o),
(571,74,o),
(604,331,cs),
(612,391,o),
(614,421,o),
(614,450,cs),
(614,632,o),
(515,686,o),
(388,686,cs),
(168,686,l),
(123,369,l),
(46,369,l),
(40,327,l),
(117,327,l),
(71,0,l)
);
},
{
closed = 1;
nodes = (
(171,327,l),
(330,327,l),
(336,369,l),
(177,369,l),
(215,638,l),
(381,638,ls),
(488,638,o),
(561,592,o),
(561,441,cs),
(561,418,o),
(559,393,o),
(549,322,cs),
(518,104,o),
(415,48,o),
(298,48,cs),
(132,48,l)
);
}
);
};
hints = (
{
horizontal = 1;
origin = (1,3);
target = (1,2);
type = Stem;
},
{
origin = (1,3);
target = (1,0);
type = Stem;
},
{
horizontal = 1;
origin = (2,11);
target = (1,11);
type = Stem;
},
{
horizontal = 1;
origin = (1,10);
target = (2,0);
type = Stem;
},
{
origin = (2,4);
target = (1,6);
type = Stem;
}
);
layerId = "1E610136-9B4E-49B0-BDBC-BF9A1AAA9445";
shapes = (
{
closed = 1;
nodes = (
(359,320,l),
(365,365,l),
(15,365,l),
(9,320,l)
);
},
{
closed = 1;
nodes = (
(274,0,ls),
(428,0,o),
(554,74,o),
(587,331,cs),
(595,391,o),
(597,421,o),
(597,450,cs),
(597,632,o),
(498,686,o),
(371,686,cs),
(151,686,l),
(54,0,l)
);
},
{
closed = 1;
nodes = (
(198,638,l),
(364,638,ls),
(471,638,o),
(544,592,o),
(544,441,cs),
(544,418,o),
(542,393,o),
(532,322,cs),
(501,104,o),
(398,48,o),
(281,48,cs),
(115,48,l)
);
}
);
width = 600;
},
{
anchors = (
{
name = bottom;
pos = (264,0);
},
{
name = center;
pos = (188,343);
},
{
name = top;
pos = (361,686);
}
);
background = {
shapes = (
{
closed = 1;
nodes = (
(325,0,ls),
(520,0,o),
(642,134,o),
(667,300,cs),
(680,385,o),
(683,404,o),
(683,428,cs),
(683,574,o),
(574,686,o),
(422,686,cs),
(113,686,l),
(74,411,l),
(3,411,l),
(-15,285,l),
(56,285,l),
(16,0,l)
);
},
{
closed = 1;
nodes = (
(269,285,l),
(399,285,l),
(417,411,l),
(286,411,l),
(303,530,l),
(380,530,ls),
(431,530,o),
(467,492,o),
(467,443,cs),
(467,412,o),
(453,320,o),
(442,259,cs),
(432,203,o),
(396,159,o),
(328,159,cs),
(251,159,l)
);
}
);
};
hints = (
{
horizontal = 1;
origin = (1,3);
target = (1,2);
type = Stem;
},
{
origin = (1,3);
target = (1,0);
type = Stem;
},
{
horizontal = 1;
origin = (1,11);
target = (2,11);
type = Stem;
},
{
horizontal = 1;
origin = (1,10);
target = (2,0);
type = Stem;
},
{
origin = (2,4);
target = (1,6);
type = Stem;
}
);
layerId = "C8A46E0E-B991-4CFC-ABD9-554F5B3B1198";
shapes = (
{
closed = 1;
nodes = (
(339,278,l),
(357,408,l),
(-23,408,l),
(-41,278,l)
);
},
{
closed = 1;
nodes = (
(281,0,ls),
(447,0,o),
(572,92,o),
(594,230,cs),
(610,337,o),
(628,458,o),
(628,483,cs),
(628,605,o),
(528,686,o),
(378,686,cs),
(101,686,l),
(4,0,l)
);
},
{
closed = 1;
nodes = (
(291,530,l),
(337,530,ls),
(395,530,o),
(413,510,o),
(413,480,cs),
(413,453,o),
(391,306,o),
(378,223,cs),
(371,176,o),
(342,159,o),
(284,159,cs),
(238,159,l)
);
}
);
width = 600;
},
{
anchors = (
{
name = bottom;
pos = (264,0);
},
{
name = center;
pos = (187,343);
},
{
name = top;
pos = (361,686);
}
);
hints = (
{
horizontal = 1;
origin = (1,3);
target = (1,2);
type = Stem;
},
{
origin = (1,3);
target = (1,0);
type = Stem;
},
{
horizontal = 1;
origin = (2,11);
target = (1,11);
type = Stem;
},
{
horizontal = 1;
origin = (1,10);
target = (2,0);
type = Stem;
},
{
origin = (2,4);
target = (1,6);
type = Stem;
}
);
layerId = "56C8974D-A8FC-4FE2-AFFA-564C2D1D7F2D";
shapes = (
{
closed = 1;
nodes = (
(376,302,l),
(388,384,l),
(-2,384,l),
(-14,302,l)
);
},
{
closed = 1;
nodes = (
(277,0,ls),
(436,0,o),
(562,82,o),
(590,286,cs),
(602,367,o),
(611,437,o),
(611,465,cs),
(611,620,o),
(511,686,o),
(374,686,cs),
(129,686,l),
(32,0,l)
);
},
{
closed = 1;
nodes = (
(239,590,l),
(352,590,ls),
(437,590,o),
(486,556,o),
(486,458,cs),
(486,434,o),
(475,354,o),
(464,278,cs),
(443,136,o),
(373,97,o),
(282,97,cs),
(170,97,l)
);
}
);
width = 600;
}
);
note = Eth;
unicode = 208;
},
{
color = 1;
glyphname = Dcroat;
layers = (
{
anchors = (
{
name = bottom;
pos = (264,0);
},
{
name = center;
pos = (187,343);
},
{
name = top;
pos = (361,686);
}
);
hints = (
{
horizontal = 1;
origin = (1,3);
target = (1,2);
type = Stem;
},
{
origin = (1,3);
target = (1,0);
type = Stem;
},
{
horizontal = 1;
origin = (2,11);
target = (1,11);
type = Stem;
},
{
horizontal = 1;
origin = (1,10);
target = (2,0);
type = Stem;
},
{
origin = (2,4);
target = (1,6);
type = Stem;
}
);
layerId = "1E610136-9B4E-49B0-BDBC-BF9A1AAA9445";
shapes = (
{
closed = 1;
nodes = (
(359,320,l),
(365,365,l),
(15,365,l),
(9,320,l)
);
},
{
closed = 1;
nodes = (
(274,0,ls),
(428,0,o),
(554,74,o),
(587,331,cs),
(595,391,o),
(597,421,o),
(597,450,cs),
(597,632,o),
(498,686,o),
(371,686,cs),
(151,686,l),
(54,0,l)
);
},
{
closed = 1;
nodes = (
(198,638,l),
(364,638,ls),
(471,638,o),
(544,592,o),
(544,441,cs),
(544,418,o),
(542,393,o),
(532,322,cs),
(501,104,o),
(398,48,o),
(281,48,cs),
(115,48,l)
);
}
);
width = 600;
},
{
anchors = (
{
name = bottom;
pos = (264,0);
},
{
name = center;
pos = (188,343);
},
{
name = top;
pos = (361,686);
}
);
hints = (
{
horizontal = 1;
origin = (1,3);
target = (1,2);
type = Stem;
},
{
origin = (1,3);
target = (1,0);
type = Stem;
},
{
horizontal = 1;
origin = (1,11);
target = (2,11);
type = Stem;
},
{
horizontal = 1;
origin = (1,10);
target = (2,0);
type = Stem;
},
{
origin = (2,4);
target = (1,6);
type = Stem;
}
);
layerId = "C8A46E0E-B991-4CFC-ABD9-554F5B3B1198";
shapes = (
{
closed = 1;
nodes = (
(339,278,l),
(357,408,l),
(-23,408,l),
(-41,278,l)
);
},
{
closed = 1;
nodes = (
(281,0,ls),
(447,0,o),
(572,92,o),
(594,230,cs),
(610,337,o),
(628,458,o),
(628,483,cs),
(628,605,o),
(528,686,o),
(378,686,cs),
(101,686,l),
(4,0,l)
);
},
{
closed = 1;
nodes = (
(291,530,l),
(337,530,ls),
(395,530,o),
(413,510,o),
(413,480,cs),
(413,453,o),
(391,306,o),
(378,223,cs),
(371,176,o),
(342,159,o),
(284,159,cs),
(238,159,l)
);
}
);
width = 600;
},
{
anchors = (
{
name = bottom;
pos = (264,0);
},
{
name = center;
pos = (187,343);
},
{
name = top;
pos = (361,686);
}
);
hints = (
{
horizontal = 1;
origin = (1,3);
target = (1,2);
type = Stem;
},
{
origin = (1,3);
target = (1,0);
type = Stem;
},
{
horizontal = 1;
origin = (2,11);
target = (1,11);
type = Stem;
},
{
horizontal = 1;
origin = (1,10);
target = (2,0);
type = Stem;
},
{
origin = (2,4);
target = (1,6);
type = Stem;
}
);
layerId = "56C8974D-A8FC-4FE2-AFFA-564C2D1D7F2D";
shapes = (
{
closed = 1;
nodes = (
(376,302,l),
(388,384,l),
(-2,384,l),
(-14,302,l)
);
},
{
closed = 1;
nodes = (
(277,0,ls),
(436,0,o),
(562,82,o),
(590,286,cs),
(602,367,o),
(611,437,o),
(611,465,cs),
(611,620,o),
(511,686,o),
(374,686,cs),
(129,686,l),
(32,0,l)
);
},
{
closed = 1;
nodes = (
(239,590,l),
(352,590,ls),
(437,590,o),
(486,556,o),
(486,458,cs),
(486,434,o),
(475,354,o),
(464,278,cs),
(443,136,o),
(373,97,o),
(282,97,cs),
(170,97,l)
);
}
);
width = 600;
}
);
note = Dcroat;
unicode = 272;
},
{
color = 4;
glyphname = Dzcaron;
layers = (
{
background = {
shapes = (
{
closed = 1;
nodes = (
(108,0,ls),
(228,0,o),
(295,82,o),
(320,261,cs),
(343,426,ls),
(368,604,o),
(325,686,o),
(205,686,cs),
(106,686,l),
(9,0,l)
);
},
{
closed = 1;
nodes = (
(153,638,l),
(198,638,ls),
(281,638,o),
(310,574,o),
(290,435,cs),
(265,252,ls),
(245,112,o),
(198,48,o),
(115,48,cs),
(70,48,l)
);
}
);
};
hints = (
{
horizontal = 1;
origin = (0,9);
target = (0,2);
type = Stem;
},
{
horizontal = 1;
origin = (0,5);
target = (0,6);
type = Stem;
},
{
horizontal = 1;
origin = (1,5);
target = (1,6);
type = Stem;
},
{
horizontal = 1;
origin = (1,5);
target = (1,3);
type = Stem;
},
{
horizontal = 1;
origin = (0,9);
target = (0,2);
type = Stem;
},
{
place = (296, 54);
place = (296, 54);
type = Stem;
}
);
layerId = "1E610136-9B4E-49B0-BDBC-BF9A1AAA9445";
shapes = (
{
closed = 1;
nodes = (
(532,0,l),
(539,46,l),
(363,46,l),
(593,487,l),
(596,511,l),
(381,511,l),
(374,465,l),
(524,465,l),
(295,24,l),
(292,0,l)
);
},
{
closed = 1;
nodes = (
(532,575,l),
(642,720,l),
(587,720,l),
(505,623,l),
(450,720,l),
(395,720,l),
(464,575,l)
);
},
{
closed = 1;
nodes = (
(108,0,ls),
(228,0,o),
(295,82,o),
(320,261,cs),
(345,438,o),
(350,467,o),
(350,514,cs),
(350,631,o),
(303,686,o),
(205,686,cs),
(106,686,l),
(9,0,l)
);
},
{
closed = 1;
nodes = (
(153,638,l),
(198,638,ls),
(264,638,o),
(296,597,o),
(296,510,cs),
(296,477,o),
(291,442,o),
(265,252,cs),
(245,112,o),
(198,48,o),
(115,48,cs),
(70,48,l)
);
}
);
width = 600;
},
{
background = {
shapes = (
{
closed = 1;
nodes = (
(120,0,ls),
(261,0,o),
(332,97,o),
(350,230,cs),
(382,455,ls),
(401,589,o),
(358,686,o),
(217,686,cs),
(61,686,l),
(-36,0,l)
);
},
{
closed = 1;
nodes = (
(189,530,l),
(205,530,ls),
(229,530,o),
(238,516,o),
(233,485,cs),
(193,202,ls),
(189,171,o),
(176,159,o),
(152,159,cs),
(136,159,l)
);
}
);
};
hints = (
{
horizontal = 1;
origin = (0,9);
target = (0,2);
type = Stem;
},
{
horizontal = 1;
origin = (0,5);
target = (0,6);
type = Stem;
},
{
horizontal = 1;
origin = (1,5);
target = (1,6);
type = Stem;
},
{
horizontal = 1;
origin = (1,5);
target = (0,5);
type = Stem;
},
{
horizontal = 1;
origin = (0,9);
target = (0,2);
type = Stem;
},
{
place = (233, 153);
place = (233, 153);
type = Stem;
}
);
layerId = "C8A46E0E-B991-4CFC-ABD9-554F5B3B1198";
shapes = (
{
closed = 1;
nodes = (
(549,0,l),
(567,124,l),
(478,124,l),
(610,431,l),
(621,511,l),
(403,511,l),
(385,387,l),
(447,387,l),
(317,83,l),
(305,0,l)
);
},
{
closed = 1;
nodes = (
(583,575,l),
(650,720,l),
(570,720,l),
(521,643,l),
(494,720,l),
(414,720,l),
(435,575,l)
);
},
{
closed = 1;
nodes = (
(120,0,ls),
(261,0,o),
(332,97,o),
(350,230,cs),
(381,451,o),
(386,479,o),
(386,511,cs),
(386,615,o),
(337,686,o),
(217,686,cs),
(61,686,l),
(-36,0,l)
);
},
{
closed = 1;
nodes = (
(189,530,l),
(205,530,ls),
(225,530,o),
(234,521,o),
(234,500,cs),
(234,494,o),
(234,495,o),
(193,202,cs),
(189,171,o),
(176,159,o),
(152,159,cs),
(136,159,l)
);
}
);
width = 600;
},
{
hints = (
{
horizontal = 1;
origin = (0,9);
target = (0,2);
type = Stem;
},
{
horizontal = 1;
origin = (0,5);
target = (0,6);
type = Stem;
},
{
horizontal = 1;
origin = (1,5);
target = (1,6);
type = Stem;
},
{
horizontal = 1;
origin = (1,5);
target = (1,3);
type = Stem;
},
{
horizontal = 1;
origin = (0,9);
target = (0,2);
type = Stem;
},
{
place = (268, 98);
place = (268, 98);
type = Stem;
}
);
layerId = "56C8974D-A8FC-4FE2-AFFA-564C2D1D7F2D";
shapes = (
{
closed = 1;
nodes = (
(540,0,l),
(551,81,l),
(414,81,l),
(601,462,l),
(607,511,l),
(391,511,l),
(379,430,l),
(490,430,l),
(305,50,l),
(298,0,l)
);
},
{
closed = 1;
nodes = (
(555,575,l),
(646,720,l),
(579,720,l),
(512,632,l),
(470,720,l),
(403,720,l),
(451,575,l)
);
},
{
closed = 1;
nodes = (
(113,0,ls),
(243,0,o),
(311,89,o),
(333,247,cs),
(361,444,o),
(366,472,o),
(366,513,cs),
(366,624,o),
(318,686,o),
(210,686,cs),
(86,686,l),
(-11,0,l)
);
},
{
closed = 1;
nodes = (
(169,590,l),
(201,590,ls),
(247,590,o),
(268,563,o),
(268,506,cs),
(268,485,o),
(266,466,o),
(233,230,cs),
(220,138,o),
(188,97,o),
(131,97,cs),
(99,97,l)
);
}
);
width = 600;
}
);
note = uni01C5;
unicode = 453;
},
{
color = 4;
glyphname = E;
layers = (
{
anchors = (
{
name = bottom;
pos = (284,0);
},
{
name = ogonek;
pos = (436,0);
},
{
name = top;
pos = (371,686);
},
{
name = topleft;
pos = (161,686);
}
);
background = {
shapes = (
{
closed = 1;
nodes = (
(501,0,l),
(501,48,l),
(132,48,l),
(171,326,l),
(490,326,l),
(497,374,l),
(178,374,l),
(215,638,l),
(579,638,l),
(592,686,l),
(168,686,l),
(71,0,l)
);
}
);
};
hints = (
{
horizontal = 1;
origin = (0,11);
target = (0,2);
type = Stem;
},
{
horizontal = 1;
origin = (0,3);
target = (0,6);
type = Stem;
},
{
horizontal = 1;
origin = (0,10);
target = (0,7);
type = Stem;
}
);
layerId = "1E610136-9B4E-49B0-BDBC-BF9A1AAA9445";
shapes = (
{
closed = 1;
nodes = (
(498,0,l),
(494,48,l),
(125,48,l),
(164,326,l),
(483,326,l),
(490,374,l),
(171,374,l),
(208,638,l),
(568,638,l),
(585,686,l),
(161,686,l),
(64,0,l)
);
}
);
width = 600;
},
{
anchors = (
{
name = bottom;
pos = (279,0);
},
{
name = ogonek;
pos = (419,0);
},
{
name = top;
pos = (361,686);
},
{
name = topleft;
pos = (121,686);
}
);
background = {
shapes = (
{
closed = 1;
nodes = (
(531,0,l),
(531,164,l),
(245,164,l),
(261,275,l),
(539,275,l),
(560,428,l),
(282,428,l),
(297,528,l),
(586,528,l),
(628,686,l),
(113,686,l),
(16,0,l)
);
}
);
};
hints = (
{
horizontal = 1;
origin = (0,11);
target = (0,2);
type = Stem;
},
{
horizontal = 1;
origin = (0,3);
target = (0,6);
type = Stem;
},
{
horizontal = 1;
origin = (0,10);
target = (0,7);
type = Stem;
}
);
layerId = "C8A46E0E-B991-4CFC-ABD9-554F5B3B1198";
shapes = (
{
closed = 1;
nodes = (
(519,0,l),
(522,164,l),
(253,164,l),
(269,275,l),
(527,275,l),
(548,428,l),
(290,428,l),
(304,528,l),
(573,528,l),
(616,686,l),
(121,686,l),
(24,0,l)
);
}
);
width = 600;
},
{
anchors = (
{
name = bottom;
pos = (282,0);
},
{
name = ogonek;
pos = (422,0);
},
{
name = top;
pos = (367,686);
},
{
name = topleft;
pos = (143,686);
}
);
hints = (
{
horizontal = 1;
origin = (0,11);
target = (0,2);
type = Stem;
},
{
horizontal = 1;
origin = (0,3);
target = (0,6);
type = Stem;
},
{
horizontal = 1;
origin = (0,10);
target = (0,7);
type = Stem;
}
);
layerId = "56C8974D-A8FC-4FE2-AFFA-564C2D1D7F2D";
shapes = (
{
closed = 1;
nodes = (
(507,0,l),
(506,100,l),
(182,100,l),
(211,303,l),
(503,303,l),
(516,398,l),
(224,398,l),
(251,589,l),
(570,589,l),
(599,686,l),
(143,686,l),
(46,0,l)
);
}
);
width = 600;
}
);
note = E;
unicode = 69;
},
{
color = 1;
glyphname = Eacute;
layers = (
{
background = {
shapes = (
{
closed = 1;
nodes = (
(501,0,l),
(501,48,l),
(132,48,l),
(171,326,l),
(490,326,l),
(497,374,l),
(178,374,l),
(215,638,l),
(579,638,l),
(592,686,l),
(168,686,l),
(71,0,l)
);
},
{
closed = 1;
nodes = (
(414,750,l),
(545,892,l),
(545,895,l),
(480,895,l),
(364,750,l)
);
}
);
};
layerId = "1E610136-9B4E-49B0-BDBC-BF9A1AAA9445";
shapes = (
{
ref = E;
},
{
pos = (64,0);
ref = acutecomb.cap;
}
);
width = 600;
},
{
background = {
shapes = (
{
closed = 1;
nodes = (
(531,0,l),
(531,164,l),
(245,164,l),
(261,275,l),
(539,275,l),
(560,428,l),
(282,428,l),
(297,528,l),
(586,528,l),
(628,686,l),
(113,686,l),
(16,0,l)
);
},
{
closed = 1;
nodes = (
(436,751,l),
(582,893,l),
(580,896,l),
(429,896,l),
(318,751,l)
);
}
);
};
layerId = "C8A46E0E-B991-4CFC-ABD9-554F5B3B1198";
shapes = (
{
ref = E;
},
{
pos = (35,0);
ref = acutecomb.cap;
}
);
width = 600;
},
{
layerId = "56C8974D-A8FC-4FE2-AFFA-564C2D1D7F2D";
shapes = (
{
ref = E;
},
{
pos = (59,0);
ref = acutecomb.cap;
}
);
width = 600;
}
);
note = Eacute;
unicode = 201;
},
{
color = 1;
glyphname = Edblgrave;
layers = (
{
background = {
shapes = (
{
closed = 1;
nodes = (
(501,0,l),
(501,48,l),
(132,48,l),
(171,326,l),
(490,326,l),
(497,374,l),
(178,374,l),
(215,638,l),
(579,638,l),
(592,686,l),
(168,686,l),
(71,0,l)
);
},
{
closed = 1;
nodes = (
(342,750,l),
(266,895,l),
(202,895,l),
(201,892,l),
(292,750,l)
);
},
{
closed = 1;
nodes = (
(467,750,l),
(391,895,l),
(327,895,l),
(326,892,l),
(417,750,l)
);
}
);
};
layerId = "1E610136-9B4E-49B0-BDBC-BF9A1AAA9445";
shapes = (
{
ref = E;
},
{
pos = (-46,0);
ref = dblgravecomb.cap;
}
);
width = 600;
},
{
background = {
shapes = (
{
closed = 1;
nodes = (
(531,0,l),
(531,164,l),
(245,164,l),
(261,275,l),
(539,275,l),
(560,428,l),
(282,428,l),
(297,528,l),
(586,528,l),
(628,686,l),
(113,686,l),
(16,0,l)
);
},
{
closed = 1;
nodes = (
(316,750,l),
(245,895,l),
(94,895,l),
(92,892,l),
(198,750,l)
);
},
{
closed = 1;
nodes = (
(543,750,l),
(472,895,l),
(321,895,l),
(319,892,l),
(425,750,l)
);
}
);
};
layerId = "C8A46E0E-B991-4CFC-ABD9-554F5B3B1198";
shapes = (
{
ref = E;
},
{
pos = (-57,0);
ref = dblgravecomb.cap;
}
);
width = 600;
},
{
layerId = "56C8974D-A8FC-4FE2-AFFA-564C2D1D7F2D";
shapes = (
{
ref = E;
},
{
pos = (-48,0);
ref = dblgravecomb.cap;
}
);
width = 600;
}
);
note = uni0204;
unicode = 516;
},
{
color = 4;
glyphname = Schwa;
layers = (
{
anchors = (
{
name = bottom;
pos = (264,0);
},
{
name = top;
pos = (361,686);
}
);
background = {
shapes = (
{
closed = 1;
nodes = (
(267,-10,ls),
(412,-10,o),
(531,50,o),
(570,322,cs),
(579,385,o),
(582,417,o),
(582,454,cs),
(582,640,o),
(475,696,o),
(348,696,cs),
(341,696,ls),
(197,696,o),
(97,615,o),
(73,472,cs),
(71,460,l),
(121,460,l),
(123,469,l),
(139,588,o),
(224,648,o),
(341,648,cs),
(445,648,o),
(529,608,o),
(529,455,cs),
(529,420,o),
(527,394,o),
(518,335,c),
(49,335,l),
(42,284,o),
(39,253,o),
(39,221,cs),
(39,37,o),
(143,-10,o),
(264,-10,cs)
);
},
{
closed = 1;
nodes = (
(171,38,o),
(93,74,o),
(93,226,cs),
(93,243,o),
(94,261,o),
(97,287,c),
(510,287,l),
(472,81,o),
(381,38,o),
(268,38,cs)
);
}
);
};
hints = (
{
horizontal = 1;
origin = (1,9);
target = (0,34);
type = Stem;
},
{
horizontal = 1;
origin = (0,27);
target = (1,5);
type = Stem;
},
{
horizontal = 1;
origin = (0,10);
target = (0,19);
type = Stem;
},
{
origin = (0,31);
target = (1,2);
type = Stem;
},
{
origin = (0,22);
target = (0,6);
type = Stem;
},
{
place = (88.5, 52);
place = (88.5, 52);
type = Stem;
}
);
layerId = "1E610136-9B4E-49B0-BDBC-BF9A1AAA9445";
shapes = (
{
closed = 1;
nodes = (
(266,-10,ls),
(438,-10,o),
(520,97,o),
(560,356,cs),
(566,398,o),
(569,435,o),
(569,468,cs),
(569,618,o),
(496,696,o),
(355,696,cs),
(338,696,ls),
(207,696,o),
(101,614,o),
(89,472,cs),
(88,460,l),
(140,460,l),
(141,469,ls),
(154,583,o),
(237,648,o),
(347,648,cs),
(456,648,o),
(515,585,o),
(515,464,cs),
(515,437,o),
(514,405,o),
(507,358,cs),
(503,335,l),
(65,335,l),
(63,320,ls),
(58,282,o),
(55,248,o),
(55,217,cs),
(55,68,o),
(126,-10,o),
(263,-10,cs)
);
},
{
closed = 1;
nodes = (
(163,38,o),
(108,101,o),
(108,223,cs),
(108,243,o),
(109,264,o),
(112,287,c),
(495,287,l),
(465,116,o),
(394,38,o),
(269,38,cs)
);
}
);
width = 600;
},
{
anchors = (
{
name = bottom;
pos = (264,0);
},
{
name = top;
pos = (361,686);
}
);
background = {
shapes = (
{
closed = 1;
nodes = (
(302,-10,ls),
(468,-10,o),
(606,116,o),
(631,282,cs),
(646,383,o),
(648,415,o),
(648,439,cs),
(648,584,o),
(529,694,o),
(378,694,cs),
(320,694,ls),
(185,694,o),
(39,602,o),
(14,460,cs),
(10,437,l),
(226,437,l),
(228,451,ls),
(237,515,o),
(283,540,o),
(339,540,cs),
(397,540,o),
(429,507,o),
(429,462,cs),
(429,457,o),
(428,446,o),
(417,365,c),
(-5,365,l),
(-18,275,o),
(-21,251,o),
(-21,230,cs),
(-21,87,o),
(94,-10,o),
(246,-10,cs)
);
},
{
closed = 1;
nodes = (
(233,130,o),
(200,156,o),
(200,204,cs),
(200,207,o),
(200,212,o),
(201,220,c),
(397,220,l),
(397,166,o),
(352,130,o),
(289,130,cs)
);
}
);
};
hints = (
{
horizontal = 1;
origin = (1,9);
target = (0,34);
type = Stem;
},
{
horizontal = 1;
origin = (0,27);
target = (1,5);
type = Stem;
},
{
horizontal = 1;
origin = (0,10);
target = (0,19);
type = Stem;
},
{
horizontal = 1;
origin = (0,10);
target = (0,14);
type = Stem;
},
{
origin = (0,31);
target = (1,2);
type = Stem;
},
{
origin = (0,22);
target = (0,6);
type = Stem;
}
);
layerId = "C8A46E0E-B991-4CFC-ABD9-554F5B3B1198";
shapes = (
{
closed = 1;
nodes = (
(281,-10,ls),
(456,-10,o),
(575,94,o),
(600,270,cs),
(619,405,o),
(623,438,o),
(624,465,cs),
(624,604,o),
(526,696,o),
(370,696,cs),
(334,696,ls),
(161,696,o),
(40,602,o),
(30,461,cs),
(28,437,l),
(244,437,l),
(246,451,ls),
(255,511,o),
(281,540,o),
(340,540,cs),
(383,540,o),
(411,518,o),
(411,464,cs),
(411,456,o),
(410,447,o),
(407,427,cs),
(400,375,l),
(19,375,l),
(5,280,ls),
(2,262,o),
(1,245,o),
(1,229,cs),
(1,79,o),
(95,-10,o),
(255,-10,cs)
);
},
{
closed = 1;
nodes = (
(237,147,o),
(214,165,o),
(214,213,cs),
(214,223,o),
(215,234,o),
(217,247,c),
(382,247,l),
(372,175,o),
(347,147,o),
(285,147,cs)
);
}
);
width = 600;
},
{
anchors = (
{
name = bottom;
pos = (264,0);
},
{
name = top;
pos = (361,686);
}
);
hints = (
{
horizontal = 1;
origin = (1,9);
target = (0,34);
type = Stem;
},
{
horizontal = 1;
origin = (0,27);
target = (1,5);
type = Stem;
},
{
horizontal = 1;
origin = (0,10);
target = (0,19);
type = Stem;
},
{
origin = (0,31);
target = (1,2);
type = Stem;
},
{
origin = (0,22);
target = (0,6);
type = Stem;
},
{
place = (232, 2000);
place = (232, 2000);
type = Stem;
}
);
layerId = "56C8974D-A8FC-4FE2-AFFA-564C2D1D7F2D";
shapes = (
{
closed = 1;
nodes = (
(273,-10,ls),
(446,-10,o),
(544,96,o),
(578,318,cs),
(590,401,o),
(593,436,o),
(593,467,cs),
(593,612,o),
(509,696,o),
(362,696,cs),
(336,696,ls),
(187,696,o),
(74,609,o),
(63,467,cs),
(61,450,l),
(186,450,l),
(188,461,ls),
(199,551,o),
(257,600,o),
(344,600,cs),
(424,600,o),
(469,555,o),
(469,464,cs),
(469,445,o),
(468,424,o),
(463,389,cs),
(457,353,l),
(45,353,l),
(37,302,ls),
(33,273,o),
(31,247,o),
(31,222,cs),
(31,73,o),
(112,-10,o),
(259,-10,cs)
);
},
{
closed = 1;
nodes = (
(196,86,o),
(155,129,o),
(155,219,cs),
(155,234,o),
(156,251,o),
(159,269,c),
(445,269,l),
(424,142,o),
(373,86,o),
(276,86,cs)
);
}
);
width = 600;
}
);
note = uni018F;
unicode = 399;
},
{
color = 4;
glyphname = F;
layers = (
{
anchors = (
{
name = bottom;
pos = (264,0);
},
{
name = top;
pos = (361,686);
}
);
background = {
shapes = (
{
closed = 1;
nodes = (
(118,0,l),
(164,326,l),
(457,326,l),
(464,374,l),
(171,374,l),
(208,638,l),
(551,638,l),
(567,686,l),
(161,686,l),
(64,0,l)
);
}
);
};
hints = (
{
horizontal = 1;
origin = (0,9);
target = up;
type = BottomGhost;
},
{
horizontal = 1;
origin = (0,1);
target = (0,4);
type = Stem;
},
{
horizontal = 1;
origin = (0,8);
target = (0,5);
type = Stem;
}
);
layerId = "1E610136-9B4E-49B0-BDBC-BF9A1AAA9445";
shapes = (
{
closed = 1;
nodes = (
(118,0,l),
(164,326,l),
(457,326,l),
(464,374,l),
(171,374,l),
(208,638,l),
(554,638,l),
(567,686,l),
(161,686,l),
(64,0,l)
);
}
);
width = 600;
},
{
anchors = (
{
name = bottom;
pos = (264,0);
},
{
name = top;
pos = (361,686);
}
);
background = {
shapes = (
{
closed = 1;
nodes = (
(229,0,l),
(265,257,l),
(507,257,l),
(529,411,l),
(287,411,l),
(303,523,l),
(564,523,l),
(607,686,l),
(121,686,l),
(24,0,l)
);
}
);
};
hints = (
{
horizontal = 1;
place = (0, 21);
target = up;
type = BottomGhost;
},
{
horizontal = 1;
place = (257, 154);
place = (257, 154);
type = Stem;
},
{
horizontal = 1;
place = (523, 163);
place = (523, 163);
type = Stem;
},
{
place = (16, 593);
place = (16, 593);
type = Stem;
}
);
layerId = "C8A46E0E-B991-4CFC-ABD9-554F5B3B1198";
shapes = (
{
closed = 1;
nodes = (
(229,0,l),
(265,257,l),
(507,257,l),
(529,411,l),
(287,411,l),
(303,523,l),
(564,523,l),
(607,686,l),
(121,686,l),
(24,0,l)
);
}
);
width = 600;
},
{
anchors = (
{
name = bottom;
pos = (264,0);
},
{
name = top;
pos = (361,686);
}
);
hints = (
{
horizontal = 1;
origin = (0,9);
target = up;
type = BottomGhost;
},
{
horizontal = 1;
origin = (0,1);
target = (0,4);
type = Stem;
},
{
horizontal = 1;
origin = (0,8);
target = (0,5);
type = Stem;
}
);
layerId = "56C8974D-A8FC-4FE2-AFFA-564C2D1D7F2D";
shapes = (
{
closed = 1;
nodes = (
(167,0,l),
(209,295,l),
(479,295,l),
(493,390,l),
(223,390,l),
(250,587,l),
(558,587,l),
(585,686,l),
(143,686,l),
(46,0,l)
);
}
);
width = 600;
}
);
note = F;
unicode = 70;
},
{
color = 4;
glyphname = Fhook;
layers = (
{
anchors = (
{
name = bottom;
pos = (264,0);
},
{
name = top;
pos = (361,686);
}
);
background = {
shapes = (
{
closed = 1;
nodes = (
(46,-186,o),
(97,-152,o),
(108,-75,cs),
(164,326,l),
(457,326,l),
(464,374,l),
(171,374,l),
(208,638,l),
(551,638,l),
(567,686,l),
(161,686,l),
(54,-73,ls),
(46,-132,o),
(15,-140,o),
(-13,-140,cs),
(-34,-140,o),
(-56,-134,o),
(-72,-124,c),
(-79,-169,l),
(-63,-179,o),
(-38,-186,o),
(-13,-186,cs)
);
}
);
};
hints = (
{
horizontal = 1;
origin = (0,21);
target = (0,14);
type = Stem;
},
{
horizontal = 1;
origin = (0,3);
target = (0,6);
type = Stem;
},
{
horizontal = 1;
origin = (0,10);
target = (0,7);
type = Stem;
}
);
layerId = "1E610136-9B4E-49B0-BDBC-BF9A1AAA9445";
shapes = (
{
closed = 1;
nodes = (
(47,-186,o),
(96,-152,o),
(107,-75,cs),
(164,326,l),
(457,326,l),
(464,374,l),
(171,374,l),
(208,638,l),
(554,638,l),
(567,686,l),
(161,686,l),
(54,-73,ls),
(46,-132,o),
(14,-140,o),
(-12,-140,cs),
(-27,-140,o),
(-56,-131,o),
(-71,-124,c),
(-78,-169,l),
(-62,-179,o),
(-37,-186,o),
(-12,-186,cs)
);
}
);
width = 600;
},
{
anchors = (
{
name = bottom;
pos = (264,0);
},
{
name = top;
pos = (361,686);
}
);
background = {
shapes = (
{
closed = 1;
nodes = (
(123,-187,o),
(210,-134,o),
(225,-26,cs),
(265,257,l),
(507,257,l),
(529,411,l),
(287,411,l),
(303,523,l),
(564,523,l),
(607,686,l),
(121,686,l),
(24,0,ls),
(16,-55,o),
(-14,-65,o),
(-42,-65,cs),
(-65,-65,o),
(-90,-59,o),
(-102,-53,c),
(-118,-165,l),
(-90,-180,o),
(-28,-187,o),
(8,-187,cs)
);
}
);
};
hints = (
{
horizontal = 1;
origin = (0,21);
target = up;
type = BottomGhost;
},
{
horizontal = 1;
origin = (0,3);
target = (0,6);
type = Stem;
},
{
horizontal = 1;
origin = (0,10);
target = (0,7);
type = Stem;
},
{
horizontal = 1;
origin = (0,21);
target = (0,14);
type = Stem;
}
);
layerId = "C8A46E0E-B991-4CFC-ABD9-554F5B3B1198";
shapes = (
{
closed = 1;
nodes = (
(123,-187,o),
(210,-134,o),
(225,-26,cs),
(265,257,l),
(507,257,l),
(529,411,l),
(287,411,l),
(303,523,l),
(564,523,l),
(607,686,l),
(121,686,l),
(24,0,ls),
(16,-55,o),
(-13,-65,o),
(-40,-65,cs),
(-55,-65,o),
(-85,-60,o),
(-100,-53,c),
(-116,-165,l),
(-84,-178,o),
(-21,-187,o),
(14,-187,cs)
);
}
);
width = 600;
},
{
anchors = (
{
name = bottom;
pos = (264,0);
},
{
name = top;
pos = (361,686);
}
);
hints = (
{
horizontal = 1;
origin = (0,21);
target = (0,14);
type = Stem;
},
{
horizontal = 1;
origin = (0,3);
target = (0,6);
type = Stem;
},
{
horizontal = 1;
origin = (0,10);
target = (0,7);
type = Stem;
}
);
layerId = "56C8974D-A8FC-4FE2-AFFA-564C2D1D7F2D";
shapes = (
{
closed = 1;
nodes = (
(81,-186,o),
(147,-144,o),
(159,-53,cs),
(209,295,l),
(479,295,l),
(493,390,l),
(223,390,l),
(250,587,l),
(558,587,l),
(585,686,l),
(143,686,l),
(41,-41,ls),
(33,-98,o),
(2,-107,o),
(-24,-107,cs),
(-39,-107,o),
(-69,-99,o),
(-84,-92,c),
(-95,-167,l),
(-72,-179,o),
(-30,-186,o),
(0,-186,cs)
);
}
);
width = 600;
}
);
note = uni0191;
unicode = 401;
},
{
color = 4;
glyphname = G;
layers = (
{
anchors = (
{
name = bottom;
pos = (289,0);
},
{
name = top;
pos = (366,686);
}
);
background = {
shapes = (
{
closed = 1;
nodes = (
(266,-10,ls),
(345,-10,o),
(422,20,o),
(473,92,c),
(476,0,l),
(513,0,l),
(513,21,o),
(517,67,o),
(524,119,cs),
(556,350,l),
(284,350,l),
(278,303,l),
(500,303,l),
(494,261,ls),
(468,81,o),
(370,38,o),
(269,38,cs),
(163,38,o),
(84,87,o),
(114,298,cs),
(127,388,ls),
(156,599,o),
(244,648,o),
(354,648,cs),
(451,648,o),
(540,608,o),
(517,449,c),
(570,449,l),
(597,642,o),
(487,696,o),
(365,696,cs),
(360,696,ls),
(221,696,o),
(107,635,o),
(71,376,cs),
(62,310,ls),
(25,51,o),
(127,-10,o),
(263,-10,cs)
);
}
);
};
hints = (
{
horizontal = 1;
origin = (0,48);
target = (0,16);
type = Stem;
},
{
horizontal = 1;
origin = (0,11);
target = (0,10);
type = Stem;
},
{
horizontal = 1;
origin = (0,39);
target = (0,25);
type = Stem;
},
{
horizontal = 1;
origin = (0,4);
target = up;
type = BottomGhost;
},
{
origin = (0,45);
target = (0,19);
type = Stem;
},
{
origin = (0,28);
target = (0,35);
type = Stem;
},
{
place = (477.5, 38.5);
place = (477.5, 38.5);
type = Stem;
}
);
layerId = "1E610136-9B4E-49B0-BDBC-BF9A1AAA9445";
shapes = (
{
closed = 1;
nodes = (
(276,-10,ls),
(345,-10,o),
(423,18,o),
(473,92,c),
(476,0,l),
(513,0,l),
(513,21,o),
(517,67,o),
(524,119,cs),
(556,350,l),
(284,350,l),
(278,303,l),
(500,303,l),
(495,261,ls),
(473,79,o),
(367,38,o),
(282,38,cs),
(176,38,o),
(108,72,o),
(108,223,cs),
(108,250,o),
(111,284,o),
(123,368,cs),
(155,595,o),
(245,648,o),
(357,648,cs),
(441,648,o),
(520,616,o),
(520,494,cs),
(520,480,o),
(519,465,o),
(517,449,c),
(570,449,l),
(573,469,o),
(574,487,o),
(574,504,cs),
(574,652,o),
(475,696,o),
(369,696,cs),
(363,696,ls),
(222,696,o),
(104,631,o),
(68,356,cs),
(59,289,o),
(57,254,o),
(57,223,cs),
(57,39,o),
(147,-10,o),
(261,-10,cs)
);
}
);
width = 600;
},
{
anchors = (
{
name = bottom;
pos = (269,0);
},
{
name = top;
pos = (356,686);
}
);
background = {
shapes = (
{
closed = 1;
nodes = (
(285,-10,ls),
(385,-10,o),
(443,25,o),
(493,73,c),
(510,0,l),
(622,0,l),
(622,29,o),
(624,74,o),
(636,144,cs),
(669,384,l),
(359,384,l),
(340,248,l),
(456,248,l),
(454,236,ls),
(443,171,o),
(405,147,o),
(337,147,cs),
(286,147,o),
(250,184,o),
(250,233,cs),
(250,243,o),
(256,290,o),
(278,440,cs),
(286,496,o),
(328,540,o),
(392,540,cs),
(452,540,o),
(484,512,o),
(484,459,cs),
(484,446,o),
(484,442,o),
(483,439,c),
(677,439,l),
(679,457,o),
(680,466,o),
(680,479,cs),
(680,607,o),
(573,696,o),
(435,696,cs),
(407,696,ls),
(199,696,o),
(69,562,o),
(46,396,cs),
(31,290,o),
(28,272,o),
(28,244,cs),
(28,100,o),
(125,-10,o),
(275,-10,cs)
);
}
);
};
hints = (
{
horizontal = 1;
origin = (0,48);
target = (0,16);
type = Stem;
},
{
horizontal = 1;
origin = (0,11);
target = (0,10);
type = Stem;
},
{
horizontal = 1;
origin = (0,39);
target = (0,25);
type = Stem;
},
{
horizontal = 1;
origin = (0,4);
target = up;
type = BottomGhost;
},
{
horizontal = 1;
origin = (0,39);
target = (0,31);
type = Stem;
},
{
origin = (0,45);
target = (0,19);
type = Stem;
},
{
origin = (0,28);
target = (0,35);
type = Stem;
}
);
layerId = "C8A46E0E-B991-4CFC-ABD9-554F5B3B1198";
shapes = (
{
closed = 1;
nodes = (
(245,-10,ls),
(312,-10,o),
(385,25,o),
(418,73,c),
(436,0,l),
(548,0,l),
(550,51,o),
(552,82,o),
(561,144,cs),
(595,384,l),
(317,384,l),
(298,248,l),
(382,248,l),
(378,222,ls),
(370,167,o),
(335,147,o),
(285,147,cs),
(242,147,o),
(215,170,o),
(215,215,cs),
(215,236,o),
(220,272,o),
(246,455,cs),
(255,520,o),
(291,540,o),
(338,540,cs),
(400,540,o),
(412,505,o),
(412,472,cs),
(412,460,o),
(411,448,o),
(409,439,c),
(603,439,l),
(605,453,o),
(606,467,o),
(606,481,cs),
(606,608,o),
(518,696,o),
(380,696,cs),
(344,696,ls),
(176,696,o),
(48,583,o),
(24,415,cs),
(6,289,o),
(2,261,o),
(2,231,cs),
(2,79,o),
(94,-10,o),
(232,-10,cs)
);
}
);
width = 600;
},
{
anchors = (
{
name = bottom;
pos = (274,0);
},
{
name = top;
pos = (362,686);
}
);
hints = (
{
horizontal = 1;
origin = (0,48);
target = (0,16);
type = Stem;
},
{
horizontal = 1;
origin = (0,11);
target = (0,10);
type = Stem;
},
{
horizontal = 1;
origin = (0,39);
target = (0,25);
type = Stem;
},
{
horizontal = 1;
origin = (0,4);
target = up;
type = BottomGhost;
},
{
origin = (0,45);
target = (0,19);
type = Stem;
},
{
origin = (0,28);
target = (0,35);
type = Stem;
},
{
place = (448, 2000);
place = (448, 2000);
type = Stem;
}
);
layerId = "56C8974D-A8FC-4FE2-AFFA-564C2D1D7F2D";
shapes = (
{
closed = 1;
nodes = (
(262,-10,ls),
(330,-10,o),
(406,21,o),
(449,84,c),
(458,0,l),
(529,0,l),
(529,34,o),
(532,74,o),
(540,130,cs),
(573,365,l),
(299,365,l),
(287,279,l),
(448,279,l),
(443,244,ls),
(425,118,o),
(353,86,o),
(283,86,cs),
(205,86,o),
(156,116,o),
(156,219,cs),
(156,244,o),
(159,279,o),
(178,407,cs),
(199,562,o),
(265,600,o),
(349,600,cs),
(423,600,o),
(472,567,o),
(472,484,cs),
(472,471,o),
(471,457,o),
(469,445,c),
(585,445,l),
(587,462,o),
(588,478,o),
(588,494,cs),
(588,632,o),
(494,696,o),
(374,696,cs),
(355,696,ls),
(202,696,o),
(79,610,o),
(48,382,cs),
(35,289,o),
(33,257,o),
(33,227,cs),
(33,57,o),
(123,-10,o),
(248,-10,cs)
);
}
);
width = 600;
}
);
note = G;
unicode = 71;
},
{
color = 4;
glyphname = Gstroke;
layers = (
{
background = {
shapes = (
{
closed = 1;
nodes = (
(267,-10,ls),
(343,-10,o),
(423,18,o),
(473,92,c),
(476,0,l),
(513,0,l),
(513,0,o),
(514,48,o),
(524,119,cs),
(556,350,l),
(274,350,l),
(268,303,l),
(500,303,l),
(493,251,ls),
(470,79,o),
(361,38,o),
(269,38,cs),
(163,38,o),
(87,76,o),
(87,227,cs),
(87,254,o),
(88,284,o),
(100,368,cs),
(132,595,o),
(227,648,o),
(344,648,cs),
(438,648,o),
(520,616,o),
(520,494,cs),
(520,480,o),
(519,465,o),
(517,449,c),
(570,449,l),
(573,469,o),
(574,487,o),
(574,504,cs),
(574,649,o),
(467,696,o),
(355,696,cs),
(349,696,ls),
(204,696,o),
(81,631,o),
(45,356,cs),
(36,289,o),
(34,254,o),
(34,223,cs),
(34,39,o),
(132,-10,o),
(262,-10,cs)
);
},
{
closed = 1;
nodes = (
(590,170,l),
(596,212,l),
(306,212,l),
(300,170,l)
);
}
);
};
hints = (
{
horizontal = 1;
origin = (0,48);
target = (0,16);
type = Stem;
},
{
horizontal = 1;
origin = (0,11);
target = (0,10);
type = Stem;
},
{
horizontal = 1;
origin = (0,39);
target = (0,25);
type = Stem;
},
{
horizontal = 1;
origin = (0,4);
target = up;
type = BottomGhost;
},
{
origin = (0,45);
target = (0,19);
type = Stem;
},
{
origin = (0,28);
target = (0,35);
type = Stem;
},
{
place = (477.5, 38.5);
place = (477.5, 38.5);
type = Stem;
}
);
layerId = "1E610136-9B4E-49B0-BDBC-BF9A1AAA9445";
shapes = (
{
closed = 1;
nodes = (
(276,-10,ls),
(345,-10,o),
(423,18,o),
(473,92,c),
(476,0,l),
(513,0,l),
(513,21,o),
(517,67,o),
(524,119,cs),
(556,350,l),
(284,350,l),
(278,303,l),
(500,303,l),
(495,261,ls),
(473,79,o),
(367,38,o),
(282,38,cs),
(176,38,o),
(108,72,o),
(108,223,cs),
(108,250,o),
(111,284,o),
(123,368,cs),
(155,595,o),
(245,648,o),
(357,648,cs),
(441,648,o),
(520,616,o),
(520,494,cs),
(520,480,o),
(519,465,o),
(517,449,c),
(570,449,l),
(573,469,o),
(574,487,o),
(574,504,cs),
(574,652,o),
(475,696,o),
(369,696,cs),
(363,696,ls),
(222,696,o),
(104,631,o),
(68,356,cs),
(59,289,o),
(57,254,o),
(57,223,cs),
(57,39,o),
(147,-10,o),
(261,-10,cs)
);
},
{
closed = 1;
nodes = (
(590,170,l),
(596,212,l),
(306,212,l),
(300,170,l)
);
}
);
width = 600;
},
{
background = {
shapes = (
{
closed = 1;
nodes = (
(249,-10,ls),
(334,-10,o),
(399,22,o),
(451,80,c),
(461,0,l),
(532,0,l),
(532,35,o),
(536,78,o),
(544,132,c),
(577,367,l),
(283,367,l),
(269,268,l),
(445,268,l),
(443,250,ls),
(431,139,o),
(363,95,o),
(270,95,cs),
(184,95,o),
(126,142,o),
(126,241,cs),
(126,265,o),
(129,290,o),
(143,389,cs),
(162,526,o),
(233,591,o),
(338,591,cs),
(412,591,o),
(470,557,o),
(470,473,cs),
(470,464,o),
(469,454,o),
(468,444,c),
(588,444,l),
(590,457,o),
(591,472,o),
(591,487,cs),
(591,621,o),
(488,696,o),
(360,696,cs),
(350,696,ls),
(171,696,o),
(44,588,o),
(17,389,cs),
(9,331,o),
(-1,264,o),
(-1,236,cs),
(-1,79,o),
(100,-10,o),
(243,-10,cs)
);
},
{
closed = 1;
nodes = (
(606,157,l),
(615,225,l),
(298,225,l),
(289,157,l)
);
}
);
};
hints = (
{
horizontal = 1;
origin = (0,48);
target = (0,16);
type = Stem;
},
{
horizontal = 1;
origin = (0,11);
target = (0,10);
type = Stem;
},
{
horizontal = 1;
origin = (0,39);
target = (0,25);
type = Stem;
},
{
horizontal = 1;
origin = (0,4);
target = up;
type = BottomGhost;
},
{
origin = (0,45);
target = (0,19);
type = Stem;
},
{
origin = (0,28);
target = (0,35);
type = Stem;
},
{
place = (448, 2000);
place = (448, 2000);
type = Stem;
}
);
layerId = "56C8974D-A8FC-4FE2-AFFA-564C2D1D7F2D";
shapes = (
{
closed = 1;
nodes = (
(262,-10,ls),
(330,-10,o),
(406,21,o),
(449,84,c),
(458,0,l),
(529,0,l),
(529,34,o),
(532,74,o),
(540,130,cs),
(573,365,l),
(299,365,l),
(287,279,l),
(448,279,l),
(443,244,ls),
(425,118,o),
(353,86,o),
(283,86,cs),
(205,86,o),
(156,116,o),
(156,219,cs),
(156,244,o),
(159,279,o),
(178,407,cs),
(199,562,o),
(265,600,o),
(349,600,cs),
(423,600,o),
(472,567,o),
(472,484,cs),
(472,471,o),
(471,457,o),
(469,445,c),
(585,445,l),
(587,462,o),
(588,478,o),
(588,494,cs),
(588,632,o),
(494,696,o),
(374,696,cs),
(355,696,ls),
(202,696,o),
(79,610,o),
(48,382,cs),
(35,289,o),
(33,257,o),
(33,227,cs),
(33,57,o),
(123,-10,o),
(248,-10,cs)
);
},
{
closed = 1;
nodes = (
(600,157,l),
(609,225,l),
(298,225,l),
(289,157,l)
);
}
);
width = 600;
},
{
background = {
shapes = (
{
closed = 1;
nodes = (
(208,-10,ls),
(308,-10,o),
(369,25,o),
(419,73,c),
(436,0,l),
(548,0,l),
(548,29,o),
(552,74,o),
(562,144,cs),
(595,384,l),
(285,384,l),
(271,278,l),
(387,278,l),
(378,216,ls),
(368,150,o),
(329,126,o),
(261,126,cs),
(205,126,o),
(174,161,o),
(174,210,cs),
(174,229,o),
(180,275,o),
(203,438,cs),
(212,502,o),
(255,538,o),
(317,538,cs),
(375,538,o),
(410,509,o),
(410,459,cs),
(410,446,o),
(410,442,o),
(409,439,c),
(603,439,l),
(605,457,o),
(605,466,o),
(605,479,cs),
(605,607,o),
(486,694,o),
(339,694,cs),
(311,694,ls),
(112,694,o),
(-3,558,o),
(-28,394,cs),
(-38,329,o),
(-45,272,o),
(-45,248,cs),
(-45,87,o),
(48,-10,o),
(198,-10,cs)
);
},
{
closed = 1;
nodes = (
(607,176,l),
(616,244,l),
(294,244,l),
(285,176,l)
);
}
);
};
hints = (
{
horizontal = 1;
origin = (0,48);
target = (0,16);
type = Stem;
},
{
horizontal = 1;
origin = (0,11);
target = (0,10);
type = Stem;
},
{
horizontal = 1;
origin = (0,39);
target = (0,25);
type = Stem;
},
{
horizontal = 1;
origin = (0,4);
target = up;
type = BottomGhost;
},
{
horizontal = 1;
origin = (0,39);
target = (0,31);
type = Stem;
},
{
origin = (0,45);
target = (0,19);
type = Stem;
},
{
origin = (0,28);
target = (0,35);
type = Stem;
}
);
layerId = "C8A46E0E-B991-4CFC-ABD9-554F5B3B1198";
shapes = (
{
closed = 1;
nodes = (
(245,-10,ls),
(312,-10,o),
(385,25,o),
(418,73,c),
(436,0,l),
(548,0,l),
(550,51,o),
(552,82,o),
(561,144,cs),
(595,384,l),
(317,384,l),
(303,278,l),
(387,278,l),
(378,222,ls),
(369,167,o),
(335,147,o),
(285,147,cs),
(242,147,o),
(215,170,o),
(215,215,cs),
(215,236,o),
(220,272,o),
(246,455,cs),
(255,520,o),
(291,540,o),
(338,540,cs),
(400,540,o),
(412,505,o),
(412,472,cs),
(412,460,o),
(411,448,o),
(409,439,c),
(603,439,l),
(605,453,o),
(606,467,o),
(606,481,cs),
(606,608,o),
(518,696,o),
(380,696,cs),
(344,696,ls),
(176,696,o),
(48,583,o),
(24,415,cs),
(6,289,o),
(2,261,o),
(2,231,cs),
(2,79,o),
(94,-10,o),
(232,-10,cs)
);
},
{
closed = 1;
nodes = (
(607,176,l),
(616,244,l),
(294,244,l),
(285,176,l)
);
}
);
width = 600;
}
);
unicode = 484;
},
{
color = 4;
glyphname = H;
layers = (
{
anchors = (
{
name = bottom;
pos = (272,0);
},
{
name = center;
pos = (339,530);
},
{
name = top;
pos = (361,686);
},
{
name = topleft;
pos = (151,686);
}
);
background = {
anchors = (
{
name = bottom;
pos = (264,0);
},
{
name = center;
pos = (339,530);
},
{
name = top;
pos = (361,686);
},
{
name = topleft;
pos = (151,686);
}
);
shapes = (
{
closed = 1;
nodes = (
(108,0,l),
(154,326,l),
(466,326,l),
(420,0,l),
(474,0,l),
(571,686,l),
(517,686,l),
(473,374,l),
(161,374,l),
(205,686,l),
(151,686,l),
(54,0,l)
);
}
);
};
hints = (
{
horizontal = 1;
place = (0, 21);
target = up;
type = BottomGhost;
},
{
horizontal = 1;
place = (374, 48);
place = (374, 48);
type = Stem;
},
{
horizontal = 1;
place = (686, -20);
target = down;
type = TopGhost;
}
);
layerId = "1E610136-9B4E-49B0-BDBC-BF9A1AAA9445";
shapes = (
{
closed = 1;
nodes = (
(108,0,l),
(154,326,l),
(466,326,l),
(420,0,l),
(474,0,l),
(571,686,l),
(517,686,l),
(473,374,l),
(161,374,l),
(205,686,l),
(151,686,l),
(54,0,l)
);
}
);
width = 600;
},
{
anchors = (
{
name = bottom;
pos = (264,0);
},
{
name = center;
pos = (343,560);
},
{
name = top;
pos = (361,686);
},
{
name = topleft;
pos = (101,686);
}
);
background = {
shapes = (
{
closed = 1;
nodes = (
(227,0,l),
(265,267,l),
(340,267,l),
(302,0,l),
(512,0,l),
(609,686,l),
(398,686,l),
(362,433,l),
(287,433,l),
(323,686,l),
(113,686,l),
(16,0,l)
);
}
);
};
hints = (
{
horizontal = 1;
place = (0, 21);
target = up;
type = BottomGhost;
},
{
horizontal = 1;
place = (433, 166);
place = (433, 166);
type = Stem;
},
{
horizontal = 1;
place = (686, -20);
target = down;
type = TopGhost;
}
);
layerId = "C8A46E0E-B991-4CFC-ABD9-554F5B3B1198";
shapes = (
{
closed = 1;
nodes = (
(204,0,l),
(242,267,l),
(362,267,l),
(324,0,l),
(524,0,l),
(621,686,l),
(421,686,l),
(385,433,l),
(265,433,l),
(301,686,l),
(101,686,l),
(4,0,l)
);
}
);
width = 600;
},
{
associatedMasterId = "C8A46E0E-B991-4CFC-ABD9-554F5B3B1198";
hints = (
{
horizontal = 1;
place = (0, 21);
target = up;
type = BottomGhost;
},
{
horizontal = 1;
place = (267, 166);
place = (267, 166);
type = Stem;
},
{
horizontal = 1;
place = (686, -20);
target = down;
type = TopGhost;
},
{
place = (16, 680);
place = (16, 680);
type = Stem;
}
);
layerId = "01D9B9AE-B3BD-4BF7-918F-C28DF8739CF8";
name = "Aug 31 19, 18:28";
shapes = (
{
closed = 1;
nodes = (
(227,0,l),
(265,267,l),
(340,267,l),
(302,0,l),
(512,0,l),
(609,686,l),
(398,686,l),
(362,433,l),
(287,433,l),
(323,686,l),
(113,686,l),
(16,0,l)
);
}
);
width = 600;
},
{
anchors = (
{
name = bottom;
pos = (264,0);
},
{
name = center;
pos = (341,543);
},
{
name = top;
pos = (361,686);
},
{
name = topleft;
pos = (129,686);
}
);
hints = (
{
horizontal = 1;
place = (0, 21);
target = up;
type = BottomGhost;
},
{
horizontal = 1;
place = (400, 100);
place = (400, 100);
type = Stem;
},
{
horizontal = 1;
place = (686, -20);
target = down;
type = TopGhost;
}
);
layerId = "56C8974D-A8FC-4FE2-AFFA-564C2D1D7F2D";
shapes = (
{
closed = 1;
nodes = (
(151,0,l),
(193,300,l),
(420,300,l),
(377,0,l),
(496,0,l),
(593,686,l),
(474,686,l),
(434,400,l),
(207,400,l),
(248,686,l),
(129,686,l),
(32,0,l)
);
}
);
width = 600;
}
);
note = H;
unicode = 72;
},
{
color = 1;
glyphname = Hbar;
layers = (
{
anchors = (
{
name = bottom;
pos = (272,0);
},
{
name = center;
pos = (339,530);
},
{
name = top;
pos = (361,686);
},
{
name = topleft;
pos = (151,686);
}
);
hints = (
{
horizontal = 1;
place = (0, 21);
target = up;
type = BottomGhost;
},
{
horizontal = 1;
place = (374, 48);
place = (374, 48);
type = Stem;
},
{
horizontal = 1;
place = (686, -20);
target = down;
type = TopGhost;
},
{
horizontal = 1;
origin = (1,3);
target = (1,2);
type = Stem;
},
{
origin = (1,3);
target = (1,0);
type = Stem;
}
);
layerId = "1E610136-9B4E-49B0-BDBC-BF9A1AAA9445";
shapes = (
{
closed = 1;
nodes = (
(108,0,l),
(154,326,l),
(466,326,l),
(420,0,l),
(474,0,l),
(571,686,l),
(517,686,l),
(473,374,l),
(161,374,l),
(205,686,l),
(151,686,l),
(54,0,l)
);
},
{
closed = 1;
nodes = (
(626,509,l),
(632,551,l),
(52,551,l),
(46,509,l)
);
}
);
width = 600;
},
{
anchors = (
{
name = bottom;
pos = (264,0);
},
{
name = center;
pos = (343,560);
},
{
name = top;
pos = (361,686);
},
{
name = topleft;
pos = (101,686);
}
);
background = {
shapes = (
{
closed = 1;
nodes = (
(227,0,l),
(265,267,l),
(427,267,l),
(389,0,l),
(599,0,l),
(667,484,l),
(732,484,l),
(750,610,l),
(685,610,l),
(696,686,l),
(485,686,l),
(474,610,l),
(312,610,l),
(323,686,l),
(113,686,l),
(102,610,l),
(26,610,l),
(8,484,l),
(84,484,l),
(16,0,l)
);
},
{
closed = 1;
nodes = (
(294,484,l),
(456,484,l),
(449,433,l),
(287,433,l)
);
}
);
};
hints = (
{
horizontal = 1;
place = (0, 21);
target = up;
type = BottomGhost;
},
{
horizontal = 1;
place = (433, 166);
place = (433, 166);
type = Stem;
},
{
horizontal = 1;
place = (686, -20);
target = down;
type = TopGhost;
},
{
horizontal = 1;
origin = (1,3);
target = (1,2);
type = Stem;
},
{
origin = (1,3);
target = (1,0);
type = Stem;
}
);
layerId = "C8A46E0E-B991-4CFC-ABD9-554F5B3B1198";
shapes = (
{
closed = 1;
nodes = (
(204,0,l),
(242,267,l),
(362,267,l),
(324,0,l),
(524,0,l),
(621,686,l),
(421,686,l),
(385,433,l),
(265,433,l),
(301,686,l),
(101,686,l),
(4,0,l)
);
},
{
closed = 1;
nodes = (
(634,497,l),
(652,623,l),
(52,623,l),
(34,497,l)
);
}
);
width = 600;
},
{
anchors = (
{
name = bottom;
pos = (264,0);
},
{
name = center;
pos = (341,543);
},
{
name = top;
pos = (361,686);
},
{
name = topleft;
pos = (129,686);
}
);
hints = (
{
horizontal = 1;
place = (0, 21);
target = up;
type = BottomGhost;
},
{
horizontal = 1;
place = (400, 100);
place = (400, 100);
type = Stem;
},
{
horizontal = 1;
place = (686, -20);
target = down;
type = TopGhost;
},
{
horizontal = 1;
origin = (1,3);
target = (1,2);
type = Stem;
},
{
origin = (1,3);
target = (1,0);
type = Stem;
}
);
layerId = "56C8974D-A8FC-4FE2-AFFA-564C2D1D7F2D";
shapes = (
{
closed = 1;
nodes = (
(151,0,l),
(193,300,l),
(420,300,l),
(377,0,l),
(496,0,l),
(593,686,l),
(474,686,l),
(434,400,l),
(207,400,l),
(248,686,l),
(129,686,l),
(32,0,l)
);
},
{
closed = 1;
nodes = (
(629,503,l),
(641,582,l),
(53,582,l),
(41,503,l)
);
}
);
width = 600;
}
);
note = Hbar;
unicode = 294;
},
{
color = 4;
glyphname = I;
layers = (
{
anchors = (
{
name = bottom;
pos = (268,0);
},
{
name = center;
pos = (315,343);
},
{
name = ogonek;
pos = (370,0);
},
{
name = top;
pos = (361,686);
},
{
name = topleft;
pos = (195,686);
}
);
background = {
shapes = (
{
closed = 1;
nodes = (
(370,0,l),
(377,49,l),
(298,49,l),
(381,637,l),
(460,637,l),
(467,686,l),
(255,686,l),
(248,637,l),
(327,637,l),
(244,49,l),
(165,49,l),
(158,0,l)
);
}
);
};
hints = (
{
horizontal = 1;
origin = (0,11);
target = (0,10);
type = Stem;
},
{
horizontal = 1;
origin = (0,6);
target = (0,7);
type = Stem;
}
);
layerId = "1E610136-9B4E-49B0-BDBC-BF9A1AAA9445";
shapes = (
{
closed = 1;
nodes = (
(430,0,l),
(437,49,l),
(298,49,l),
(381,637,l),
(520,637,l),
(527,686,l),
(195,686,l),
(188,637,l),
(327,637,l),
(244,49,l),
(105,49,l),
(98,0,l)
);
}
);
width = 600;
},
{
anchors = (
{
name = bottom;
pos = (270,0);
},
{
name = center;
pos = (315,343);
},
{
name = ogonek;
pos = (421,0);
},
{
name = top;
pos = (361,686);
},
{
name = topleft;
pos = (114,686);
}
);
background = {
shapes = (
{
closed = 1;
nodes = (
(451,0,l),
(472,148,l),
(391,148,l),
(446,539,l),
(527,539,l),
(548,686,l),
(174,686,l),
(153,539,l),
(234,539,l),
(179,148,l),
(98,148,l),
(77,0,l)
);
}
);
};
hints = (
{
horizontal = 1;
origin = (0,11);
target = (0,10);
type = Stem;
},
{
horizontal = 1;
origin = (0,6);
target = (0,7);
type = Stem;
}
);
layerId = "C8A46E0E-B991-4CFC-ABD9-554F5B3B1198";
shapes = (
{
closed = 1;
nodes = (
(511,0,l),
(532,148,l),
(390,148,l),
(445,539,l),
(587,539,l),
(608,686,l),
(114,686,l),
(93,539,l),
(235,539,l),
(180,148,l),
(38,148,l),
(17,0,l)
);
}
);
width = 600;
},
{
anchors = (
{
name = bottom;
pos = (264,0);
},
{
name = center;
pos = (312,343);
},
{
name = ogonek;
pos = (386,0);
},
{
name = top;
pos = (361,686);
},
{
name = topleft;
pos = (159,686);
}
);
hints = (
{
horizontal = 1;
origin = (0,11);
target = (0,10);
type = Stem;
},
{
horizontal = 1;
origin = (0,6);
target = (0,7);
type = Stem;
}
);
layerId = "56C8974D-A8FC-4FE2-AFFA-564C2D1D7F2D";
shapes = (
{
closed = 1;
nodes = (
(466,0,l),
(479,93,l),
(339,93,l),
(409,593,l),
(550,593,l),
(563,686,l),
(159,686,l),
(146,593,l),
(286,593,l),
(216,93,l),
(75,93,l),
(62,0,l)
);
}
);
width = 600;
}
);
note = I;
unicode = 73;
},
{
color = 4;
glyphname = IJ;
layers = (
{
background = {
shapes = (
{
closed = 1;
nodes = (
(562,-10,ls),
(676,-10,o),
(762,50,o),
(778,166,cs),
(851,686,l),
(797,686,l),
(725,172,ls),
(712,78,o),
(644,38,o),
(567,38,cs),
(497,38,o),
(445,70,o),
(445,146,cs),
(445,154,o),
(445,163,o),
(449,185,c),
(399,185,l),
(394,155,o),
(394,145,o),
(394,135,cs),
(394,41,o),
(464,-10,o),
(557,-10,cs)
);
},
{
closed = 1;
nodes = (
(252,0,l),
(259,49,l),
(180,49,l),
(263,637,l),
(342,637,l),
(349,686,l),
(137,686,l),
(130,637,l),
(209,637,l),
(126,49,l),
(47,49,l),
(40,0,l)
);
}
);
};
hints = (
{
horizontal = 1;
origin = (1,22);
target = (1,9);
type = Stem;
},
{
horizontal = 1;
origin = (0,2);
target = down;
type = TopGhost;
},
{
place = (82, 54);
place = (82, 54);
type = Stem;
}
);
layerId = "1E610136-9B4E-49B0-BDBC-BF9A1AAA9445";
shapes = (
{
closed = 1;
nodes = (
(150,298,l),
(205,686,l),
(151,686,l),
(96,298,l)
);
},
{
closed = 1;
nodes = (
(265,-10,ls),
(394,-10,o),
(483,61,o),
(499,176,cs),
(571,686,l),
(517,686,l),
(445,176,ls),
(433,91,o),
(366,38,o),
(270,38,cs),
(181,38,o),
(131,81,o),
(131,152,cs),
(131,159,o),
(131,172,o),
(139,218,c),
(85,218,l),
(79,182,o),
(77,163,o),
(77,144,cs),
(77,48,o),
(144,-10,o),
(261,-10,cs)
);
}
);
width = 600;
},
{
background = {
shapes = (
{
closed = 1;
nodes = (
(663,-10,ls),
(796,-10,o),
(900,55,o),
(919,180,cs),
(990,686,l),
(785,686,l),
(715,186,ls),
(711,158,o),
(690,140,o),
(667,140,cs),
(647,140,o),
(631,155,o),
(631,178,cs),
(631,182,o),
(635,210,o),
(641,248,c),
(449,248,l),
(439,189,o),
(437,170,o),
(437,158,cs),
(437,46,o),
(504,-10,o),
(632,-10,cs)
);
},
{
closed = 1;
nodes = (
(369,0,l),
(390,148,l),
(309,148,l),
(364,539,l),
(445,539,l),
(466,686,l),
(92,686,l),
(71,539,l),
(152,539,l),
(97,148,l),
(16,148,l),
(-5,0,l)
);
}
);
};
hints = (
{
horizontal = 1;
origin = (1,22);
target = (1,16);
type = Stem;
},
{
horizontal = 1;
origin = (0,2);
target = down;
type = TopGhost;
},
{
horizontal = 1;
origin = (1,22);
target = (1,9);
type = Stem;
},
{
place = (27, 594);
place = (27, 594);
type = Stem;
}
);
layerId = "C8A46E0E-B991-4CFC-ABD9-554F5B3B1198";
shapes = (
{
closed = 1;
nodes = (
(250,258,l),
(311,686,l),
(101,686,l),
(40,258,l)
);
},
{
closed = 1;
nodes = (
(293,-10,ls),
(427,-10,o),
(531,55,o),
(549,180,cs),
(621,686,l),
(416,686,l),
(345,186,ls),
(341,158,o),
(315,140,o),
(286,140,cs),
(259,140,o),
(240,155,o),
(240,179,cs),
(240,189,o),
(241,200,o),
(245,218,c),
(35,218,l),
(27,177,o),
(27,166,o),
(27,152,cs),
(27,47,o),
(116,-10,o),
(262,-10,cs)
);
}
);
width = 600;
},
{
hints = (
{
horizontal = 1;
origin = (1,22);
target = (1,9);
type = Stem;
},
{
horizontal = 1;
origin = (0,2);
target = down;
type = TopGhost;
},
{
place = (41, 2000);
place = (41, 2000);
type = Stem;
}
);
layerId = "56C8974D-A8FC-4FE2-AFFA-564C2D1D7F2D";
shapes = (
{
closed = 1;
nodes = (
(194,280,l),
(252,686,l),
(129,686,l),
(71,280,l)
);
},
{
closed = 1;
nodes = (
(277,-10,ls),
(409,-10,o),
(504,58,o),
(521,178,cs),
(593,686,l),
(472,686,l),
(401,180,ls),
(392,121,o),
(343,83,o),
(277,83,cs),
(216,83,o),
(179,114,o),
(179,164,cs),
(179,172,o),
(180,184,o),
(186,218,c),
(63,218,l),
(56,180,o),
(55,164,o),
(55,148,cs),
(55,48,o),
(132,-10,o),
(261,-10,cs)
);
}
);
width = 600;
}
);
note = IJ;
unicode = 306;
},
{
color = 1;
glyphname = Idblgrave;
layers = (
{
background = {
shapes = (
{
closed = 1;
nodes = (
(252,0,l),
(259,49,l),
(180,49,l),
(263,637,l),
(342,637,l),
(349,686,l),
(137,686,l),
(130,637,l),
(209,637,l),
(126,49,l),
(47,49,l),
(40,0,l)
);
},
{
closed = 1;
nodes = (
(210,750,l),
(134,895,l),
(70,895,l),
(69,892,l),
(160,750,l)
);
},
{
closed = 1;
nodes = (
(335,750,l),
(259,895,l),
(195,895,l),
(194,892,l),
(285,750,l)
);
}
);
};
layerId = "1E610136-9B4E-49B0-BDBC-BF9A1AAA9445";
shapes = (
{
ref = I;
},
{
pos = (-56,0);
ref = dblgravecomb.cap;
}
);
width = 600;
},
{
background = {
shapes = (
{
closed = 1;
nodes = (
(369,0,l),
(390,148,l),
(309,148,l),
(364,539,l),
(445,539,l),
(466,686,l),
(92,686,l),
(71,539,l),
(152,539,l),
(97,148,l),
(16,148,l),
(-5,0,l)
);
},
{
closed = 1;
nodes = (
(231,750,l),
(160,895,l),
(9,895,l),
(7,892,l),
(113,750,l)
);
},
{
closed = 1;
nodes = (
(458,750,l),
(387,895,l),
(236,895,l),
(234,892,l),
(340,750,l)
);
}
);
};
layerId = "C8A46E0E-B991-4CFC-ABD9-554F5B3B1198";
shapes = (
{
ref = I;
},
{
pos = (-57,0);
ref = dblgravecomb.cap;
}
);
width = 600;
},
{
layerId = "56C8974D-A8FC-4FE2-AFFA-564C2D1D7F2D";
shapes = (
{
ref = I;
},
{
pos = (-54,0);
ref = dblgravecomb.cap;
}
);
width = 600;
}
);
note = uni0208;
unicode = 520;
},
{
color = 1;
glyphname = Idieresis;
layers = (
{
background = {
shapes = (
{
closed = 1;
nodes = (
(252,0,l),
(259,49,l),
(180,49,l),
(263,637,l),
(342,637,l),
(349,686,l),
(137,686,l),
(130,637,l),
(209,637,l),
(126,49,l),
(47,49,l),
(40,0,l)
);
},
{
closed = 1;
nodes = (
(201,797,l),
(211,866,l),
(146,866,l),
(136,797,l)
);
},
{
closed = 1;
nodes = (
(377,797,l),
(387,866,l),
(322,866,l),
(312,797,l)
);
}
);
};
layerId = "1E610136-9B4E-49B0-BDBC-BF9A1AAA9445";
shapes = (
{
ref = I;
},
{
ref = dieresiscomb.cap;
}
);
width = 600;
},
{
background = {
shapes = (
{
closed = 1;
nodes = (
(369,0,l),
(390,148,l),
(309,148,l),
(364,539,l),
(445,539,l),
(466,686,l),
(92,686,l),
(71,539,l),
(152,539,l),
(97,148,l),
(16,148,l),
(-5,0,l)
);
},
{
closed = 1;
nodes = (
(245,748,l),
(265,895,l),
(113,895,l),
(93,748,l)
);
},
{
closed = 1;
nodes = (
(465,748,l),
(485,895,l),
(333,895,l),
(313,748,l)
);
}
);
};
layerId = "C8A46E0E-B991-4CFC-ABD9-554F5B3B1198";
shapes = (
{
ref = I;
},
{
pos = (1,0);
ref = dieresiscomb.cap;
}
);
width = 600;
},
{
layerId = "56C8974D-A8FC-4FE2-AFFA-564C2D1D7F2D";
shapes = (
{
ref = I;
},
{
ref = dieresiscomb.cap;
}
);
width = 600;
}
);
note = Idieresis;
unicode = 207;
},
{
color = 4;
glyphname = J;
layers = (
{
anchors = (
{
name = bottom;
pos = (264,0);
},
{
name = top;
pos = (526,686);
}
);
background = {
shapes = (
{
closed = 1;
nodes = (
(262,-10,ls),
(368,-10,o),
(462,50,o),
(478,166,cs),
(552,686,l),
(498,686,l),
(425,172,ls),
(412,78,o),
(344,38,o),
(267,38,cs),
(190,38,o),
(134,77,o),
(147,172,cs),
(149,185,l),
(99,185,l),
(96,166,ls),
(80,51,o),
(154,-10,o),
(258,-10,cs)
);
}
);
};
hints = (
{
horizontal = 1;
origin = (0,22);
target = (0,9);
type = Stem;
},
{
horizontal = 1;
origin = (0,5);
target = down;
type = TopGhost;
},
{
origin = (0,19);
target = (0,12);
type = Stem;
}
);
layerId = "1E610136-9B4E-49B0-BDBC-BF9A1AAA9445";
shapes = (
{
closed = 1;
nodes = (
(262,-10,ls),
(376,-10,o),
(462,50,o),
(478,166,cs),
(551,686,l),
(497,686,l),
(425,172,ls),
(412,78,o),
(344,38,o),
(267,38,cs),
(197,38,o),
(145,70,o),
(145,146,cs),
(145,154,o),
(145,163,o),
(149,185,c),
(99,185,l),
(94,155,o),
(94,145,o),
(94,135,cs),
(94,41,o),
(164,-10,o),
(257,-10,cs)
);
}
);
width = 600;
},
{
anchors = (
{
name = bottom;
pos = (264,0);
},
{
name = top;
pos = (499,686);
}
);
background = {
shapes = (
{
closed = 1;
nodes = (
(274,-10,ls),
(408,-10,o),
(513,55,o),
(530,180,cs),
(602,686,l),
(397,686,l),
(326,186,ls),
(322,158,o),
(301,140,o),
(278,140,cs),
(255,140,o),
(239,158,o),
(243,186,cs),
(252,248,l),
(59,248,l),
(49,180,ls),
(32,57,o),
(108,-10,o),
(243,-10,cs)
);
}
);
};
hints = (
{
horizontal = 1;
origin = (0,22);
target = (0,9);
type = Stem;
},
{
horizontal = 1;
origin = (0,5);
target = down;
type = TopGhost;
},
{
origin = (0,19);
target = (0,12);
type = Stem;
}
);
layerId = "C8A46E0E-B991-4CFC-ABD9-554F5B3B1198";
shapes = (
{
closed = 1;
nodes = (
(273,-10,ls),
(406,-10,o),
(510,55,o),
(529,180,cs),
(600,686,l),
(395,686,l),
(325,186,ls),
(321,158,o),
(300,140,o),
(277,140,cs),
(257,140,o),
(241,155,o),
(241,178,cs),
(241,182,o),
(245,210,o),
(251,248,c),
(59,248,l),
(49,189,o),
(47,170,o),
(47,158,cs),
(47,46,o),
(114,-10,o),
(242,-10,cs)
);
}
);
width = 600;
},
{
anchors = (
{
name = bottom;
pos = (264,0);
},
{
name = top;
pos = (514,686);
}
);
hints = (
{
horizontal = 1;
origin = (0,22);
target = (0,9);
type = Stem;
},
{
horizontal = 1;
origin = (0,5);
target = down;
type = TopGhost;
},
{
origin = (0,19);
target = (0,12);
type = Stem;
}
);
layerId = "56C8974D-A8FC-4FE2-AFFA-564C2D1D7F2D";
shapes = (
{
closed = 1;
nodes = (
(267,-10,ls),
(389,-10,o),
(483,52,o),
(501,172,cs),
(573,686,l),
(452,686,l),
(381,178,ls),
(372,114,o),
(324,83,o),
(271,83,cs),
(224,83,o),
(188,108,o),
(188,160,cs),
(188,166,o),
(189,184,o),
(194,213,c),
(81,213,l),
(74,170,o),
(73,156,o),
(73,145,cs),
(73,43,o),
(142,-10,o),
(250,-10,cs)
);
}
);
width = 600;
}
);
note = J;
unicode = 74;
},
{
color = 4;
glyphname = K;
layers = (
{
anchors = (
{
name = bottom;
pos = (284,0);
},
{
name = top;
pos = (361,686);
}
);
background = {
shapes = (
{
closed = 1;
nodes = (
(107,0,l),
(137,208,l),
(279,346,l),
(474,0,l),
(542,0,l),
(322,387,l),
(631,686,l),
(567,686,l),
(147,279,l),
(204,686,l),
(150,686,l),
(53,0,l)
);
}
);
};
hints = (
{
horizontal = 1;
origin = (0,12);
target = up;
type = BottomGhost;
},
{
horizontal = 1;
origin = (0,11);
target = down;
type = TopGhost;
}
);
layerId = "1E610136-9B4E-49B0-BDBC-BF9A1AAA9445";
shapes = (
{
closed = 1;
nodes = (
(108,0,l),
(137,208,l),
(280,346,l),
(475,0,l),
(543,0,l),
(322,387,l),
(632,686,l),
(561,686,l),
(123,263,l),
(144,256,l),
(205,686,l),
(151,686,l),
(54,0,l)
);
}
);
width = 600;
},
{
anchors = (
{
name = bottom;
pos = (274,0);
},
{
name = top;
pos = (361,686);
}
);
background = {
shapes = (
{
closed = 1;
nodes = (
(220,0,l),
(242,152,l),
(335,248,l),
(419,0,l),
(654,0,l),
(497,411,l),
(745,686,l),
(513,686,l),
(279,415,l),
(317,686,l),
(113,686,l),
(16,0,l)
);
}
);
};
hints = (
{
horizontal = 1;
origin = (0,12);
target = up;
type = BottomGhost;
},
{
horizontal = 1;
origin = (0,11);
target = down;
type = TopGhost;
}
);
layerId = "C8A46E0E-B991-4CFC-ABD9-554F5B3B1198";
shapes = (
{
closed = 1;
nodes = (
(204,0,l),
(225,152,l),
(263,217,l),
(340,0,l),
(564,0,l),
(443,338,l),
(647,686,l),
(427,686,l),
(200,300,l),
(244,289,l),
(301,686,l),
(101,686,l),
(4,0,l)
);
}
);
width = 600;
},
{
anchors = (
{
name = bottom;
pos = (284,0);
},
{
name = top;
pos = (361,686);
}
);
hints = (
{
horizontal = 1;
origin = (0,12);
target = up;
type = BottomGhost;
},
{
horizontal = 1;
origin = (0,11);
target = down;
type = TopGhost;
}
);
layerId = "56C8974D-A8FC-4FE2-AFFA-564C2D1D7F2D";
shapes = (
{
closed = 1;
nodes = (
(151,0,l),
(176,183,l),
(272,289,l),
(415,0,l),
(552,0,l),
(376,365,l),
(639,686,l),
(501,686,l),
(157,279,l),
(188,271,l),
(248,686,l),
(129,686,l),
(32,0,l)
);
}
);
width = 600;
}
);
note = K;
unicode = 75;
},
{
color = 4;
glyphname = L;
layers = (
{
anchors = (
{
name = bottom;
pos = (289,0);
},
{
name = center;
pos = (183,350);
},
{
name = top;
pos = (208,686);
},
{
name = topright;
pos = (447,511);
}
);
background = {
anchors = (
{
name = bottom;
pos = (259,0);
},
{
name = center;
pos = (153,350);
},
{
name = top;
pos = (178,686);
},
{
name = topright;
pos = (417,511);
}
);
shapes = (
{
closed = 1;
nodes = (
(457,0,l),
(457,48,l),
(115,48,l),
(205,686,l),
(151,686,l),
(54,0,l)
);
}
);
};
hints = (
{
horizontal = 1;
place = (0, 48);
place = (0, 48);
type = Stem;
},
{
horizontal = 1;
place = (686, -20);
target = down;
type = TopGhost;
},
{
place = (71, 403);
place = (71, 403);
type = Stem;
}
);
layerId = "1E610136-9B4E-49B0-BDBC-BF9A1AAA9445";
shapes = (
{
closed = 1;
nodes = (
(487,0,l),
(487,48,l),
(145,48,l),
(235,686,l),
(181,686,l),
(84,0,l)
);
}
);
width = 600;
},
{
anchors = (
{
name = bottom;
pos = (284,0);
},
{
name = center;
pos = (229,350);
},
{
name = top;
pos = (237,686);
},
{
name = topright;
pos = (382,511);
}
);
background = {
anchors = (
{
name = bottom;
pos = (254,0);
},
{
name = center;
pos = (199,350);
},
{
name = top;
pos = (207,686);
},
{
name = topright;
pos = (352,511);
}
);
shapes = (
{
closed = 1;
nodes = (
(485,0,l),
(485,168,l),
(240,168,l),
(313,686,l),
(101,686,l),
(4,0,l)
);
}
);
};
hints = (
{
horizontal = 1;
place = (0, 168);
place = (0, 168);
type = Stem;
},
{
horizontal = 1;
place = (686, -20);
target = down;
type = TopGhost;
},
{
place = (16, 481);
place = (16, 481);
type = Stem;
}
);
layerId = "C8A46E0E-B991-4CFC-ABD9-554F5B3B1198";
shapes = (
{
closed = 1;
nodes = (
(515,0,l),
(515,168,l),
(270,168,l),
(343,686,l),
(131,686,l),
(34,0,l)
);
}
);
width = 600;
},
{
anchors = (
{
name = bottom;
pos = (287,0);
},
{
name = center;
pos = (203,350);
},
{
name = top;
pos = (221,686);
},
{
name = topright;
pos = (418,511);
}
);
background = {
anchors = (
{
name = bottom;
pos = (257,0);
},
{
name = center;
pos = (173,350);
},
{
name = top;
pos = (191,686);
},
{
name = topright;
pos = (388,511);
}
);
shapes = (
{
closed = 1;
nodes = (
(469,0,l),
(469,101,l),
(171,101,l),
(253,686,l),
(129,686,l),
(32,0,l)
);
}
);
};
hints = (
{
horizontal = 1;
place = (0, 101);
place = (0, 101);
type = Stem;
},
{
horizontal = 1;
place = (686, -20);
target = down;
type = TopGhost;
},
{
place = (47, 438);
place = (47, 438);
type = Stem;
}
);
layerId = "56C8974D-A8FC-4FE2-AFFA-564C2D1D7F2D";
shapes = (
{
closed = 1;
nodes = (
(499,0,l),
(499,101,l),
(201,101,l),
(283,686,l),
(159,686,l),
(62,0,l)
);
}
);
width = 600;
}
);
note = L;
unicode = 76;
},
{
color = 4;
glyphname = LJ;
layers = (
{
background = {
shapes = (
{
closed = 1;
nodes = (
(276,-186,ls),
(384,-186,o),
(458,-118,o),
(474,-4,cs),
(571,686,l),
(517,686,l),
(420,-4,ls),
(408,-88,o),
(357,-138,o),
(280,-138,cs),
(207,-138,o),
(167,-107,o),
(175,-54,cs),
(176,-41,l),
(126,-41,l),
(124,-60,ls),
(113,-139,o),
(168,-186,o),
(272,-186,cs)
);
},
{
closed = 1;
nodes = (
(350,0,l),
(345,48,l),
(115,48,l),
(205,686,l),
(151,686,l),
(54,0,l)
);
}
);
};
hints = (
{
horizontal = 1;
origin = (0,18);
target = (0,9);
type = Stem;
},
{
horizontal = 1;
origin = (1,5);
target = (1,2);
type = Stem;
},
{
horizontal = 1;
origin = (1,4);
target = down;
type = TopGhost;
}
);
layerId = "1E610136-9B4E-49B0-BDBC-BF9A1AAA9445";
shapes = (
{
closed = 1;
nodes = (
(276,-186,ls),
(384,-186,o),
(458,-118,o),
(474,-4,cs),
(571,686,l),
(517,686,l),
(420,-4,ls),
(408,-91,o),
(357,-138,o),
(280,-138,cs),
(200,-138,o),
(170,-115,o),
(175,-54,cs),
(176,-41,l),
(126,-41,l),
(124,-60,ls),
(116,-139,o),
(165,-186,o),
(272,-186,cs)
);
},
{
closed = 1;
nodes = (
(350,0,l),
(345,48,l),
(115,48,l),
(205,686,l),
(151,686,l),
(54,0,l)
);
}
);
width = 600;
},
{
background = {
shapes = (
{
closed = 1;
nodes = (
(288,-187,ls),
(410,-187,o),
(505,-134,o),
(520,-31,cs),
(621,686,l),
(416,686,l),
(315,-31,ls),
(312,-47,o),
(292,-57,o),
(269,-57,cs),
(242,-57,o),
(229,-47,o),
(232,-31,cs),
(233,-19,l),
(40,-19,l),
(39,-31,ls),
(25,-132,o),
(98,-187,o),
(227,-187,cs)
);
},
{
closed = 1;
nodes = (
(300,0,l),
(304,168,l),
(238,168,l),
(311,686,l),
(101,686,l),
(4,0,l)
);
}
);
};
hints = (
{
horizontal = 1;
origin = (0,18);
target = (0,14);
type = Stem;
},
{
horizontal = 1;
origin = (1,5);
target = (1,2);
type = Stem;
},
{
horizontal = 1;
origin = (1,4);
target = down;
type = TopGhost;
},
{
horizontal = 1;
origin = (0,18);
target = (0,9);
type = Stem;
}
);
layerId = "C8A46E0E-B991-4CFC-ABD9-554F5B3B1198";
shapes = (
{
closed = 1;
nodes = (
(288,-187,ls),
(410,-187,o),
(505,-134,o),
(520,-31,cs),
(621,686,l),
(416,686,l),
(315,-31,ls),
(312,-53,o),
(292,-57,o),
(269,-57,cs),
(242,-57,o),
(230,-47,o),
(232,-28,cs),
(233,-19,l),
(40,-19,l),
(39,-31,ls),
(31,-132,o),
(88,-187,o),
(227,-187,cs)
);
},
{
closed = 1;
nodes = (
(300,0,l),
(304,168,l),
(238,168,l),
(311,686,l),
(101,686,l),
(4,0,l)
);
}
);
width = 600;
},
{
hints = (
{
horizontal = 1;
origin = (0,18);
target = (0,9);
type = Stem;
},
{
horizontal = 1;
origin = (1,5);
target = (1,2);
type = Stem;
},
{
horizontal = 1;
origin = (1,4);
target = down;
type = TopGhost;
}
);
layerId = "56C8974D-A8FC-4FE2-AFFA-564C2D1D7F2D";
shapes = (
{
closed = 1;
nodes = (
(281,-186,ls),
(396,-186,o),
(479,-125,o),
(494,-16,cs),
(593,686,l),
(472,686,l),
(373,-16,ls),
(365,-74,o),
(328,-102,o),
(275,-102,cs),
(219,-102,o),
(197,-85,o),
(200,-42,cs),
(201,-31,l),
(88,-31,l),
(86,-47,ls),
(78,-136,o),
(131,-186,o),
(252,-186,cs)
);
},
{
closed = 1;
nodes = (
(328,0,l),
(327,101,l),
(170,101,l),
(252,686,l),
(129,686,l),
(32,0,l)
);
}
);
width = 600;
}
);
note = uni01C7;
unicode = 455;
},
{
color = 4;
glyphname = Lj;
layers = (
{
hints = (
{
horizontal = 1;
origin = (1,15);
target = (1,8);
type = Stem;
},
{
horizontal = 1;
origin = (0,5);
target = (0,2);
type = Stem;
},
{
horizontal = 1;
origin = (1,4);
target = down;
type = TopGhost;
},
{
horizontal = 1;
origin = (2,2);
target = (2,3);
type = Stem;
},
{
horizontal = 1;
origin = (0,4);
target = down;
type = TopGhost;
}
);
layerId = "1E610136-9B4E-49B0-BDBC-BF9A1AAA9445";
shapes = (
{
closed = 1;
nodes = (
(439,0,l),
(434,48,l),
(115,48,l),
(205,686,l),
(151,686,l),
(54,0,l)
);
},
{
closed = 1;
nodes = (
(376,-186,o),
(440,-156,o),
(456,-45,cs),
(534,511,l),
(483,511,l),
(405,-43,ls),
(393,-128,o),
(342,-140,o),
(294,-140,cs),
(264,-140,o),
(229,-130,o),
(200,-114,c),
(194,-159,l),
(217,-175,o),
(256,-186,o),
(294,-186,cs)
);
},
{
closed = 1;
nodes = (
(569,625,l),
(582,720,l),
(482,720,l),
(469,625,l)
);
}
);
width = 600;
},
{
background = {
shapes = (
{
closed = 1;
nodes = (
(497,0,l),
(497,168,l),
(252,168,l),
(325,686,l),
(113,686,l),
(16,0,l)
);
},
{
closed = 1;
nodes = (
(647,-187,o),
(728,-134,o),
(743,-26,cs),
(819,511,l),
(620,511,l),
(549,4,ls),
(541,-55,o),
(512,-65,o),
(484,-65,cs),
(469,-65,o),
(439,-60,o),
(424,-53,c),
(408,-165,l),
(440,-178,o),
(503,-187,o),
(538,-187,cs)
);
},
{
closed = 1;
nodes = (
(828,577,l),
(848,720,l),
(649,720,l),
(629,577,l)
);
}
);
};
hints = (
{
horizontal = 1;
origin = (1,15);
target = (1,8);
type = Stem;
},
{
horizontal = 1;
origin = (0,5);
target = (0,2);
type = Stem;
},
{
horizontal = 1;
origin = (1,4);
target = down;
type = TopGhost;
},
{
horizontal = 1;
origin = (2,2);
target = (2,3);
type = Stem;
},
{
horizontal = 1;
origin = (0,4);
target = (2,3);
type = Stem;
}
);
layerId = "C8A46E0E-B991-4CFC-ABD9-554F5B3B1198";
shapes = (
{
closed = 1;
nodes = (
(365,0,l),
(369,168,l),
(240,168,l),
(313,686,l),
(101,686,l),
(4,0,l)
);
},
{
closed = 1;
nodes = (
(407,-187,o),
(491,-134,o),
(513,20,cs),
(582,511,l),
(385,511,l),
(313,0,ls),
(306,-49,o),
(274,-55,o),
(237,-55,cs),
(197,-55,o),
(162,-40,o),
(148,-33,c),
(131,-155,l),
(165,-175,o),
(222,-187,o),
(281,-187,cs)
);
},
{
closed = 1;
nodes = (
(592,580,l),
(611,720,l),
(414,720,l),
(395,580,l)
);
}
);
width = 600;
},
{
hints = (
{
horizontal = 1;
origin = (1,15);
target = (1,8);
type = Stem;
},
{
horizontal = 1;
origin = (0,5);
target = (0,2);
type = Stem;
},
{
horizontal = 1;
origin = (1,4);
target = down;
type = TopGhost;
},
{
horizontal = 1;
origin = (2,2);
target = (2,3);
type = Stem;
},
{
horizontal = 1;
origin = (0,4);
target = down;
type = TopGhost;
}
);
layerId = "56C8974D-A8FC-4FE2-AFFA-564C2D1D7F2D";
shapes = (
{
closed = 1;
nodes = (
(406,0,l),
(405,101,l),
(171,101,l),
(253,686,l),
(129,686,l),
(32,0,l)
);
},
{
closed = 1;
nodes = (
(390,-186,o),
(463,-146,o),
(481,-16,cs),
(555,511,l),
(439,511,l),
(364,-24,ls),
(354,-93,o),
(312,-102,o),
(269,-102,cs),
(234,-102,o),
(199,-90,o),
(177,-78,c),
(166,-157,l),
(194,-175,o),
(241,-186,o),
(288,-186,cs)
);
},
{
closed = 1;
nodes = (
(579,605,l),
(595,720,l),
(452,720,l),
(436,605,l)
);
}
);
width = 600;
}
);
note = uni01C8;
unicode = 456;
},
{
color = 1;
glyphname = Lslash;
layers = (
{
background = {
shapes = (
{
closed = 1;
nodes = (
(474,0,l),
(474,48,l),
(132,48,l),
(174,343,l),
(329,416,l),
(335,460,l),
(180,387,l),
(222,686,l),
(168,686,l),
(122,360,l),
(35,319,l),
(29,275,l),
(116,316,l),
(71,0,l)
);
}
);
};
layerId = "1E610136-9B4E-49B0-BDBC-BF9A1AAA9445";
shapes = (
{
ref = L;
},
{
pos = (-117,-37);
ref = slashshortcomb.cap;
}
);
width = 600;
},
{
background = {
shapes = (
{
closed = 1;
nodes = (
(497,0,l),
(497,168,l),
(252,168,l),
(284,396,l),
(387,444,l),
(401,549,l),
(299,501,l),
(325,686,l),
(113,686,l),
(72,396,l),
(6,365,l),
(-8,260,l),
(57,290,l),
(16,0,l)
);
}
);
};
layerId = "C8A46E0E-B991-4CFC-ABD9-554F5B3B1198";
shapes = (
{
ref = L;
},
{
pos = (-72,-50);
ref = slashshortcomb.cap;
}
);
width = 600;
},
{
layerId = "56C8974D-A8FC-4FE2-AFFA-564C2D1D7F2D";
shapes = (
{
alignment = -1;
ref = L;
},
{
alignment = -1;
pos = (-127,-43);
ref = slashshortcomb.cap;
}
);
width = 600;
}
);
note = Lslash;
unicode = 321;
},
{
color = 4;
glyphname = M;
layers = (
{
anchors = (
{
name = bottom;
pos = (264,0);
},
{
name = top;
pos = (361,686);
}
);
background = {
shapes = (
{
closed = 1;
nodes = (
(119,0,l),
(207,625,l),
(212,625,l),
(397,0,l),
(448,0,l),
(811,625,l),
(816,625,l),
(728,0,l),
(782,0,l),
(879,686,l),
(794,686,l),
(438,70,l),
(434,70,l),
(254,686,l),
(168,686,l),
(71,0,l)
);
}
);
};
hints = (
{
horizontal = 1;
origin = (0,15);
target = (0,12);
type = Stem;
},
{
horizontal = 1;
origin = (0,14);
target = (0,1);
type = Stem;
}
);
layerId = "1E610136-9B4E-49B0-BDBC-BF9A1AAA9445";
shapes = (
{
closed = 1;
nodes = (
(93,0,l),
(181,625,l),
(186,625,l),
(224,0,l),
(301,0,l),
(518,625,l),
(523,625,l),
(435,0,l),
(484,0,l),
(581,686,l),
(492,686,l),
(273,59,l),
(268,59,l),
(232,686,l),
(141,686,l),
(44,0,l)
);
}
);
width = 600;
},
{
anchors = (
{
name = bottom;
pos = (264,0);
},
{
name = top;
pos = (361,686);
}
);
background = {
shapes = (
{
closed = 1;
nodes = (
(207,0,l),
(269,440,l),
(274,440,l),
(331,0,l),
(572,0,l),
(754,440,l),
(758,440,l),
(696,0,l),
(906,0,l),
(1003,686,l),
(657,686,l),
(508,320,l),
(504,320,l),
(457,686,l),
(113,686,l),
(16,0,l)
);
}
);
};
hints = (
{
horizontal = 1;
origin = (0,15);
target = up;
type = BottomGhost;
},
{
horizontal = 1;
origin = (0,14);
target = down;
type = TopGhost;
}
);
layerId = "C8A46E0E-B991-4CFC-ABD9-554F5B3B1198";
shapes = (
{
closed = 1;
nodes = (
(148,0,l),
(210,440,l),
(214,440,l),
(196,0,l),
(320,0,l),
(426,440,l),
(430,440,l),
(368,0,l),
(544,0,l),
(641,686,l),
(397,686,l),
(311,320,l),
(307,320,l),
(325,686,l),
(81,686,l),
(-16,0,l)
);
}
);
width = 600;
},
{
anchors = (
{
name = bottom;
pos = (264,0);
},
{
name = top;
pos = (361,686);
}
);
hints = (
{
horizontal = 1;
origin = (0,15);
target = (0,12);
type = Stem;
},
{
horizontal = 1;
origin = (0,14);
target = (0,1);
type = Stem;
}
);
layerId = "56C8974D-A8FC-4FE2-AFFA-564C2D1D7F2D";
shapes = (
{
closed = 1;
nodes = (
(117,0,l),
(194,543,l),
(198,543,l),
(212,0,l),
(309,0,l),
(477,543,l),
(482,543,l),
(405,0,l),
(511,0,l),
(608,686,l),
(450,686,l),
(290,175,l),
(285,175,l),
(273,686,l),
(114,686,l),
(17,0,l)
);
}
);
width = 600;
}
);
note = M;
unicode = 77;
},
{
color = 4;
glyphname = N;
layers = (
{
anchors = (
{
name = bottom;
pos = (264,0);
},
{
name = top;
pos = (361,686);
}
);
background = {
shapes = (
{
closed = 1;
nodes = (
(119,0,l),
(201,585,l),
(205,585,l),
(228,537,l),
(502,0,l),
(550,0,l),
(647,686,l),
(599,686,l),
(517,101,l),
(513,101,l),
(493,143,l),
(214,686,l),
(168,686,l),
(71,0,l)
);
}
);
};
hints = (
{
horizontal = 1;
origin = (0,13);
target = up;
type = BottomGhost;
},
{
horizontal = 1;
origin = (0,12);
target = down;
type = TopGhost;
}
);
layerId = "1E610136-9B4E-49B0-BDBC-BF9A1AAA9445";
shapes = (
{
closed = 1;
nodes = (
(106,0,l),
(188,586,l),
(193,586,l),
(219,514,l),
(416,0,l),
(474,0,l),
(571,686,l),
(519,686,l),
(436,100,l),
(431,100,l),
(400,188,l),
(209,686,l),
(151,686,l),
(54,0,l)
);
}
);
width = 600;
},
{
anchors = (
{
name = bottom;
pos = (264,0);
},
{
name = top;
pos = (361,686);
}
);
background = {
shapes = (
{
closed = 1;
nodes = (
(209,0,l),
(251,304,l),
(255,304,l),
(282,246,l),
(418,0,l),
(598,0,l),
(695,686,l),
(501,686,l),
(458,376,l),
(455,375,l),
(429,431,l),
(289,686,l),
(113,686,l),
(16,0,l)
);
}
);
};
hints = (
{
horizontal = 1;
origin = (0,13);
target = up;
type = BottomGhost;
},
{
horizontal = 1;
origin = (0,12);
target = down;
type = TopGhost;
}
);
layerId = "C8A46E0E-B991-4CFC-ABD9-554F5B3B1198";
shapes = (
{
closed = 1;
nodes = (
(194,0,l),
(237,305,l),
(242,306,l),
(256,244,l),
(330,0,l),
(524,0,l),
(621,686,l),
(431,686,l),
(387,373,l),
(381,372,l),
(367,436,l),
(294,686,l),
(101,686,l),
(4,0,l)
);
}
);
width = 600;
},
{
anchors = (
{
name = bottom;
pos = (264,0);
},
{
name = top;
pos = (361,686);
}
);
hints = (
{
horizontal = 1;
origin = (0,13);
target = up;
type = BottomGhost;
},
{
horizontal = 1;
origin = (0,12);
target = down;
type = TopGhost;
}
);
layerId = "56C8974D-A8FC-4FE2-AFFA-564C2D1D7F2D";
shapes = (
{
closed = 1;
nodes = (
(145,0,l),
(210,461,l),
(215,462,l),
(235,394,l),
(378,0,l),
(496,0,l),
(593,686,l),
(480,686,l),
(414,221,l),
(409,221,l),
(385,298,l),
(247,686,l),
(129,686,l),
(32,0,l)
);
}
);
width = 600;
}
);
note = N;
unicode = 78;
},
{
color = 4;
glyphname = NJ;
layers = (
{
background = {
shapes = (
{
closed = 1;
nodes = (
(276,-186,ls),
(384,-186,o),
(458,-118,o),
(474,-4,cs),
(571,686,l),
(517,686,l),
(420,-4,ls),
(408,-88,o),
(357,-138,o),
(280,-138,cs),
(207,-138,o),
(171,-107,o),
(175,-54,cs),
(176,-41,l),
(126,-41,l),
(124,-60,ls),
(116,-139,o),
(168,-186,o),
(272,-186,cs)
);
},
{
closed = 1;
nodes = (
(106,0,l),
(188,586,l),
(191,586,l),
(202,464,l),
(280,0,l),
(344,0,l),
(441,686,l),
(389,686,l),
(306,100,l),
(303,100,l),
(292,238,l),
(215,686,l),
(151,686,l),
(54,0,l)
);
}
);
};
hints = (
{
horizontal = 1;
origin = (0,18);
target = (0,9);
type = Stem;
},
{
horizontal = 1;
origin = (1,13);
target = up;
type = BottomGhost;
},
{
horizontal = 1;
origin = (1,12);
target = down;
type = TopGhost;
}
);
layerId = "1E610136-9B4E-49B0-BDBC-BF9A1AAA9445";
shapes = (
{
closed = 1;
nodes = (
(276,-186,ls),
(389,-186,o),
(457,-124,o),
(474,-4,cs),
(571,686,l),
(517,686,l),
(420,-4,ls),
(407,-92,o),
(359,-138,o),
(280,-138,cs),
(197,-138,o),
(171,-107,o),
(175,-54,cs),
(176,-41,l),
(126,-41,l),
(124,-60,ls),
(116,-139,o),
(168,-186,o),
(272,-186,cs)
);
},
{
closed = 1;
nodes = (
(106,0,l),
(188,586,l),
(191,586,l),
(202,464,l),
(280,0,l),
(344,0,l),
(441,686,l),
(389,686,l),
(306,100,l),
(303,100,l),
(292,238,l),
(215,686,l),
(151,686,l),
(54,0,l)
);
}
);
width = 600;
},
{
background = {
shapes = (
{
closed = 1;
nodes = (
(308,-187,ls),
(430,-187,o),
(525,-134,o),
(540,-31,cs),
(641,686,l),
(456,686,l),
(355,-31,ls),
(352,-47,o),
(332,-57,o),
(309,-57,cs),
(282,-57,o),
(269,-47,o),
(272,-31,cs),
(273,-19,l),
(80,-19,l),
(79,-31,ls),
(65,-132,o),
(130,-187,o),
(247,-187,cs)
);
},
{
closed = 1;
nodes = (
(144,0,l),
(181,265,l),
(186,266,l),
(187,204,l),
(190,0,l),
(324,0,l),
(421,686,l),
(261,686,l),
(222,413,l),
(217,412,l),
(217,476,l),
(214,686,l),
(81,686,l),
(-16,0,l)
);
}
);
};
hints = (
{
horizontal = 1;
origin = (1,13);
target = up;
type = BottomGhost;
},
{
horizontal = 1;
origin = (1,12);
target = down;
type = TopGhost;
},
{
horizontal = 1;
origin = (0,9);
target = (0,18);
type = Stem;
}
);
layerId = "C8A46E0E-B991-4CFC-ABD9-554F5B3B1198";
shapes = (
{
closed = 1;
nodes = (
(308,-187,ls),
(430,-187,o),
(525,-134,o),
(540,-31,cs),
(641,686,l),
(456,686,l),
(356,-27,ls),
(352,-53,o),
(332,-57,o),
(309,-57,cs),
(282,-57,o),
(270,-47,o),
(272,-29,cs),
(273,-19,l),
(80,-19,l),
(79,-31,ls),
(71,-132,o),
(120,-187,o),
(257,-187,cs)
);
},
{
closed = 1;
nodes = (
(144,0,l),
(181,265,l),
(186,266,l),
(187,204,l),
(190,0,l),
(324,0,l),
(421,686,l),
(261,686,l),
(222,413,l),
(217,412,l),
(217,476,l),
(214,686,l),
(81,686,l),
(-16,0,l)
);
}
);
width = 600;
},
{
hints = (
{
horizontal = 1;
origin = (0,18);
target = (0,9);
type = Stem;
},
{
horizontal = 1;
origin = (1,13);
target = up;
type = BottomGhost;
},
{
horizontal = 1;
origin = (1,12);
target = down;
type = TopGhost;
}
);
layerId = "56C8974D-A8FC-4FE2-AFFA-564C2D1D7F2D";
shapes = (
{
closed = 1;
nodes = (
(290,-186,ls),
(407,-186,o),
(487,-128,o),
(503,-16,cs),
(602,686,l),
(490,686,l),
(392,-14,ls),
(383,-75,o),
(347,-102,o),
(293,-102,cs),
(235,-102,o),
(215,-80,o),
(218,-43,cs),
(219,-31,l),
(106,-31,l),
(104,-47,ls),
(96,-136,o),
(147,-186,o),
(265,-186,cs)
);
},
{
closed = 1;
nodes = (
(123,0,l),
(185,443,l),
(189,444,l),
(195,348,l),
(240,0,l),
(335,0,l),
(432,686,l),
(332,686,l),
(269,239,l),
(265,239,l),
(259,344,l),
(215,686,l),
(120,686,l),
(23,0,l)
);
}
);
width = 600;
}
);
note = uni01CA;
unicode = 458;
},
{
color = 4;
glyphname = Nhookleft;
layers = (
{
background = {
shapes = (
{
closed = 1;
nodes = (
(49,-186,o),
(92,-152,o),
(103,-75,cs),
(196,585,l),
(200,585,l),
(223,537,l),
(497,0,l),
(545,0,l),
(642,686,l),
(594,686,l),
(512,101,l),
(508,101,l),
(488,143,l),
(209,686,l),
(163,686,l),
(56,-73,ls),
(48,-132,o),
(16,-140,o),
(-10,-140,cs),
(-25,-140,o),
(-54,-131,o),
(-69,-124,c),
(-76,-169,l),
(-60,-179,o),
(-35,-186,o),
(-10,-186,cs)
);
}
);
};
hints = (
{
horizontal = 1;
origin = (0,25);
target = (0,18);
type = Stem;
},
{
horizontal = 1;
origin = (0,6);
target = up;
type = BottomGhost;
},
{
horizontal = 1;
origin = (0,14);
target = down;
type = TopGhost;
}
);
layerId = "1E610136-9B4E-49B0-BDBC-BF9A1AAA9445";
shapes = (
{
closed = 1;
nodes = (
(44,-186,o),
(86,-148,o),
(96,-75,cs),
(188,586,l),
(193,586,l),
(219,514,l),
(416,0,l),
(474,0,l),
(571,686,l),
(519,686,l),
(436,100,l),
(431,100,l),
(400,188,l),
(209,686,l),
(151,686,l),
(44,-73,ls),
(36,-132,o),
(4,-140,o),
(-24,-140,cs),
(-45,-140,o),
(-67,-134,o),
(-83,-124,c),
(-90,-169,l),
(-74,-179,o),
(-49,-186,o),
(-24,-186,cs)
);
}
);
width = 600;
},
{
background = {
shapes = (
{
closed = 1;
nodes = (
(115,-187,o),
(190,-134,o),
(205,-26,cs),
(252,304,l),
(255,304,l),
(282,246,l),
(418,0,l),
(598,0,l),
(695,686,l),
(501,686,l),
(458,376,l),
(455,375,l),
(429,431,l),
(289,686,l),
(113,686,l),
(16,0,ls),
(8,-55,o),
(-21,-65,o),
(-48,-65,cs),
(-63,-65,o),
(-93,-60,o),
(-108,-53,c),
(-124,-165,l),
(-92,-178,o),
(-29,-187,o),
(6,-187,cs)
);
}
);
};
hints = (
{
horizontal = 1;
origin = (0,25);
target = (0,18);
type = Stem;
},
{
horizontal = 1;
origin = (0,6);
target = up;
type = BottomGhost;
},
{
horizontal = 1;
origin = (0,14);
target = down;
type = TopGhost;
},
{
horizontal = 1;
origin = (0,25);
target = up;
type = BottomGhost;
}
);
layerId = "C8A46E0E-B991-4CFC-ABD9-554F5B3B1198";
shapes = (
{
closed = 1;
nodes = (
(106,-187,o),
(175,-132,o),
(190,-26,cs),
(237,305,l),
(242,306,l),
(256,244,l),
(330,0,l),
(524,0,l),
(621,686,l),
(431,686,l),
(387,373,l),
(381,372,l),
(367,436,l),
(294,686,l),
(101,686,l),
(5,4,ls),
(-4,-55,o),
(-34,-65,o),
(-62,-65,cs),
(-85,-65,o),
(-110,-59,o),
(-122,-53,c),
(-138,-165,l),
(-110,-180,o),
(-48,-187,o),
(-12,-187,cs)
);
}
);
width = 600;
},
{
hints = (
{
horizontal = 1;
origin = (0,25);
target = (0,18);
type = Stem;
},
{
horizontal = 1;
origin = (0,6);
target = up;
type = BottomGhost;
},
{
horizontal = 1;
origin = (0,14);
target = down;
type = TopGhost;
}
);
layerId = "56C8974D-A8FC-4FE2-AFFA-564C2D1D7F2D";
shapes = (
{
closed = 1;
nodes = (
(72,-186,o),
(126,-141,o),
(138,-53,cs),
(210,461,l),
(215,462,l),
(235,394,l),
(378,0,l),
(496,0,l),
(593,686,l),
(480,686,l),
(414,221,l),
(409,221,l),
(385,298,l),
(247,686,l),
(129,686,l),
(27,-39,ls),
(18,-98,o),
(-13,-107,o),
(-41,-107,cs),
(-63,-107,o),
(-86,-101,o),
(-100,-92,c),
(-111,-167,l),
(-90,-179,o),
(-49,-186,o),
(-19,-186,cs)
);
}
);
width = 600;
}
);
note = uni019D;
unicode = 413;
},
{
color = 4;
glyphname = Nj;
layers = (
{
hints = (
{
horizontal = 1;
origin = (1,15);
target = (1,8);
type = Stem;
},
{
horizontal = 1;
origin = (0,13);
target = up;
type = BottomGhost;
},
{
horizontal = 1;
origin = (1,4);
target = down;
type = TopGhost;
},
{
horizontal = 1;
origin = (2,2);
target = (2,3);
type = Stem;
},
{
horizontal = 1;
origin = (0,12);
target = down;
type = TopGhost;
}
);
layerId = "1E610136-9B4E-49B0-BDBC-BF9A1AAA9445";
shapes = (
{
closed = 1;
nodes = (
(106,0,l),
(188,586,l),
(191,586,l),
(202,464,l),
(278,0,l),
(344,0,l),
(441,686,l),
(389,686,l),
(306,100,l),
(303,100,l),
(292,238,l),
(218,686,l),
(151,686,l),
(54,0,l)
);
},
{
closed = 1;
nodes = (
(409,-186,o),
(465,-138,o),
(478,-45,cs),
(556,511,l),
(505,511,l),
(427,-43,ls),
(415,-128,o),
(364,-140,o),
(316,-140,cs),
(286,-140,o),
(251,-130,o),
(222,-114,c),
(216,-159,l),
(239,-175,o),
(278,-186,o),
(316,-186,cs)
);
},
{
closed = 1;
nodes = (
(595,625,l),
(608,720,l),
(508,720,l),
(495,625,l)
);
}
);
width = 600;
},
{
background = {
shapes = (
{
closed = 1;
nodes = (
(209,0,l),
(251,304,l),
(255,304,l),
(282,246,l),
(418,0,l),
(598,0,l),
(695,686,l),
(501,686,l),
(458,376,l),
(455,375,l),
(429,431,l),
(289,686,l),
(113,686,l),
(16,0,l)
);
},
{
closed = 1;
nodes = (
(803,-187,o),
(884,-134,o),
(899,-26,cs),
(975,511,l),
(776,511,l),
(705,4,ls),
(697,-55,o),
(668,-65,o),
(640,-65,cs),
(625,-65,o),
(595,-60,o),
(580,-53,c),
(564,-165,l),
(596,-178,o),
(659,-187,o),
(694,-187,cs)
);
},
{
closed = 1;
nodes = (
(984,577,l),
(1004,720,l),
(805,720,l),
(785,577,l)
);
}
);
};
hints = (
{
horizontal = 1;
origin = (1,15);
target = (1,8);
type = Stem;
},
{
horizontal = 1;
origin = (0,13);
target = up;
type = BottomGhost;
},
{
horizontal = 1;
origin = (1,4);
target = down;
type = TopGhost;
},
{
horizontal = 1;
origin = (2,2);
target = (2,3);
type = Stem;
},
{
horizontal = 1;
origin = (0,12);
target = down;
type = TopGhost;
}
);
layerId = "C8A46E0E-B991-4CFC-ABD9-554F5B3B1198";
shapes = (
{
closed = 1;
nodes = (
(164,0,l),
(201,265,l),
(206,266,l),
(207,204,l),
(210,0,l),
(344,0,l),
(441,686,l),
(281,686,l),
(242,413,l),
(237,412,l),
(237,476,l),
(234,686,l),
(101,686,l),
(4,0,l)
);
},
{
closed = 1;
nodes = (
(438,-187,o),
(518,-116,o),
(537,20,cs),
(606,511,l),
(446,511,l),
(377,20,ls),
(370,-29,o),
(343,-55,o),
(298,-55,cs),
(258,-55,o),
(223,-40,o),
(209,-33,c),
(192,-155,l),
(226,-175,o),
(283,-187,o),
(305,-187,cs)
);
},
{
closed = 1;
nodes = (
(616,580,l),
(635,720,l),
(475,720,l),
(456,580,l)
);
}
);
width = 600;
},
{
hints = (
{
horizontal = 1;
origin = (1,15);
target = (1,8);
type = Stem;
},
{
horizontal = 1;
origin = (0,13);
target = up;
type = BottomGhost;
},
{
horizontal = 1;
origin = (1,4);
target = down;
type = TopGhost;
},
{
horizontal = 1;
origin = (2,2);
target = (2,3);
type = Stem;
},
{
horizontal = 1;
origin = (0,12);
target = down;
type = TopGhost;
}
);
layerId = "56C8974D-A8FC-4FE2-AFFA-564C2D1D7F2D";
shapes = (
{
closed = 1;
nodes = (
(132,0,l),
(194,443,l),
(198,444,l),
(204,348,l),
(248,0,l),
(344,0,l),
(441,686,l),
(341,686,l),
(278,239,l),
(274,239,l),
(268,344,l),
(225,686,l),
(129,686,l),
(32,0,l)
);
},
{
closed = 1;
nodes = (
(422,-186,o),
(489,-128,o),
(504,-16,cs),
(578,511,l),
(479,511,l),
(405,-15,ls),
(395,-84,o),
(355,-102,o),
(308,-102,cs),
(274,-102,o),
(239,-90,o),
(216,-78,c),
(205,-157,l),
(233,-175,o),
(280,-186,o),
(311,-186,cs)
);
},
{
closed = 1;
nodes = (
(604,605,l),
(620,720,l),
(493,720,l),
(478,605,l)
);
}
);
width = 600;
}
);
note = uni01CB;
unicode = 459;
},
{
color = 4;
glyphname = Eng;
layers = (
{
background = {
shapes = (
{
ref = N;
}
);
};
hints = (
{
horizontal = 1;
origin = (0,26);
target = (0,19);
type = Stem;
},
{
horizontal = 1;
origin = (0,10);
target = up;
type = BottomGhost;
},
{
horizontal = 1;
origin = (0,9);
target = down;
type = TopGhost;
}
);
layerId = "1E610136-9B4E-49B0-BDBC-BF9A1AAA9445";
shapes = (
{
closed = 1;
nodes = (
(413,-186,o),
(454,-148,o),
(464,-75,cs),
(571,686,l),
(519,686,l),
(436,100,l),
(431,100,l),
(400,188,l),
(209,686,l),
(151,686,l),
(54,0,l),
(106,0,l),
(188,586,l),
(193,586,l),
(219,514,l),
(421,-12,l),
(413,-73,ls),
(405,-132,o),
(373,-140,o),
(345,-140,cs),
(324,-140,o),
(302,-134,o),
(286,-124,c),
(279,-169,l),
(295,-179,o),
(320,-186,o),
(345,-186,cs)
);
}
);
width = 600;
},
{
background = {
shapes = (
{
closed = 1;
nodes = (
(498,-187,o),
(579,-134,o),
(594,-26,cs),
(695,686,l),
(501,686,l),
(458,376,l),
(455,375,l),
(429,431,l),
(289,686,l),
(113,686,l),
(16,0,l),
(209,0,l),
(251,304,l),
(255,304,l),
(282,246,l),
(403,27,l),
(400,4,ls),
(392,-55,o),
(363,-65,o),
(335,-65,cs),
(320,-65,o),
(290,-60,o),
(275,-53,c),
(259,-165,l),
(291,-178,o),
(354,-187,o),
(389,-187,cs)
);
}
);
};
hints = (
{
horizontal = 1;
origin = (0,26);
target = (0,19);
type = Stem;
},
{
horizontal = 1;
origin = (0,10);
target = up;
type = BottomGhost;
},
{
horizontal = 1;
origin = (0,9);
target = down;
type = TopGhost;
},
{
horizontal = 1;
origin = (0,26);
target = up;
type = BottomGhost;
}
);
layerId = "C8A46E0E-B991-4CFC-ABD9-554F5B3B1198";
shapes = (
{
closed = 1;
nodes = (
(436,-187,o),
(505,-132,o),
(520,-26,cs),
(621,686,l),
(431,686,l),
(387,373,l),
(381,372,l),
(367,436,l),
(294,686,l),
(101,686,l),
(4,0,l),
(194,0,l),
(237,305,l),
(242,306,l),
(256,244,l),
(327,11,l),
(325,0,ls),
(317,-55,o),
(287,-65,o),
(259,-65,cs),
(236,-65,o),
(211,-59,o),
(199,-53,c),
(183,-165,l),
(213,-180,o),
(280,-187,o),
(319,-187,cs)
);
}
);
width = 600;
},
{
hints = (
{
horizontal = 1;
origin = (0,26);
target = (0,19);
type = Stem;
},
{
horizontal = 1;
origin = (0,10);
target = up;
type = BottomGhost;
},
{
horizontal = 1;
origin = (0,9);
target = down;
type = TopGhost;
}
);
layerId = "56C8974D-A8FC-4FE2-AFFA-564C2D1D7F2D";
shapes = (
{
closed = 1;
nodes = (
(423,-186,o),
(477,-141,o),
(489,-53,cs),
(593,686,l),
(480,686,l),
(414,221,l),
(409,221,l),
(385,298,l),
(247,686,l),
(129,686,l),
(32,0,l),
(145,0,l),
(210,461,l),
(215,462,l),
(235,394,l),
(379,-2,l),
(374,-41,ls),
(366,-98,o),
(335,-107,o),
(307,-107,cs),
(285,-107,o),
(262,-101,o),
(247,-92,c),
(236,-167,l),
(259,-179,o),
(302,-186,o),
(333,-186,cs)
);
}
);
width = 600;
}
);
note = Eng;
unicode = 330;
},
{
color = 4;
glyphname = O;
layers = (
{
anchors = (
{
name = bottom;
pos = (264,0);
},
{
name = center;
pos = (312,343);
},
{
name = ogonek;
pos = (310,0);
},
{
name = top;
pos = (361,686);
},
{
name = topleft;
pos = (220,648);
},
{
name = topright;
pos = (490,648);
}
);
background = {
shapes = (
{
closed = 1;
nodes = (
(266,-10,ls),
(400,-10,o),
(518,54,o),
(554,310,cs),
(563,376,ls),
(599,633,o),
(499,696,o),
(363,696,cs),
(360,696,ls),
(231,696,o),
(107,635,o),
(71,376,cs),
(62,310,ls),
(25,51,o),
(127,-10,o),
(263,-10,cs)
);
},
{
closed = 1;
nodes = (
(163,38,o),
(84,87,o),
(114,298,cs),
(127,388,ls),
(156,599,o),
(249,648,o),
(355,648,cs),
(461,648,o),
(540,599,o),
(511,388,cs),
(498,298,ls),
(468,87,o),
(375,38,o),
(269,38,cs)
);
}
);
};
hints = (
{
horizontal = 1;
origin = (0,19);
target = (1,17);
type = Stem;
},
{
horizontal = 1;
origin = (0,10);
target = (1,8);
type = Stem;
},
{
origin = (0,16);
target = (1,2);
type = Stem;
},
{
origin = (1,11);
target = (0,6);
type = Stem;
}
);
layerId = "1E610136-9B4E-49B0-BDBC-BF9A1AAA9445";
shapes = (
{
closed = 1;
nodes = (
(267,-10,ls),
(436,-10,o),
(527,97,o),
(557,330,cs),
(565,394,o),
(568,428,o),
(568,458,cs),
(568,648,o),
(478,696,o),
(363,696,cs),
(358,696,ls),
(190,696,o),
(99,589,o),
(68,356,cs),
(59,291,o),
(57,258,o),
(57,228,cs),
(57,38,o),
(147,-10,o),
(262,-10,cs)
);
},
{
closed = 1;
nodes = (
(170,38,o),
(110,77,o),
(110,228,cs),
(110,257,o),
(111,286,o),
(123,368,cs),
(151,560,o),
(224,648,o),
(355,648,cs),
(454,648,o),
(515,609,o),
(515,458,cs),
(515,428,o),
(513,400,o),
(502,318,cs),
(476,126,o),
(403,38,o),
(270,38,cs)
);
}
);
width = 600;
},
{
anchors = (
{
name = bottom;
pos = (264,0);
},
{
name = center;
pos = (312,343);
},
{
name = ogonek;
pos = (297,0);
},
{
name = top;
pos = (361,686);
},
{
name = topleft;
pos = (227,660);
},
{
name = topright;
pos = (487,660);
}
);
background = {
shapes = (
{
closed = 1;
nodes = (
(345,-10,ls),
(532,-10,o),
(663,124,o),
(687,290,cs),
(696,353,o),
(705,411,o),
(705,436,cs),
(705,582,o),
(596,694,o),
(444,694,cs),
(388,694,ls),
(202,694,o),
(69,559,o),
(46,394,cs),
(37,329,o),
(28,272,o),
(28,248,cs),
(28,102,o),
(137,-10,o),
(289,-10,cs)
);
},
{
closed = 1;
nodes = (
(286,147,o),
(250,184,o),
(250,233,cs),
(250,249,o),
(253,270,o),
(278,440,cs),
(286,496,o),
(324,540,o),
(392,540,cs),
(447,540,o),
(484,505,o),
(484,454,cs),
(484,443,o),
(479,410,o),
(456,247,cs),
(447,183,o),
(404,147,o),
(337,147,cs)
);
}
);
};
hints = (
{
horizontal = 1;
origin = (0,19);
target = (1,17);
type = Stem;
},
{
horizontal = 1;
origin = (0,10);
target = (1,8);
type = Stem;
},
{
origin = (0,16);
target = (1,2);
type = Stem;
},
{
origin = (1,11);
target = (0,6);
type = Stem;
}
);
layerId = "C8A46E0E-B991-4CFC-ABD9-554F5B3B1198";
shapes = (
{
closed = 1;
nodes = (
(281,-10,ls),
(464,-10,o),
(574,86,o),
(600,270,cs),
(619,405,o),
(624,441,o),
(624,465,cs),
(624,605,o),
(531,696,o),
(370,696,cs),
(344,696,ls),
(160,696,o),
(50,600,o),
(24,415,cs),
(5,281,o),
(0,245,o),
(0,221,cs),
(0,80,o),
(94,-10,o),
(255,-10,cs)
);
},
{
closed = 1;
nodes = (
(241,147,o),
(214,171,o),
(214,215,cs),
(214,223,o),
(215,238,o),
(246,455,cs),
(254,511,o),
(286,540,o),
(340,540,cs),
(384,540,o),
(412,516,o),
(412,472,cs),
(412,464,o),
(411,448,o),
(380,232,cs),
(372,176,o),
(339,147,o),
(285,147,cs)
);
}
);
width = 600;
},
{
anchors = (
{
name = bottom;
pos = (264,0);
},
{
name = center;
pos = (312,343);
},
{
name = ogonek;
pos = (296,0);
},
{
name = top;
pos = (361,686);
},
{
name = topleft;
pos = (223,653);
},
{
name = topright;
pos = (489,653);
}
);
hints = (
{
horizontal = 1;
origin = (0,19);
target = (1,17);
type = Stem;
},
{
horizontal = 1;
origin = (0,10);
target = (1,8);
type = Stem;
},
{
origin = (0,16);
target = (1,2);
type = Stem;
},
{
origin = (1,11);
target = (0,6);
type = Stem;
}
);
layerId = "56C8974D-A8FC-4FE2-AFFA-564C2D1D7F2D";
shapes = (
{
closed = 1;
nodes = (
(273,-10,ls),
(448,-10,o),
(548,92,o),
(576,303,cs),
(589,399,o),
(593,434,o),
(593,461,cs),
(593,629,o),
(502,696,o),
(366,696,cs),
(352,696,ls),
(177,696,o),
(77,594,o),
(48,382,cs),
(35,287,o),
(32,252,o),
(32,225,cs),
(32,57,o),
(123,-10,o),
(259,-10,cs)
);
},
{
closed = 1;
nodes = (
(202,86,o),
(156,119,o),
(156,222,cs),
(156,242,o),
(157,265,o),
(178,407,cs),
(197,538,o),
(252,600,o),
(348,600,cs),
(423,600,o),
(469,568,o),
(469,464,cs),
(469,444,o),
(468,421,o),
(448,280,cs),
(430,148,o),
(375,86,o),
(277,86,cs)
);
}
);
width = 600;
}
);
note = O;
unicode = 79;
},
{
color = 1;
glyphname = Ohorn;
layers = (
{
background = {
shapes = (
{
closed = 1;
nodes = (
(311,-10,ls),
(455,-10,o),
(586,57,o),
(621,330,cs),
(629,394,o),
(632,428,o),
(632,458,cs),
(632,535,o),
(616,588,o),
(588,625,c),
(654,656,o),
(690,716,o),
(701,792,c),
(645,792,l),
(635,723,o),
(606,674,o),
(561,653,c),
(521,685,o),
(467,696,o),
(407,696,cs),
(402,696,ls),
(258,696,o),
(128,628,o),
(92,356,cs),
(83,291,o),
(81,258,o),
(81,228,cs),
(81,38,o),
(180,-10,o),
(306,-10,cs)
);
},
{
closed = 1;
nodes = (
(213,38,o),
(134,77,o),
(134,232,cs),
(134,257,o),
(135,286,o),
(147,368,cs),
(180,595,o),
(282,648,o),
(399,648,cs),
(499,648,o),
(579,609,o),
(579,454,cs),
(579,428,o),
(577,400,o),
(566,318,cs),
(535,91,o),
(431,38,o),
(314,38,cs)
);
}
);
};
layerId = "1E610136-9B4E-49B0-BDBC-BF9A1AAA9445";
shapes = (
{
ref = O;
},
{
pos = (186,-38);
ref = horncomb.cap;
}
);
width = 600;
},
{
background = {
shapes = (
{
closed = 1;
nodes = (
(345,-10,ls),
(532,-10,o),
(663,124,o),
(687,290,cs),
(696,353,o),
(705,411,o),
(705,436,cs),
(705,494,o),
(688,546,o),
(658,588,c),
(750,629,o),
(818,710,o),
(831,799,c),
(667,799,l),
(655,717,o),
(637,674,o),
(576,661,c),
(538,682,o),
(493,694,o),
(444,694,cs),
(388,694,ls),
(202,694,o),
(69,559,o),
(46,394,cs),
(37,329,o),
(28,272,o),
(28,248,cs),
(28,102,o),
(137,-10,o),
(289,-10,cs)
);
},
{
closed = 1;
nodes = (
(286,147,o),
(250,184,o),
(250,233,cs),
(250,249,o),
(253,270,o),
(278,440,cs),
(286,496,o),
(324,540,o),
(392,540,cs),
(447,540,o),
(484,505,o),
(484,454,cs),
(484,443,o),
(479,410,o),
(456,247,cs),
(447,183,o),
(404,147,o),
(337,147,cs)
);
}
);
};
layerId = "C8A46E0E-B991-4CFC-ABD9-554F5B3B1198";
shapes = (
{
ref = O;
},
{
pos = (239,-26);
ref = horncomb.cap;
}
);
width = 600;
},
{
layerId = "56C8974D-A8FC-4FE2-AFFA-564C2D1D7F2D";
shapes = (
{
ref = O;
},
{
pos = (209,-33);
ref = horncomb.cap;
}
);
width = 600;
}
);
note = Ohorn;
unicode = 416;
},
{
color = 4;
glyphname = OE;
layers = (
{
background = {
shapes = (
{
closed = 1;
nodes = (
(294,-10,o),
(376,12,o),
(435,88,c),
(420,0,l),
(850,0,l),
(850,48,l),
(481,48,l),
(520,326,l),
(839,326,l),
(846,374,l),
(527,374,l),
(564,638,l),
(924,638,l),
(941,686,l),
(517,686,l),
(504,600,l),
(466,674,o),
(392,696,o),
(306,696,cs),
(159,696,o),
(30,631,o),
(-8,356,cs),
(-17,291,o),
(-19,258,o),
(-19,228,cs),
(-19,38,o),
(80,-10,o),
(207,-10,cs)
);
},
{
closed = 1;
nodes = (
(113,38,o),
(34,77,o),
(34,232,cs),
(34,257,o),
(35,286,o),
(47,368,cs),
(80,595,o),
(182,648,o),
(299,648,cs),
(399,648,o),
(479,609,o),
(479,454,cs),
(479,428,o),
(477,400,o),
(466,318,cs),
(436,91,o),
(331,38,o),
(214,38,cs)
);
}
);
};
hints = (
{
horizontal = 1;
origin = (1,11);
target = (0,19);
type = Stem;
},
{
horizontal = 1;
origin = (0,6);
target = (0,3);
type = Stem;
},
{
horizontal = 1;
origin = (0,10);
target = (1,8);
type = Stem;
},
{
origin = (0,16);
target = (1,2);
type = Stem;
}
);
layerId = "1E610136-9B4E-49B0-BDBC-BF9A1AAA9445";
shapes = (
{
closed = 1;
nodes = (
(550,0,l),
(546,48,l),
(357,48,l),
(396,326,l),
(555,326,l),
(562,374,l),
(403,374,l),
(440,638,l),
(620,638,l),
(637,686,l),
(311,686,ls),
(176,686,o),
(103,604,o),
(78,426,cs),
(55,266,o),
(50,236,o),
(50,185,cs),
(50,30,o),
(125,0,o),
(234,0,cs)
);
},
{
closed = 1;
nodes = (
(158,48,o),
(103,73,o),
(103,186,cs),
(103,216,o),
(108,250,o),
(131,418,cs),
(157,603,o),
(225,638,o),
(304,638,cs),
(386,638,l),
(303,48,l),
(241,48,ls)
);
}
);
width = 600;
},
{
background = {
shapes = (
{
closed = 1;
nodes = (
(161,-10,o),
(194,1,o),
(223,18,c),
(221,0,l),
(736,0,l),
(728,157,l),
(453,157,l),
(468,266,l),
(712,266,l),
(734,419,l),
(490,419,l),
(505,528,l),
(760,528,l),
(822,686,l),
(318,686,l),
(316,667,l),
(287,683,o),
(256,694,o),
(192,694,cs),
(16,694,o),
(-130,560,o),
(-154,394,cs),
(-159,359,o),
(-164,325,o),
(-169,290,cs),
(-193,124,o),
(-82,-10,o),
(89,-10,cs)
);
},
{
closed = 1;
nodes = (
(81,147,o),
(43,191,o),
(51,247,cs),
(60,311,o),
(69,376,o),
(78,440,cs),
(86,496,o),
(136,540,o),
(192,540,cs),
(253,540,o),
(291,498,o),
(283,440,cs),
(274,376,o),
(265,311,o),
(256,247,cs),
(248,192,o),
(201,147,o),
(137,147,cs)
);
}
);
};
hints = (
{
horizontal = 1;
place = (-4, 21);
target = up;
type = BottomGhost;
},
{
horizontal = 1;
place = (267, 156);
place = (267, 156);
type = Stem;
},
{
horizontal = 1;
place = (535, 157);
place = (535, 157);
type = Stem;
},
{
place = (33, 980);
place = (33, 980);
type = Stem;
},
{
horizontal = 1;
place = (6, 160);
place = (6, 160);
type = Stem;
},
{
horizontal = 1;
place = (524, 161);
place = (524, 161);
type = Stem;
}
);
layerId = "C8A46E0E-B991-4CFC-ABD9-554F5B3B1198";
shapes = (
{
closed = 1;
nodes = (
(564,0,l),
(566,157,l),
(441,157,l),
(456,266,l),
(560,266,l),
(582,419,l),
(478,419,l),
(493,528,l),
(598,528,l),
(651,686,l),
(301,686,ls),
(158,686,o),
(49,594,o),
(30,455,cs),
(1,241,o),
(-1,233,o),
(-1,212,cs),
(-1,80,o),
(86,0,o),
(234,0,cs)
);
},
{
closed = 1;
nodes = (
(202,157,o),
(174,179,o),
(174,218,cs),
(174,227,o),
(179,261,o),
(206,455,cs),
(213,502,o),
(249,528,o),
(298,528,cs),
(331,528,l),
(279,157,l),
(246,157,ls)
);
}
);
width = 600;
},
{
hints = (
{
horizontal = 1;
origin = (1,11);
target = (0,19);
type = Stem;
},
{
horizontal = 1;
origin = (0,6);
target = (0,3);
type = Stem;
},
{
horizontal = 1;
origin = (0,10);
target = (1,8);
type = Stem;
},
{
origin = (0,16);
target = (1,2);
type = Stem;
}
);
layerId = "56C8974D-A8FC-4FE2-AFFA-564C2D1D7F2D";
shapes = (
{
closed = 1;
nodes = (
(556,0,l),
(555,96,l),
(394,96,l),
(423,299,l),
(557,299,l),
(571,394,l),
(436,394,l),
(464,589,l),
(610,589,l),
(643,686,l),
(307,686,ls),
(168,686,o),
(79,600,o),
(57,439,cs),
(31,255,o),
(27,235,o),
(27,197,cs),
(27,52,o),
(108,0,o),
(234,0,cs)
);
},
{
closed = 1;
nodes = (
(178,96,o),
(135,120,o),
(135,200,cs),
(135,221,o),
(140,255,o),
(164,434,cs),
(182,558,o),
(236,589,o),
(301,589,cs),
(362,589,l),
(292,96,l),
(243,96,ls)
);
}
);
width = 600;
}
);
note = OE;
unicode = 338;
},
{
color = 4;
glyphname = P;
layers = (
{
anchors = (
{
name = bottom;
pos = (264,0);
},
{
name = top;
pos = (361,686);
}
);
background = {
shapes = (
{
closed = 1;
nodes = (
(125,0,l),
(169,312,l),
(396,312,ls),
(520,312,o),
(611,411,o),
(611,526,cs),
(611,616,o),
(543,686,o),
(449,686,cs),
(168,686,l),
(71,0,l)
);
},
{
closed = 1;
nodes = (
(215,638,l),
(435,638,ls),
(506,638,o),
(558,587,o),
(558,519,cs),
(558,432,o),
(490,359,o),
(396,359,cs),
(176,359,l)
);
}
);
};
hints = (
{
horizontal = 1;
origin = (0,10);
target = up;
type = BottomGhost;
},
{
horizontal = 1;
origin = (1,8);
target = (0,1);
type = Stem;
},
{
horizontal = 1;
origin = (0,9);
target = (1,0);
type = Stem;
},
{
origin = (1,4);
target = (0,5);
type = Stem;
}
);
layerId = "1E610136-9B4E-49B0-BDBC-BF9A1AAA9445";
shapes = (
{
closed = 1;
nodes = (
(108,0,l),
(152,311,l),
(389,311,ls),
(523,311,o),
(595,397,o),
(595,526,cs),
(595,615,o),
(524,686,o),
(417,686,cs),
(151,686,l),
(54,0,l)
);
},
{
closed = 1;
nodes = (
(198,638,l),
(413,638,ls),
(498,638,o),
(541,587,o),
(541,519,cs),
(541,423,o),
(490,359,o),
(389,359,cs),
(159,359,l)
);
}
);
width = 600;
},
{
anchors = (
{
name = bottom;
pos = (264,0);
},
{
name = top;
pos = (361,686);
}
);
background = {
shapes = (
{
closed = 1;
nodes = (
(226,0,l),
(261,244,l),
(416,244,ls),
(570,244,o),
(660,368,o),
(660,505,cs),
(660,606,o),
(585,686,o),
(478,686,cs),
(113,686,l),
(16,0,l)
);
},
{
closed = 1;
nodes = (
(301,529,l),
(393,529,ls),
(429,529,o),
(445,503,o),
(445,478,cs),
(445,434,o),
(422,397,o),
(374,397,cs),
(282,397,l)
);
}
);
};
hints = (
{
horizontal = 1;
origin = (0,10);
target = up;
type = BottomGhost;
},
{
horizontal = 1;
origin = (0,1);
target = (1,8);
type = Stem;
},
{
horizontal = 1;
origin = (0,9);
target = (1,0);
type = Stem;
},
{
origin = (1,4);
target = (0,5);
type = Stem;
}
);
layerId = "C8A46E0E-B991-4CFC-ABD9-554F5B3B1198";
shapes = (
{
closed = 1;
nodes = (
(209,0,l),
(243,240,l),
(388,240,ls),
(535,240,o),
(633,346,o),
(633,505,cs),
(633,614,o),
(548,686,o),
(421,686,cs),
(101,686,l),
(4,0,l)
);
},
{
closed = 1;
nodes = (
(283,529,l),
(360,529,ls),
(401,529,o),
(417,504,o),
(417,476,cs),
(417,441,o),
(398,397,o),
(347,397,cs),
(265,397,l)
);
}
);
width = 600;
},
{
anchors = (
{
name = bottom;
pos = (264,0);
},
{
name = top;
pos = (361,686);
}
);
hints = (
{
horizontal = 1;
origin = (0,10);
target = up;
type = BottomGhost;
},
{
horizontal = 1;
origin = (1,8);
target = (0,1);
type = Stem;
},
{
horizontal = 1;
origin = (0,9);
target = (1,0);
type = Stem;
},
{
origin = (1,4);
target = (0,5);
type = Stem;
}
);
layerId = "56C8974D-A8FC-4FE2-AFFA-564C2D1D7F2D";
shapes = (
{
closed = 1;
nodes = (
(153,0,l),
(192,279,l),
(389,279,ls),
(528,279,o),
(612,374,o),
(612,517,cs),
(612,615,o),
(535,686,o),
(419,686,cs),
(129,686,l),
(32,0,l)
);
},
{
closed = 1;
nodes = (
(236,590,l),
(389,590,ls),
(455,590,o),
(486,550,o),
(486,500,cs),
(486,431,o),
(449,376,o),
(370,376,cs),
(206,376,l)
);
}
);
width = 600;
}
);
note = P;
unicode = 80;
},
{
color = 4;
glyphname = Thorn;
layers = (
{
anchors = (
{
name = bottom;
pos = (264,0);
},
{
name = top;
pos = (361,686);
}
);
background = {
shapes = (
{
closed = 1;
nodes = (
(94,-135,l),
(138,176,l),
(375,176,ls),
(509,176,o),
(581,262,o),
(581,391,cs),
(581,480,o),
(510,551,o),
(403,551,cs),
(137,551,l),
(40,-135,l)
);
},
{
closed = 1;
nodes = (
(184,503,l),
(399,503,ls),
(475,503,o),
(527,452,o),
(527,384,cs),
(527,288,o),
(476,224,o),
(375,224,cs),
(145,224,l)
);
}
);
};
hints = (
{
horizontal = 1;
origin = (0,12);
target = up;
type = BottomGhost;
},
{
horizontal = 1;
origin = (1,8);
target = (0,1);
type = Stem;
},
{
horizontal = 1;
origin = (0,9);
target = (1,0);
type = Stem;
},
{
origin = (1,4);
target = (0,5);
type = Stem;
}
);
layerId = "1E610136-9B4E-49B0-BDBC-BF9A1AAA9445";
shapes = (
{
closed = 1;
nodes = (
(113,0,l),
(138,176,l),
(375,176,ls),
(509,176,o),
(581,262,o),
(581,391,cs),
(581,480,o),
(510,551,o),
(403,551,cs),
(191,551,l),
(210,686,l),
(156,686,l),
(59,0,l)
);
},
{
closed = 1;
nodes = (
(184,503,l),
(399,503,ls),
(484,503,o),
(527,452,o),
(527,384,cs),
(527,288,o),
(476,224,o),
(375,224,cs),
(145,224,l)
);
}
);
width = 600;
},
{
anchors = (
{
name = bottom;
pos = (264,0);
},
{
name = top;
pos = (361,686);
}
);
background = {
shapes = (
{
closed = 1;
nodes = (
(213,0,l),
(234,146,l),
(350,146,ls),
(489,146,o),
(592,236,o),
(612,373,cs),
(628,489,o),
(547,583,o),
(411,583,cs),
(295,583,l),
(310,686,l),
(101,686,l),
(4,0,l)
);
},
{
closed = 1;
nodes = (
(273,427,l),
(342,427,ls),
(391,427,o),
(403,403,o),
(397,360,cs),
(391,319,o),
(373,294,o),
(323,294,cs),
(254,294,l)
);
}
);
};
hints = (
{
horizontal = 1;
origin = (0,12);
target = up;
type = BottomGhost;
},
{
horizontal = 1;
origin = (0,1);
target = (1,8);
type = Stem;
},
{
horizontal = 1;
origin = (1,0);
target = (0,9);
type = Stem;
},
{
horizontal = 1;
origin = (0,11);
target = down;
type = TopGhost;
},
{
origin = (1,4);
target = (0,5);
type = Stem;
}
);
layerId = "C8A46E0E-B991-4CFC-ABD9-554F5B3B1198";
shapes = (
{
closed = 1;
nodes = (
(213,0,l),
(234,146,l),
(350,146,ls),
(516,146,o),
(614,248,o),
(614,402,cs),
(614,503,o),
(538,583,o),
(421,583,cs),
(295,583,l),
(310,686,l),
(101,686,l),
(4,0,l)
);
},
{
closed = 1;
nodes = (
(273,427,l),
(346,427,ls),
(381,427,o),
(399,409,o),
(399,374,cs),
(399,334,o),
(382,294,o),
(328,294,cs),
(255,294,l)
);
}
);
width = 600;
},
{
anchors = (
{
name = bottom;
pos = (264,0);
},
{
name = top;
pos = (361,686);
}
);
hints = (
{
horizontal = 1;
origin = (0,12);
target = up;
type = BottomGhost;
},
{
horizontal = 1;
origin = (1,8);
target = (0,1);
type = Stem;
},
{
horizontal = 1;
origin = (0,9);
target = (1,0);
type = Stem;
},
{
origin = (1,4);
target = (0,5);
type = Stem;
}
);
layerId = "56C8974D-A8FC-4FE2-AFFA-564C2D1D7F2D";
shapes = (
{
closed = 1;
nodes = (
(157,0,l),
(181,163,l),
(364,163,ls),
(512,163,o),
(596,256,o),
(596,396,cs),
(596,490,o),
(522,565,o),
(411,565,cs),
(237,565,l),
(254,686,l),
(132,686,l),
(35,0,l)
);
},
{
closed = 1;
nodes = (
(224,469,l),
(375,469,ls),
(438,469,o),
(470,433,o),
(470,380,cs),
(470,308,o),
(434,255,o),
(354,255,cs),
(194,255,l)
);
}
);
width = 600;
}
);
note = Thorn;
unicode = 222;
},
{
color = 4;
glyphname = Q;
layers = (
{
anchors = (
{
name = bottom;
pos = (264,0);
},
{
name = top;
pos = (361,686);
}
);
background = {
shapes = (
{
closed = 1;
nodes = (
(428,-137,o),
(476,-122,o),
(499,-110,c),
(505,-65,l),
(472,-82,o),
(424,-93,o),
(392,-93,cs),
(325,-93,o),
(283,-51,o),
(291,6,c),
(277,-10,l),
(406,-6,o),
(519,62,o),
(554,310,cs),
(563,376,ls),
(599,633,o),
(499,696,o),
(363,696,cs),
(360,696,ls),
(231,696,o),
(107,635,o),
(71,376,cs),
(62,310,ls),
(27,65,o),
(116,-2,o),
(241,-9,c),
(241,-86,o),
(297,-137,o),
(382,-137,cs)
);
},
{
closed = 1;
nodes = (
(163,38,o),
(84,87,o),
(114,298,cs),
(127,388,ls),
(156,599,o),
(249,648,o),
(355,648,cs),
(461,648,o),
(540,599,o),
(511,388,cs),
(498,298,ls),
(468,87,o),
(375,38,o),
(269,38,cs)
);
}
);
};
hints = (
{
horizontal = 1;
origin = (0,35);
target = (0,6);
type = Stem;
},
{
horizontal = 1;
origin = (0,12);
target = (1,17);
type = Stem;
},
{
horizontal = 1;
origin = (0,23);
target = (1,8);
type = Stem;
},
{
origin = (0,29);
target = (1,2);
type = Stem;
},
{
origin = (0,32);
target = (0,12);
type = Stem;
},
{
origin = (1,11);
target = (0,19);
type = Stem;
}
);
layerId = "1E610136-9B4E-49B0-BDBC-BF9A1AAA9445";
shapes = (
{
closed = 1;
nodes = (
(429,-137,o),
(477,-123,o),
(500,-110,c),
(507,-61,l),
(466,-80,o),
(431,-90,o),
(389,-90,cs),
(322,-90,o),
(291,-64,o),
(291,-13,cs),
(291,-6,o),
(292,2,o),
(293,10,c),
(280,-9,l),
(410,-7,o),
(524,64,o),
(558,330,cs),
(566,394,o),
(569,428,o),
(569,458,cs),
(569,648,o),
(479,696,o),
(364,696,cs),
(359,696,ls),
(224,696,o),
(105,628,o),
(69,356,cs),
(60,291,o),
(58,258,o),
(58,228,cs),
(58,49,o),
(137,-4,o),
(242,-10,c),
(242,-93,o),
(290,-137,o),
(383,-137,cs)
);
},
{
closed = 1;
nodes = (
(181,38,o),
(111,77,o),
(111,232,cs),
(111,257,o),
(112,286,o),
(124,368,cs),
(157,595,o),
(248,648,o),
(356,648,cs),
(445,648,o),
(516,609,o),
(516,454,cs),
(516,428,o),
(514,400,o),
(503,318,cs),
(472,91,o),
(379,38,o),
(271,38,cs)
);
}
);
width = 600;
},
{
anchors = (
{
name = bottom;
pos = (264,0);
},
{
name = top;
pos = (361,686);
}
);
background = {
anchors = (
{
name = bottom;
pos = (264,0);
},
{
name = center;
pos = (312,343);
},
{
name = ogonek;
pos = (435,0);
},
{
name = top;
pos = (361,686);
},
{
name = topleft;
pos = (227,660);
},
{
name = topright;
pos = (487,660);
}
);
shapes = (
{
closed = 1;
nodes = (
(281,-10,ls),
(464,-10,o),
(574,86,o),
(600,270,cs),
(619,405,o),
(624,441,o),
(624,465,cs),
(624,605,o),
(531,696,o),
(370,696,cs),
(344,696,ls),
(160,696,o),
(50,600,o),
(24,415,cs),
(5,281,o),
(0,245,o),
(0,221,cs),
(0,80,o),
(94,-10,o),
(255,-10,cs)
);
},
{
closed = 1;
nodes = (
(241,147,o),
(214,171,o),
(214,215,cs),
(214,223,o),
(215,238,o),
(246,455,cs),
(254,511,o),
(286,540,o),
(340,540,cs),
(384,540,o),
(412,516,o),
(412,472,cs),
(412,464,o),
(411,448,o),
(380,232,cs),
(372,176,o),
(339,147,o),
(285,147,cs)
);
}
);
};
hints = (
{
horizontal = 1;
origin = (0,35);
target = (0,6);
type = Stem;
},
{
horizontal = 1;
origin = (0,23);
target = (1,8);
type = Stem;
},
{
origin = (0,29);
target = (1,2);
type = Stem;
},
{
origin = (1,11);
target = (0,19);
type = Stem;
}
);
layerId = "C8A46E0E-B991-4CFC-ABD9-554F5B3B1198";
shapes = (
{
closed = 1;
nodes = (
(467,-162,o),
(530,-148,o),
(575,-120,c),
(590,-15,l),
(553,-36,o),
(509,-47,o),
(471,-47,cs),
(415,-47,o),
(369,-23,o),
(369,27,cs),
(369,39,o),
(372,53,o),
(378,68,c),
(319,-7,l),
(467,2,o),
(574,86,o),
(600,270,cs),
(619,405,o),
(624,441,o),
(624,465,cs),
(624,605,o),
(531,696,o),
(370,696,cs),
(344,696,ls),
(160,696,o),
(50,601,o),
(24,415,cs),
(5,281,o),
(0,245,o),
(0,221,cs),
(0,99,o),
(71,20,o),
(178,-2,c),
(199,-113,o),
(289,-162,o),
(404,-162,cs)
);
},
{
closed = 1;
nodes = (
(241,147,o),
(214,171,o),
(214,215,cs),
(214,223,o),
(215,238,o),
(246,455,cs),
(254,511,o),
(286,540,o),
(340,540,cs),
(384,540,o),
(412,516,o),
(412,471,cs),
(412,462,o),
(411,448,o),
(380,232,cs),
(372,176,o),
(339,147,o),
(285,147,cs)
);
}
);
width = 600;
},
{
anchors = (
{
name = bottom;
pos = (264,0);
},
{
name = top;
pos = (361,686);
}
);
hints = (
{
horizontal = 1;
origin = (0,35);
target = (0,6);
type = Stem;
},
{
horizontal = 1;
origin = (0,12);
target = (1,17);
type = Stem;
},
{
horizontal = 1;
origin = (0,23);
target = (1,8);
type = Stem;
},
{
origin = (0,29);
target = (1,2);
type = Stem;
},
{
origin = (0,32);
target = (0,12);
type = Stem;
},
{
origin = (1,11);
target = (0,19);
type = Stem;
}
);
layerId = "56C8974D-A8FC-4FE2-AFFA-564C2D1D7F2D";
shapes = (
{
closed = 1;
nodes = (
(446,-148,o),
(501,-134,o),
(533,-114,c),
(544,-41,l),
(505,-60,o),
(466,-71,o),
(425,-71,cs),
(363,-71,o),
(326,-46,o),
(326,5,cs),
(326,14,o),
(328,25,o),
(331,36,c),
(297,-8,l),
(435,-3,o),
(546,74,o),
(577,303,cs),
(590,399,o),
(593,434,o),
(593,461,cs),
(593,629,o),
(502,696,o),
(367,696,cs),
(352,696,ls),
(196,696,o),
(81,616,o),
(49,382,cs),
(36,287,o),
(32,252,o),
(32,225,cs),
(32,71,o),
(108,7,o),
(214,-6,c),
(223,-102,o),
(290,-148,o),
(392,-148,cs)
);
},
{
closed = 1;
nodes = (
(208,86,o),
(157,119,o),
(157,224,cs),
(157,242,o),
(158,265,o),
(178,407,cs),
(200,558,o),
(265,600,o),
(349,600,cs),
(418,600,o),
(470,568,o),
(470,462,cs),
(470,443,o),
(468,421,o),
(448,280,cs),
(428,129,o),
(361,86,o),
(277,86,cs)
);
}
);
width = 600;
}
);
note = Q;
unicode = 81;
},
{
color = 4;
glyphname = R;
layers = (
{
anchors = (
{
name = bottom;
pos = (299,0);
},
{
name = top;
pos = (361,686);
}
);
background = {
anchors = (
{
name = bottom;
pos = (279,0);
},
{
name = top;
pos = (361,686);
}
);
shapes = (
{
closed = 1;
nodes = (
(540,-3,o),
(549,0,o),
(551,1,c),
(554,20,l),
(515,31,o),
(508,59,o),
(522,153,cs),
(535,250,o),
(505,321,o),
(442,339,c),
(442,344,l),
(513,358,o),
(573,428,o),
(585,511,cs),
(600,620,o),
(527,686,o),
(430,686,cs),
(151,686,l),
(54,0,l),
(108,0,l),
(153,316,l),
(364,316,ls),
(396,316,o),
(491,303,o),
(466,127,cs),
(450,15,o),
(495,-3,o),
(526,-3,cs)
);
},
{
closed = 1;
nodes = (
(198,638,l),
(416,638,ls),
(495,638,o),
(543,593,o),
(531,507,cs),
(520,424,o),
(455,364,o),
(369,364,cs),
(159,364,l)
);
}
);
};
hints = (
{
horizontal = 1;
origin = (0,33);
target = up;
type = BottomGhost;
},
{
horizontal = 1;
origin = (0,23);
target = (1,8);
type = Stem;
},
{
horizontal = 1;
origin = (0,20);
target = (1,0);
type = Stem;
},
{
horizontal = 1;
origin = (0,21);
target = (0,3);
type = Stem;
},
{
horizontal = 1;
origin = (0,13);
target = (1,8);
type = Stem;
},
{
origin = (0,27);
target = (0,33);
type = Stem;
},
{
origin = (1,4);
target = (0,16);
type = Stem;
}
);
layerId = "1E610136-9B4E-49B0-BDBC-BF9A1AAA9445";
shapes = (
{
closed = 1;
nodes = (
(535,-3,o),
(546,-1,o),
(551,1,c),
(553,20,l),
(535,29,o),
(515,30,o),
(515,87,cs),
(515,112,o),
(525,163,o),
(525,209,cs),
(525,285,o),
(481,325,o),
(439,339,c),
(439,344,l),
(518,365,o),
(587,443,o),
(587,532,cs),
(587,627,o),
(521,686,o),
(421,686,cs),
(150,686,l),
(54,0,l),
(108,0,l),
(153,316,l),
(344,316,ls),
(434,316,o),
(470,280,o),
(470,211,cs),
(470,153,o),
(463,115,o),
(463,85,cs),
(463,10,o),
(498,-3,o),
(525,-3,cs)
);
},
{
closed = 1;
nodes = (
(197,638,l),
(417,638,ls),
(488,638,o),
(532,599,o),
(532,527,cs),
(532,442,o),
(453,364,o),
(370,364,cs),
(160,364,l)
);
}
);
width = 600;
},
{
anchors = (
{
name = bottom;
pos = (289,0);
},
{
name = top;
pos = (361,686);
}
);
background = {
shapes = (
{
closed = 1;
nodes = (
(515,-10,o),
(560,-6,o),
(598,9,c),
(604,50,l),
(568,60,o),
(559,91,o),
(570,173,cs),
(579,232,o),
(556,302,o),
(482,325,c),
(482,330,l),
(561,346,o),
(617,410,o),
(629,499,cs),
(645,608,o),
(570,686,o),
(438,686,cs),
(101,686,l),
(4,0,l),
(209,0,l),
(243,242,l),
(281,242,ls),
(366,242,o),
(358,159,o),
(353,119,cs),
(339,23,o),
(385,-10,o),
(476,-10,cs)
);
},
{
closed = 1;
nodes = (
(283,529,l),
(361,529,ls),
(412,529,o),
(425,497,o),
(420,464,cs),
(415,427,o),
(394,395,o),
(341,395,cs),
(265,395,l)
);
}
);
};
hints = (
{
horizontal = 1;
origin = (0,33);
target = up;
type = BottomGhost;
},
{
horizontal = 1;
origin = (0,23);
target = (1,8);
type = Stem;
},
{
horizontal = 1;
origin = (0,20);
target = (1,0);
type = Stem;
},
{
horizontal = 1;
origin = (0,21);
target = up;
type = BottomGhost;
},
{
origin = (0,27);
target = (0,6);
type = Stem;
},
{
origin = (1,4);
target = (0,16);
type = Stem;
}
);
layerId = "C8A46E0E-B991-4CFC-ABD9-554F5B3B1198";
shapes = (
{
closed = 1;
nodes = (
(515,-10,o),
(559,-6,o),
(598,9,c),
(604,50,l),
(573,58,o),
(566,89,o),
(566,122,cs),
(566,157,o),
(573,177,o),
(573,205,cs),
(573,267,o),
(548,304,o),
(485,323,c),
(486,328,l),
(564,352,o),
(633,423,o),
(633,529,cs),
(633,623,o),
(559,686,o),
(428,686,cs),
(100,686,l),
(4,0,l),
(209,0,l),
(243,240,l),
(274,240,ls),
(344,240,o),
(358,217,o),
(358,176,cs),
(358,150,o),
(350,115,o),
(350,83,cs),
(350,16,o),
(396,-10,o),
(476,-10,cs)
);
},
{
closed = 1;
nodes = (
(283,529,l),
(350,529,ls),
(396,529,o),
(412,507,o),
(412,473,cs),
(412,437,o),
(396,393,o),
(334,393,cs),
(265,393,l)
);
}
);
width = 600;
},
{
anchors = (
{
name = bottom;
pos = (299,0);
},
{
name = top;
pos = (361,686);
}
);
hints = (
{
horizontal = 1;
origin = (0,33);
target = up;
type = BottomGhost;
},
{
horizontal = 1;
origin = (0,23);
target = (1,8);
type = Stem;
},
{
horizontal = 1;
origin = (0,20);
target = (1,0);
type = Stem;
},
{
horizontal = 1;
origin = (0,21);
target = (0,3);
type = Stem;
},
{
horizontal = 1;
origin = (0,13);
target = (1,8);
type = Stem;
},
{
origin = (0,27);
target = (0,33);
type = Stem;
},
{
origin = (1,4);
target = (0,16);
type = Stem;
}
);
layerId = "56C8974D-A8FC-4FE2-AFFA-564C2D1D7F2D";
shapes = (
{
closed = 1;
nodes = (
(526,-6,o),
(552,-3,o),
(572,5,c),
(576,33,l),
(552,42,o),
(538,56,o),
(538,103,cs),
(538,132,o),
(546,169,o),
(546,207,cs),
(546,277,o),
(511,316,o),
(459,332,c),
(460,337,l),
(538,359,o),
(607,434,o),
(607,531,cs),
(607,625,o),
(538,686,o),
(424,686,cs),
(128,686,l),
(32,0,l),
(153,0,l),
(193,282,l),
(313,282,ls),
(394,282,o),
(420,252,o),
(420,195,cs),
(420,152,o),
(413,115,o),
(413,84,cs),
(413,13,o),
(453,-6,o),
(503,-6,cs)
);
},
{
closed = 1;
nodes = (
(235,590,l),
(387,590,ls),
(447,590,o),
(479,558,o),
(479,503,cs),
(479,440,o),
(428,377,o),
(354,377,cs),
(207,377,l)
);
}
);
width = 600;
}
);
note = R;
unicode = 82;
},
{
color = 4;
glyphname = S;
layers = (
{
anchors = (
{
name = bottom;
pos = (286,0);
},
{
name = top;
pos = (353,686);
}
);
background = {
shapes = (
{
closed = 1;
nodes = (
(398,-10,o),
(516,42,o),
(537,188,cs),
(573,447,o),
(136,332,o),
(163,525,cs),
(176,615,o),
(258,648,o),
(355,648,cs),
(452,648,o),
(526,608,o),
(514,525,cs),
(511,503,l),
(561,503,l),
(563,516,ls),
(581,646,o),
(486,696,o),
(361,696,cs),
(240,696,o),
(127,646,o),
(110,528,cs),
(75,277,o),
(513,396,o),
(483,185,cs),
(467,72,o),
(375,38,o),
(268,38,cs),
(161,38,o),
(80,74,o),
(95,178,cs),
(96,187,o),
(98,196,o),
(100,205,c),
(49,205,l),
(47,200,o),
(46,192,o),
(45,187,cs),
(25,39,o),
(130,-10,o),
(266,-10,cs)
);
}
);
};
hints = (
{
horizontal = 1;
origin = (0,43);
target = (0,30);
type = Stem;
},
{
horizontal = 1;
origin = (0,21);
target = (0,8);
type = Stem;
},
{
origin = (0,40);
target = (0,33);
type = Stem;
},
{
origin = (0,24);
target = (0,5);
type = Stem;
},
{
origin = (0,27);
target = (0,2);
type = Stem;
},
{
origin = (0,11);
target = (0,18);
type = Stem;
}
);
layerId = "1E610136-9B4E-49B0-BDBC-BF9A1AAA9445";
shapes = (
{
closed = 1;
nodes = (
(400,-10,o),
(539,49,o),
(539,217,cs),
(539,431,o),
(162,345,o),
(162,508,cs),
(162,611,o),
(256,648,o),
(355,648,cs),
(445,648,o),
(515,613,o),
(515,542,cs),
(515,537,o),
(515,531,o),
(511,503,c),
(561,503,l),
(565,527,o),
(565,537,o),
(565,546,cs),
(565,654,o),
(476,696,o),
(361,696,cs),
(231,696,o),
(109,638,o),
(109,500,cs),
(109,293,o),
(484,381,o),
(484,205,cs),
(484,76,o),
(376,38,o),
(269,38,cs),
(170,38,o),
(93,69,o),
(93,155,cs),
(93,169,o),
(97,197,o),
(100,205,c),
(49,205,l),
(46,195,o),
(43,167,o),
(43,151,cs),
(43,31,o),
(142,-10,o),
(266,-10,cs)
);
}
);
width = 600;
},
{
anchors = (
{
name = bottom;
pos = (275,0);
},
{
name = top;
pos = (361,686);
}
);
background = {
shapes = (
{
closed = 1;
nodes = (
(436,-10,o),
(566,59,o),
(590,229,cs),
(621,482,o),
(253,399,o),
(268,502,cs),
(271,527,o),
(298,544,o),
(347,544,cs),
(408,544,o),
(425,513,o),
(420,478,cs),
(420,474,l),
(612,474,l),
(613,486,ls),
(634,631,o),
(519,696,o),
(369,696,cs),
(212,696,o),
(73,623,o),
(52,478,cs),
(14,209,o),
(383,291,o),
(369,194,cs),
(366,170,o),
(350,151,o),
(280,151,cs),
(205,151,o),
(190,186,o),
(195,222,cs),
(196,227,o),
(196,229,o),
(198,234,c),
(4,234,l),
(2,224,o),
(1,218,o),
(0,210,cs),
(-22,58,o),
(108,-10,o),
(257,-10,cs)
);
}
);
};
hints = (
{
horizontal = 1;
origin = (0,43);
target = (0,30);
type = Stem;
},
{
horizontal = 1;
origin = (0,21);
target = (0,8);
type = Stem;
},
{
horizontal = 1;
place = (262.33, 168.92);
place = (262.33, 168.92);
type = Stem;
},
{
horizontal = 1;
origin = (0,21);
target = (0,14);
type = Stem;
},
{
origin = (0,40);
target = (0,33);
type = Stem;
},
{
origin = (0,27);
target = (0,2);
type = Stem;
},
{
origin = (0,24);
target = (0,5);
type = Stem;
},
{
origin = (0,11);
target = (0,18);
type = Stem;
}
);
layerId = "C8A46E0E-B991-4CFC-ABD9-554F5B3B1198";
shapes = (
{
closed = 1;
nodes = (
(521,-10,o),
(592,132,o),
(592,261,cs),
(592,469,o),
(262,409,o),
(262,497,cs),
(262,524,o),
(291,544,o),
(342,544,cs),
(397,544,o),
(421,524,o),
(421,489,cs),
(421,484,o),
(421,481,o),
(420,474,c),
(612,474,l),
(616,494,o),
(616,506,o),
(616,517,cs),
(616,641,o),
(507,696,o),
(369,696,cs),
(184,696,o),
(49,611,o),
(49,443,cs),
(49,221,o),
(370,284,o),
(370,199,cs),
(370,175,o),
(354,151,o),
(284,151,cs),
(213,151,o),
(194,180,o),
(194,212,cs),
(194,220,o),
(195,227,o),
(198,234,c),
(4,234,l),
(-1,215,o),
(-2,198,o),
(-2,177,cs),
(-2,47,o),
(119,-10,o),
(257,-10,cs)
);
}
);
width = 600;
},
{
anchors = (
{
name = bottom;
pos = (274,0);
},
{
name = top;
pos = (356,686);
}
);
hints = (
{
horizontal = 1;
origin = (0,43);
target = (0,30);
type = Stem;
},
{
horizontal = 1;
origin = (0,21);
target = (0,8);
type = Stem;
},
{
origin = (0,40);
target = (0,33);
type = Stem;
},
{
origin = (0,24);
target = (0,5);
type = Stem;
},
{
origin = (0,27);
target = (0,2);
type = Stem;
},
{
origin = (0,11);
target = (0,18);
type = Stem;
}
);
layerId = "56C8974D-A8FC-4FE2-AFFA-564C2D1D7F2D";
shapes = (
{
closed = 1;
nodes = (
(454,-10,o),
(563,86,o),
(563,237,cs),
(563,448,o),
(206,373,o),
(206,503,cs),
(206,572,o),
(272,602,o),
(349,602,cs),
(424,602,o),
(473,573,o),
(473,518,cs),
(473,513,o),
(473,509,o),
(471,490,c),
(584,490,l),
(588,512,o),
(588,523,o),
(588,533,cs),
(588,648,o),
(490,696,o),
(365,696,cs),
(210,696,o),
(82,626,o),
(82,475,cs),
(82,261,o),
(433,338,o),
(433,202,cs),
(433,120,o),
(366,88,o),
(276,88,cs),
(189,88,o),
(138,118,o),
(138,180,cs),
(138,192,o),
(141,210,o),
(144,218,c),
(29,218,l),
(25,204,o),
(23,181,o),
(23,163,cs),
(23,38,o),
(132,-10,o),
(262,-10,cs)
);
}
);
width = 600;
}
);
note = S;
unicode = 83;
},
{
color = 4;
glyphname = Germandbls;
layers = (
{
anchors = (
{
name = bottom;
pos = (264,0);
},
{
name = top;
pos = (361,686);
}
);
background = {
shapes = (
{
closed = 1;
nodes = (
(515,-10,o),
(615,74,o),
(615,205,cs),
(615,280,o),
(571,332,o),
(510,351,c),
(511,355,l),
(585,384,o),
(645,441,o),
(645,536,cs),
(645,641,o),
(543,696,o),
(419,696,cs),
(278,696,o),
(153,625,o),
(126,436,cs),
(65,0,l),
(119,0,l),
(181,441,ls),
(203,599,o),
(300,648,o),
(415,648,cs),
(516,648,o),
(590,609,o),
(590,528,cs),
(590,434,o),
(508,375,o),
(405,375,cs),
(313,375,l),
(307,327,l),
(404,327,ls),
(492,327,o),
(562,288,o),
(562,205,cs),
(562,106,o),
(495,36,o),
(386,36,cs),
(289,36,o),
(247,75,o),
(247,159,cs),
(247,171,o),
(248,185,o),
(250,199,c),
(197,199,l),
(194,180,o),
(192,163,o),
(192,147,cs),
(192,41,o),
(260,-10,o),
(381,-10,cs)
);
}
);
};
hints = (
{
horizontal = 1;
origin = (0,16);
target = (0,37);
type = Stem;
},
{
horizontal = 1;
origin = (0,29);
target = (0,28);
type = Stem;
},
{
horizontal = 1;
origin = (0,12);
target = (0,21);
type = Stem;
}
);
layerId = "1E610136-9B4E-49B0-BDBC-BF9A1AAA9445";
shapes = (
{
closed = 1;
nodes = (
(506,0,o),
(536,141,o),
(536,214,cs),
(536,288,o),
(496,332,o),
(440,351,c),
(441,355,l),
(522,397,o),
(569,453,o),
(569,544,cs),
(569,639,o),
(499,696,o),
(369,696,cs),
(221,696,o),
(132,617,o),
(108,446,cs),
(45,0,l),
(99,0,l),
(162,451,ls),
(180,583,o),
(247,648,o),
(361,648,cs),
(460,648,o),
(514,607,o),
(514,537,cs),
(514,447,o),
(440,375,o),
(356,375,cs),
(284,375,l),
(277,327,l),
(354,327,ls),
(419,327,o),
(483,289,o),
(483,206,cs),
(483,154,o),
(461,46,o),
(315,46,cs),
(216,46,l),
(209,0,l),
(308,0,l)
);
}
);
width = 600;
},
{
anchors = (
{
name = bottom;
pos = (264,0);
},
{
name = top;
pos = (361,686);
}
);
background = {
shapes = (
{
closed = 1;
nodes = (
(662,-10,o),
(778,74,o),
(778,219,cs),
(778,289,o),
(734,339,o),
(681,358,c),
(681,362,l),
(741,386,o),
(795,438,o),
(795,514,cs),
(795,629,o),
(660,696,o),
(482,696,cs),
(261,696,o),
(98,607,o),
(62,356,cs),
(11,0,l),
(236,0,l),
(294,416,ls),
(309,520,o),
(365,547,o),
(460,547,cs),
(536,547,o),
(595,534,o),
(595,484,cs),
(595,433,o),
(558,412,o),
(521,412,cs),
(413,412,l),
(395,289,l),
(519,289,ls),
(554,289,o),
(580,271,o),
(580,231,cs),
(580,182,o),
(568,139,o),
(517,139,cs),
(479,139,o),
(470,157,o),
(470,189,cs),
(470,195,o),
(470,202,o),
(471,209,c),
(295,209,l),
(292,192,o),
(291,176,o),
(291,160,cs),
(291,48,o),
(355,-10,o),
(500,-10,cs)
);
}
);
};
hints = (
{
horizontal = 1;
origin = (0,16);
target = (0,37);
type = Stem;
},
{
horizontal = 1;
origin = (0,29);
target = (0,28);
type = Stem;
},
{
horizontal = 1;
origin = (0,12);
target = (0,21);
type = Stem;
}
);
layerId = "C8A46E0E-B991-4CFC-ABD9-554F5B3B1198";
shapes = (
{
closed = 1;
nodes = (
(553,0,o),
(582,169,o),
(582,236,cs),
(582,299,o),
(549,340,o),
(504,358,c),
(504,362,l),
(572,391,o),
(613,459,o),
(613,529,cs),
(613,641,o),
(511,696,o),
(362,696,cs),
(176,696,o),
(77,602,o),
(49,396,cs),
(-6,0,l),
(204,0,l),
(264,426,ls),
(276,513,o),
(311,547,o),
(356,547,cs),
(398,547,o),
(424,535,o),
(424,492,cs),
(424,451,o),
(403,412,o),
(354,412,cs),
(316,412,l),
(299,289,l),
(343,289,ls),
(387,289,o),
(405,271,o),
(405,239,cs),
(405,219,o),
(407,149,o),
(324,149,cs),
(269,149,l),
(248,0,l),
(333,0,ls)
);
}
);
width = 600;
},
{
anchors = (
{
name = bottom;
pos = (264,0);
},
{
name = top;
pos = (361,686);
}
);
hints = (
{
horizontal = 1;
origin = (0,16);
target = (0,37);
type = Stem;
},
{
horizontal = 1;
origin = (0,29);
target = (0,28);
type = Stem;
},
{
horizontal = 1;
origin = (0,12);
target = (0,21);
type = Stem;
}
);
layerId = "56C8974D-A8FC-4FE2-AFFA-564C2D1D7F2D";
shapes = (
{
closed = 1;
nodes = (
(527,0,o),
(556,153,o),
(556,224,cs),
(556,293,o),
(520,336,o),
(468,354,c),
(469,358,l),
(544,394,o),
(589,456,o),
(589,537,cs),
(589,640,o),
(504,696,o),
(366,696,cs),
(201,696,o),
(108,610,o),
(82,424,cs),
(22,0,l),
(146,0,l),
(207,440,ls),
(223,552,o),
(275,603,o),
(359,603,cs),
(432,603,o),
(474,575,o),
(474,517,cs),
(474,449,o),
(424,391,o),
(355,391,cs),
(298,391,l),
(287,310,l),
(349,310,ls),
(405,310,o),
(448,281,o),
(448,221,cs),
(448,183,o),
(437,92,o),
(319,92,cs),
(240,92,l),
(226,0,l),
(319,0,l)
);
}
);
width = 600;
}
);
note = uni1E9E;
unicode = 7838;
},
{
color = 4;
glyphname = T;
layers = (
{
anchors = (
{
name = bottom;
pos = (264,0);
},
{
name = center;
pos = (311,340);
},
{
name = top;
pos = (361,686);
}
);
background = {
shapes = (
{
closed = 1;
nodes = (
(290,0,l),
(380,638,l),
(612,638,l),
(619,686,l),
(103,686,l),
(96,638,l),
(328,638,l),
(238,0,l)
);
}
);
};
hints = (
{
horizontal = 1;
origin = (0,7);
target = up;
type = BottomGhost;
},
{
horizontal = 1;
origin = (0,4);
target = (0,5);
type = Stem;
}
);
layerId = "1E610136-9B4E-49B0-BDBC-BF9A1AAA9445";
shapes = (
{
closed = 1;
nodes = (
(290,0,l),
(380,638,l),
(612,638,l),
(619,686,l),
(103,686,l),
(96,638,l),
(328,638,l),
(238,0,l)
);
}
);
width = 600;
},
{
anchors = (
{
name = bottom;
pos = (264,0);
},
{
name = center;
pos = (310,330);
},
{
name = top;
pos = (361,686);
}
);
background = {
shapes = (
{
closed = 1;
nodes = (
(368,0,l),
(442,521,l),
(616,521,l),
(639,686,l),
(83,686,l),
(60,521,l),
(234,521,l),
(160,0,l)
);
}
);
};
hints = (
{
horizontal = 1;
origin = (0,7);
target = up;
type = BottomGhost;
},
{
horizontal = 1;
origin = (0,5);
target = (0,4);
type = Stem;
}
);
layerId = "C8A46E0E-B991-4CFC-ABD9-554F5B3B1198";
shapes = (
{
closed = 1;
nodes = (
(368,0,l),
(441,521,l),
(615,521,l),
(639,686,l),
(83,686,l),
(59,521,l),
(233,521,l),
(160,0,l)
);
}
);
width = 600;
},
{
anchors = (
{
name = bottom;
pos = (264,0);
},
{
name = center;
pos = (311,336);
},
{
name = top;
pos = (361,686);
}
);
hints = (
{
horizontal = 1;
origin = (0,7);
target = up;
type = BottomGhost;
},
{
horizontal = 1;
origin = (0,4);
target = (0,5);
type = Stem;
}
);
layerId = "56C8974D-A8FC-4FE2-AFFA-564C2D1D7F2D";
shapes = (
{
closed = 1;
nodes = (
(325,0,l),
(407,586,l),
(613,586,l),
(628,686,l),
(94,686,l),
(80,586,l),
(286,586,l),
(203,0,l)
);
}
);
width = 600;
}
);
note = T;
unicode = 84;
},
{
color = 4;
glyphname = U;
layers = (
{
anchors = (
{
name = bottom;
pos = (264,0);
},
{
name = ogonek;
pos = (303,0);
},
{
name = top;
pos = (361,686);
},
{
name = topright;
pos = (526,686);
}
);
background = {
shapes = (
{
closed = 1;
nodes = (
(266,-10,ls),
(402,-10,o),
(494,75,o),
(514,220,cs),
(580,686,l),
(526,686,l),
(460,220,ls),
(444,106,o),
(373,38,o),
(269,38,cs),
(165,38,o),
(114,106,o),
(130,220,cs),
(196,686,l),
(142,686,l),
(76,220,ls),
(56,75,o),
(124,-10,o),
(260,-10,cs)
);
}
);
};
hints = (
{
horizontal = 1;
origin = (0,22);
target = (0,9);
type = Stem;
},
{
horizontal = 1;
origin = (0,16);
target = down;
type = TopGhost;
},
{
origin = (0,19);
target = (0,12);
type = Stem;
}
);
layerId = "1E610136-9B4E-49B0-BDBC-BF9A1AAA9445";
shapes = (
{
closed = 1;
nodes = (
(266,-10,ls),
(401,-10,o),
(494,75,o),
(514,220,cs),
(579,686,l),
(525,686,l),
(460,222,ls),
(444,106,o),
(373,38,o),
(269,38,cs),
(180,38,o),
(128,86,o),
(128,177,cs),
(128,215,o),
(130,229,o),
(196,686,c),
(142,686,l),
(113,491,o),
(74,219,o),
(74,170,cs),
(74,61,o),
(144,-10,o),
(262,-10,cs)
);
}
);
width = 600;
},
{
anchors = (
{
name = bottom;
pos = (264,0);
},
{
name = ogonek;
pos = (301,0);
},
{
name = top;
pos = (361,686);
},
{
name = topright;
pos = (517,686);
}
);
background = {
shapes = (
{
closed = 1;
nodes = (
(285,-10,ls),
(441,-10,o),
(545,75,o),
(565,218,cs),
(631,686,l),
(431,686,l),
(365,218,ls),
(358,171,o),
(331,146,o),
(285,146,cs),
(239,146,o),
(218,171,o),
(225,218,cs),
(291,686,l),
(91,686,l),
(25,218,ls),
(5,75,o),
(85,-10,o),
(242,-10,cs)
);
}
);
};
hints = (
{
horizontal = 1;
origin = (0,22);
target = (0,9);
type = Stem;
},
{
horizontal = 1;
origin = (0,16);
target = down;
type = TopGhost;
},
{
origin = (0,19);
target = (0,12);
type = Stem;
}
);
layerId = "C8A46E0E-B991-4CFC-ABD9-554F5B3B1198";
shapes = (
{
closed = 1;
nodes = (
(295,-10,ls),
(463,-10,o),
(547,80,o),
(566,218,cs),
(631,686,l),
(431,686,l),
(366,221,ls),
(360,177,o),
(334,146,o),
(288,146,cs),
(251,146,o),
(225,161,o),
(225,200,cs),
(225,228,o),
(238,319,o),
(291,686,c),
(90,686,l),
(38,323,o),
(22,205,o),
(21,172,cs),
(21,65,o),
(105,-10,o),
(252,-10,cs)
);
}
);
width = 600;
},
{
anchors = (
{
name = bottom;
pos = (264,0);
},
{
name = ogonek;
pos = (297,0);
},
{
name = top;
pos = (361,686);
},
{
name = topright;
pos = (522,686);
}
);
hints = (
{
horizontal = 1;
origin = (0,22);
target = (0,9);
type = Stem;
},
{
horizontal = 1;
origin = (0,16);
target = down;
type = TopGhost;
},
{
origin = (0,19);
target = (0,12);
type = Stem;
}
);
layerId = "56C8974D-A8FC-4FE2-AFFA-564C2D1D7F2D";
shapes = (
{
closed = 1;
nodes = (
(279,-10,ls),
(429,-10,o),
(517,77,o),
(537,219,cs),
(602,686,l),
(483,686,l),
(418,222,ls),
(406,138,o),
(356,86,o),
(277,86,cs),
(212,86,o),
(171,119,o),
(171,187,cs),
(171,221,o),
(178,269,o),
(238,686,c),
(119,686,l),
(80,416,o),
(51,213,o),
(50,171,cs),
(50,63,o),
(127,-10,o),
(258,-10,cs)
);
}
);
width = 600;
}
);
note = U;
unicode = 85;
},
{
color = 3;
glyphname = Ubar;
layers = (
{
layerId = "1E610136-9B4E-49B0-BDBC-BF9A1AAA9445";
shapes = (
{
closed = 1;
nodes = (
(41,359,l),
(589,359,l),
(595,407,l),
(47,407,l)
);
},
{
ref = U;
}
);
width = 600;
},
{
layerId = "56C8974D-A8FC-4FE2-AFFA-564C2D1D7F2D";
shapes = (
{
closed = 1;
nodes = (
(21,339,l),
(603,339,l),
(617,438,l),
(35,438,l)
);
},
{
ref = U;
}
);
width = 600;
},
{
background = {
shapes = (
{
alignment = -1;
pos = (52,-14);
ref = baraccentlongcomb;
}
);
};
layerId = "C8A46E0E-B991-4CFC-ABD9-554F5B3B1198";
shapes = (
{
closed = 1;
nodes = (
(0,325,l),
(620,325,l),
(638,451,l),
(18,451,l)
);
},
{
ref = U;
}
);
width = 600;
}
);
unicode = 580;
},
{
color = 4;
glyphname = V;
layers = (
{
anchors = (
{
name = bottom;
pos = (264,0);
},
{
name = top;
pos = (361,686);
}
);
background = {
shapes = (
{
closed = 1;
nodes = (
(290,0,l),
(646,686,l),
(593,686,l),
(283,86,l),
(278,86,l),
(138,686,l),
(79,686,l),
(242,0,l)
);
}
);
};
hints = (
{
horizontal = 1;
place = (0, 21);
target = up;
type = BottomGhost;
},
{
horizontal = 1;
place = (686, -20);
target = down;
type = TopGhost;
},
{
place = (79, 567);
place = (79, 567);
type = Stem;
},
{
horizontal = 1;
place = (0, 86);
place = (0, 86);
type = Stem;
}
);
layerId = "1E610136-9B4E-49B0-BDBC-BF9A1AAA9445";
shapes = (
{
closed = 1;
nodes = (
(292,0,l),
(641,686,l),
(582,686,l),
(275,74,l),
(271,74,l),
(136,686,l),
(81,686,l),
(236,0,l)
);
}
);
width = 600;
},
{
anchors = (
{
name = bottom;
pos = (264,0);
},
{
name = top;
pos = (361,686);
}
);
background = {
shapes = (
{
closed = 1;
nodes = (
(409,0,l),
(714,686,l),
(512,686,l),
(333,260,l),
(329,260,l),
(269,686,l),
(51,686,l),
(159,0,l)
);
}
);
};
hints = (
{
horizontal = 1;
place = (0, 21);
target = up;
type = BottomGhost;
},
{
horizontal = 1;
place = (686, -20);
target = down;
type = TopGhost;
},
{
place = (51, 663);
place = (51, 663);
type = Stem;
}
);
layerId = "C8A46E0E-B991-4CFC-ABD9-554F5B3B1198";
shapes = (
{
closed = 1;
nodes = (
(399,0,l),
(661,686,l),
(458,686,l),
(292,161,l),
(287,161,l),
(262,686,l),
(61,686,l),
(131,0,l)
);
}
);
width = 600;
},
{
anchors = (
{
name = bottom;
pos = (264,0);
},
{
name = top;
pos = (361,686);
}
);
hints = (
{
horizontal = 1;
place = (0, 21);
target = up;
type = BottomGhost;
},
{
horizontal = 1;
place = (686, -20);
target = down;
type = TopGhost;
},
{
place = (44, 315);
place = (44, 315);
type = Stem;
},
{
horizontal = 1;
place = (23, 342);
place = (23, 342);
type = Stem;
}
);
layerId = "56C8974D-A8FC-4FE2-AFFA-564C2D1D7F2D";
shapes = (
{
closed = 1;
nodes = (
(340,0,l),
(650,686,l),
(527,686,l),
(283,113,l),
(278,113,l),
(192,686,l),
(72,686,l),
(189,0,l)
);
}
);
width = 600;
}
);
note = V;
unicode = 86;
},
{
color = 4;
glyphname = W;
layers = (
{
anchors = (
{
name = bottom;
pos = (264,0);
},
{
name = top;
pos = (361,686);
}
);
background = {
shapes = (
{
closed = 1;
nodes = (
(251,0,l),
(502,581,l),
(506,581,l),
(593,0,l),
(639,0,l),
(936,686,l),
(886,686,l),
(637,107,l),
(633,107,l),
(548,686,l),
(498,686,l),
(249,107,l),
(245,107,l),
(160,686,l),
(102,686,l),
(205,0,l)
);
}
);
};
hints = (
{
horizontal = 1;
origin = (0,15);
target = (0,12);
type = Stem;
},
{
horizontal = 1;
origin = (0,14);
target = down;
type = TopGhost;
},
{
horizontal = 1;
origin = (0,14);
target = (0,1);
type = Stem;
}
);
layerId = "1E610136-9B4E-49B0-BDBC-BF9A1AAA9445";
shapes = (
{
closed = 1;
nodes = (
(163,0,l),
(344,581,l),
(348,581,l),
(367,0,l),
(434,0,l),
(661,686,l),
(607,686,l),
(419,107,l),
(415,107,l),
(397,686,l),
(325,686,l),
(145,107,l),
(141,107,l),
(113,686,l),
(61,686,l),
(94,0,l)
);
}
);
width = 600;
},
{
anchors = (
{
name = bottom;
pos = (264,0);
},
{
name = top;
pos = (361,686);
}
);
background = {
shapes = (
{
closed = 1;
nodes = (
(385,0,l),
(515,329,l),
(521,329,l),
(557,0,l),
(795,0,l),
(1078,686,l),
(881,686,l),
(730,305,l),
(726,305,l),
(684,686,l),
(469,686,l),
(317,305,l),
(313,305,l),
(270,686,l),
(53,686,l),
(143,0,l)
);
}
);
};
hints = (
{
horizontal = 1;
origin = (0,15);
target = up;
type = BottomGhost;
},
{
horizontal = 1;
origin = (0,14);
target = down;
type = TopGhost;
}
);
layerId = "C8A46E0E-B991-4CFC-ABD9-554F5B3B1198";
shapes = (
{
closed = 1;
nodes = (
(227,0,l),
(308,329,l),
(312,329,l),
(301,0,l),
(504,0,l),
(661,686,l),
(504,686,l),
(417,305,l),
(413,305,l),
(427,686,l),
(303,686,l),
(209,305,l),
(205,305,l),
(226,686,l),
(61,686,l),
(24,0,l)
);
}
);
width = 600;
},
{
anchors = (
{
name = bottom;
pos = (264,0);
},
{
name = top;
pos = (361,686);
}
);
hints = (
{
horizontal = 1;
origin = (0,15);
target = (0,12);
type = Stem;
},
{
horizontal = 1;
origin = (0,14);
target = down;
type = TopGhost;
},
{
horizontal = 1;
origin = (0,14);
target = (0,1);
type = Stem;
}
);
layerId = "56C8974D-A8FC-4FE2-AFFA-564C2D1D7F2D";
shapes = (
{
closed = 1;
nodes = (
(191,0,l),
(328,469,l),
(332,469,l),
(338,0,l),
(465,0,l),
(661,686,l),
(561,686,l),
(418,195,l),
(414,195,l),
(410,686,l),
(315,686,l),
(173,195,l),
(169,195,l),
(163,686,l),
(61,686,l),
(63,0,l)
);
}
);
width = 600;
}
);
note = W;
unicode = 87;
},
{
color = 4;
glyphname = X;
layers = (
{
anchors = (
{
name = bottom;
pos = (264,0);
},
{
name = top;
pos = (361,686);
}
);
background = {
shapes = (
{
closed = 1;
nodes = (
(51,0,l),
(319,315,l),
(323,315,l),
(499,0,l),
(564,0,l),
(360,359,l),
(639,686,l),
(580,686,l),
(339,402,l),
(335,402,l),
(177,686,l),
(112,686,l),
(298,359,l),
(-7,0,l)
);
}
);
};
hints = (
{
horizontal = 1;
origin = (0,13);
target = up;
type = BottomGhost;
},
{
horizontal = 1;
origin = (0,11);
target = down;
type = TopGhost;
}
);
layerId = "1E610136-9B4E-49B0-BDBC-BF9A1AAA9445";
shapes = (
{
closed = 1;
nodes = (
(42,0,l),
(310,315,l),
(312,315,l),
(490,0,l),
(550,0,l),
(346,359,l),
(625,686,l),
(561,686,l),
(319,402,l),
(317,402,l),
(158,686,l),
(98,686,l),
(284,359,l),
(-22,0,l)
);
}
);
width = 600;
},
{
anchors = (
{
name = bottom;
pos = (264,0);
},
{
name = top;
pos = (361,686);
}
);
background = {
shapes = (
{
closed = 1;
nodes = (
(169,0,l),
(314,213,l),
(318,213,l),
(404,0,l),
(648,0,l),
(484,362,l),
(724,686,l),
(499,686,l),
(379,511,l),
(375,511,l),
(305,686,l),
(62,686,l),
(209,363,l),
(-56,0,l)
);
}
);
};
hints = (
{
horizontal = 1;
origin = (0,13);
target = up;
type = BottomGhost;
},
{
horizontal = 1;
origin = (0,9);
target = down;
type = TopGhost;
},
{
horizontal = 1;
origin = (0,11);
target = down;
type = TopGhost;
}
);
layerId = "C8A46E0E-B991-4CFC-ABD9-554F5B3B1198";
shapes = (
{
closed = 1;
nodes = (
(190,0,l),
(283,213,l),
(287,213,l),
(344,0,l),
(565,0,l),
(453,362,l),
(641,686,l),
(426,686,l),
(348,511,l),
(344,511,l),
(302,686,l),
(83,686,l),
(178,363,l),
(-36,0,l)
);
}
);
width = 600;
},
{
anchors = (
{
name = bottom;
pos = (264,0);
},
{
name = top;
pos = (361,686);
}
);
hints = (
{
horizontal = 1;
origin = (0,13);
target = up;
type = BottomGhost;
},
{
horizontal = 1;
origin = (0,11);
target = down;
type = TopGhost;
}
);
layerId = "56C8974D-A8FC-4FE2-AFFA-564C2D1D7F2D";
shapes = (
{
closed = 1;
nodes = (
(108,0,l),
(298,270,l),
(301,270,l),
(425,0,l),
(557,0,l),
(394,360,l),
(632,686,l),
(501,686,l),
(332,450,l),
(329,450,l),
(222,686,l),
(91,686,l),
(237,361,l),
(-28,0,l)
);
}
);
width = 600;
}
);
note = X;
unicode = 88;
},
{
color = 4;
glyphname = Y;
layers = (
{
anchors = (
{
name = bottom;
pos = (264,0);
},
{
name = top;
pos = (361,686);
},
{
name = topleft;
pos = (81,686);
}
);
background = {
shapes = (
{
closed = 1;
nodes = (
(274,0,l),
(312,266,l),
(617,686,l),
(562,686,l),
(297,321,l),
(292,321,l),
(134,686,l),
(71,686,l),
(258,266,l),
(220,0,l)
);
}
);
};
hints = (
{
horizontal = 1;
origin = (0,9);
target = up;
type = BottomGhost;
},
{
horizontal = 1;
origin = (0,7);
target = down;
type = TopGhost;
}
);
layerId = "1E610136-9B4E-49B0-BDBC-BF9A1AAA9445";
shapes = (
{
closed = 1;
nodes = (
(291,0,l),
(328,266,l),
(634,686,l),
(574,686,l),
(308,321,l),
(305,321,l),
(146,686,l),
(88,686,l),
(274,266,l),
(237,0,l)
);
}
);
width = 600;
},
{
anchors = (
{
name = bottom;
pos = (264,0);
},
{
name = top;
pos = (361,686);
},
{
name = topleft;
pos = (81,686);
}
);
background = {
shapes = (
{
closed = 1;
nodes = (
(384,0,l),
(421,262,l),
(708,686,l),
(493,686,l),
(356,461,l),
(351,461,l),
(280,686,l),
(44,686,l),
(212,262,l),
(175,0,l)
);
}
);
};
hints = (
{
horizontal = 1;
origin = (0,9);
target = up;
type = BottomGhost;
},
{
horizontal = 1;
origin = (0,7);
target = down;
type = TopGhost;
}
);
layerId = "C8A46E0E-B991-4CFC-ABD9-554F5B3B1198";
shapes = (
{
closed = 1;
nodes = (
(369,0,l),
(402,232,l),
(661,686,l),
(448,686,l),
(335,455,l),
(330,455,l),
(274,686,l),
(61,686,l),
(193,232,l),
(160,0,l)
);
}
);
width = 600;
},
{
anchors = (
{
name = bottom;
pos = (264,0);
},
{
name = top;
pos = (361,686);
},
{
name = topleft;
pos = (81,686);
}
);
hints = (
{
horizontal = 1;
origin = (0,9);
target = up;
type = BottomGhost;
},
{
horizontal = 1;
origin = (0,7);
target = down;
type = TopGhost;
}
);
layerId = "56C8974D-A8FC-4FE2-AFFA-564C2D1D7F2D";
shapes = (
{
closed = 1;
nodes = (
(326,0,l),
(361,251,l),
(646,686,l),
(518,686,l),
(320,381,l),
(316,381,l),
(203,686,l),
(76,686,l),
(238,251,l),
(203,0,l)
);
}
);
width = 600;
}
);
note = Y;
unicode = 89;
},
{
color = 4;
glyphname = Z;
layers = (
{
anchors = (
{
name = bottom;
pos = (264,0);
},
{
name = center;
pos = (312,343);
},
{
name = top;
pos = (354,686);
}
);
background = {
shapes = (
{
closed = 1;
nodes = (
(514,0,l),
(521,48,l),
(99,48,l),
(599,662,l),
(603,686,l),
(132,686,l),
(125,638,l),
(514,638,l),
(15,25,l),
(11,0,l)
);
}
);
};
hints = (
{
horizontal = 1;
origin = (0,9);
target = (0,2);
type = Stem;
},
{
horizontal = 1;
origin = (0,5);
target = (0,6);
type = Stem;
}
);
layerId = "1E610136-9B4E-49B0-BDBC-BF9A1AAA9445";
shapes = (
{
closed = 1;
nodes = (
(515,0,l),
(522,48,l),
(101,48,l),
(600,662,l),
(604,686,l),
(133,686,l),
(126,638,l),
(515,638,l),
(16,25,l),
(12,0,l)
);
}
);
width = 600;
},
{
anchors = (
{
name = bottom;
pos = (264,0);
},
{
name = center;
pos = (312,343);
},
{
name = top;
pos = (361,686);
}
);
background = {
shapes = (
{
closed = 1;
nodes = (
(543,0,l),
(566,161,l),
(294,161,l),
(623,625,l),
(632,686,l),
(93,686,l),
(70,526,l),
(315,526,l),
(-18,61,l),
(-27,0,l)
);
}
);
};
hints = (
{
horizontal = 1;
origin = (0,9);
target = (0,2);
type = Stem;
},
{
horizontal = 1;
origin = (0,5);
target = (0,6);
type = Stem;
}
);
layerId = "C8A46E0E-B991-4CFC-ABD9-554F5B3B1198";
shapes = (
{
closed = 1;
nodes = (
(549,0,l),
(572,161,l),
(306,161,l),
(629,625,l),
(638,686,l),
(99,686,l),
(76,526,l),
(315,526,l),
(-13,61,l),
(-22,0,l)
);
}
);
width = 600;
},
{
anchors = (
{
name = bottom;
pos = (264,0);
},
{
name = center;
pos = (312,343);
},
{
name = top;
pos = (353,686);
}
);
hints = (
{
horizontal = 1;
origin = (0,9);
target = (0,2);
type = Stem;
},
{
horizontal = 1;
origin = (0,5);
target = (0,6);
type = Stem;
}
);
layerId = "56C8974D-A8FC-4FE2-AFFA-564C2D1D7F2D";
shapes = (
{
closed = 1;
nodes = (
(530,0,l),
(544,98,l),
(192,98,l),
(613,646,l),
(619,686,l),
(118,686,l),
(104,588,l),
(426,588,l),
(3,41,l),
(-3,0,l)
);
}
);
width = 600;
}
);
note = Z;
unicode = 90;
},
{
color = 4;
glyphname = Ismall;
layers = (
{
layerId = "1E610136-9B4E-49B0-BDBC-BF9A1AAA9445";
shapes = (
{
closed = 1;
nodes = (
(406,0,l),
(413,46,l),
(297,46,l),
(355,465,l),
(471,465,l),
(478,511,l),
(195,511,l),
(188,465,l),
(304,465,l),
(246,46,l),
(130,46,l),
(123,0,l)
);
}
);
width = 600;
},
{
layerId = "56C8974D-A8FC-4FE2-AFFA-564C2D1D7F2D";
shapes = (
{
closed = 1;
nodes = (
(427,0,l),
(440,89,l),
(335,89,l),
(381,422,l),
(486,422,l),
(499,511,l),
(173,511,l),
(160,422,l),
(265,422,l),
(219,89,l),
(114,89,l),
(101,0,l)
);
}
);
width = 600;
},
{
layerId = "C8A46E0E-B991-4CFC-ABD9-554F5B3B1198";
shapes = (
{
closed = 1;
nodes = (
(463,0,l),
(483,142,l),
(383,142,l),
(415,369,l),
(515,369,l),
(535,511,l),
(137,511,l),
(117,369,l),
(217,369,l),
(185,142,l),
(85,142,l),
(65,0,l)
);
}
);
width = 600;
}
);
unicode = 618;
},
